<svg width="1440" height="591" viewBox="0 0 1440 591" fill="none" xmlns="http://www.w3.org/2000/svg">
<path fill-rule="evenodd" clip-rule="evenodd" d="M423.391 83.4186C680.18 -30.2438 961.84 -37.1343 1300.57 121.388L1440 328.605L1440 328.605H0.00104039V328.605H0L0.00104039 328.604V16.6212H0.000488281C141.731 -9.06022 266.405 25.8907 423.391 83.4186Z" fill="#B73913"/>
<path fill-rule="evenodd" clip-rule="evenodd" d="M1440 16.6212C1172.99 -31.7608 966.518 135.053 490.475 262.608L0 328.605H1440V16.6212H1440Z" fill="#A35B0F"/>
<path fill-rule="evenodd" clip-rule="evenodd" d="M1440 234.11C963.957 106.555 364.506 -40.76 0.000488281 114.116V310H0V481V504V506.546C480 624.067 959.999 614.126 1440 506.546V504V481V310L1440 234.11Z" fill="#B88119"/>
</svg>
