<svg width="13" height="9" viewBox="0 0 13 9" fill="none" xmlns="http://www.w3.org/2000/svg">
<path d="M11.9811 0.180803L4.58048 7.53348L1.02977 3.67634C0.977106 3.61789 0.913196 3.57083 0.841922 3.53801C0.770647 3.50519 0.693493 3.4873 0.615144 3.48542C0.536795 3.48354 0.458884 3.49771 0.386139 3.52708C0.313394 3.55644 0.247332 3.60039 0.191964 3.65625C0.0768308 3.76356 0.00813963 3.9121 0.000677986 4.06991C-0.00678365 4.22771 0.0475811 4.38216 0.152069 4.5L4.12168 8.79911C4.23449 8.91221 4.38229 8.98309 4.54059 9H4.56053C4.63888 9 4.7164 8.98397 4.78841 8.95289C4.86042 8.92181 4.92541 8.87633 4.97944 8.8192L12.8189 1.04464C12.8762 0.988483 12.9218 0.921327 12.9529 0.847143C12.984 0.772958 13 0.693249 13 0.612723C13 0.532197 12.984 0.452488 12.9529 0.378304C12.9218 0.304119 12.8762 0.236963 12.8189 0.180803C12.7649 0.12367 12.6999 0.0781849 12.6279 0.0471053C12.5559 0.0160258 12.4784 0 12.4 0C12.3217 0 12.2442 0.0160258 12.1721 0.0471053C12.1001 0.0781849 12.0351 0.12367 11.9811 0.180803Z" fill="#346025"/>
</svg>
