<svg width="1443" height="130" viewBox="0 0 1443 130" fill="none" xmlns="http://www.w3.org/2000/svg">
<path d="M1.46268 73.1764C2.19402 73.8698 3.61822 74.3185 4.88844 74.9303C3.27179 75.9908 1.96307 76.8474 0.461899 77.8264C0.654358 79.1316 0.846819 80.5593 1.07777 82.1093C0.115478 84.8422 0.769834 87.7382 0.692851 90.6343C1.50118 90.8382 2.15553 91.0014 2.7714 91.1645C2.04006 91.5724 1.34721 91.9803 0.577377 92.429C0.577377 96.0185 0.346425 99.608 0.654358 103.157C0.9238 106.665 -0.115472 110.172 1.07777 113.354C0.88531 114.496 0.615866 115.353 0.615866 116.25C0.577374 119.717 0.615866 123.184 0.615866 126.692C0.615866 127.549 0.615866 128.446 0.615866 129.303H1436.85C1436.74 128.487 1436.66 127.712 1436.55 126.611C1440.86 126.57 1438.24 119.065 1441.36 117.8C1441.78 115.026 1442.13 112.62 1442.51 110.172C1440.97 107.643 1439.32 106.134 1436.59 107.644V97.9356C1437.86 95.8553 1438.86 94.2645 1439.86 92.633C1439.24 91.2869 1438.82 90.3487 1438.39 89.329C1435.55 91.4501 1433.93 95.2435 1431.2 96.9566C1430 97.7317 1429.31 100.22 1428.39 101.933C1427.96 101.117 1427.35 99.8527 1426.46 98.1395C1428.73 95.9369 1431.04 94.1422 1433.01 91.654C1435.01 89.1251 1436.62 85.9435 1438.39 83.1698C1437.51 80.6001 1436.74 78.4382 1435.93 76.154C1432.93 77.7448 1432.51 83.7816 1429.5 85.1685C1427.54 81.2527 1432.51 78.9685 1430.27 75.7053C1428.69 75.175 1427.39 74.7264 1425.85 74.1961C1428.46 71.4224 1430.7 69.0566 1433.08 66.4869C1432.35 65.1816 1431.66 63.9579 1431 62.775C1431.58 59.9606 1432.12 57.3093 1430.66 53.7606C1429.77 55.9224 1429.19 57.3908 1428.73 58.5329H1424.34C1424.15 57.8803 1423.92 56.9421 1423.77 56.3711C1422.15 56.0448 1420.77 55.8 1419.38 55.5145C1419.38 55.2698 1419.34 55.025 1419.34 54.7803C1420.88 53.9645 1422.38 53.1895 1423.92 52.4145C1424 50.8237 1424.08 49.3961 1424.11 48.5395C1425.31 46.9895 1426.31 45.725 1427.89 43.7263C1424.77 43.7671 1427.5 40.0961 1425.54 39.0763C1424.96 38.7908 1426.46 35.2421 1424.31 33.7737C1423.5 36.7105 1422.69 39.6474 1421.88 42.4619C1421.69 41.8908 1421.42 40.9934 1421.07 39.9329C1420.34 40.6263 1419.65 41.279 1418.88 42.0132V50.2527C1417.88 49.1514 1417.03 48.2132 1416.34 47.479C1416.76 40.5448 1416.38 34.5079 1415.3 28.4303C1414.8 25.6974 1415.22 22.6382 1415.22 19.579C1412.53 17.9882 1412.68 14.4395 1412.87 10.6461C1411.84 10.4013 1410.99 10.1974 1409.95 9.95263C1409.8 12.4816 1409.72 14.4803 1409.6 16.3566C1408.72 17.05 1408.02 17.6211 1407.14 18.3145C1408.26 21.9855 1405.48 25.3303 1407.06 29.0013C1405.75 32.7132 1406.64 36.425 1407.25 40.0553C1406.14 40.7079 1405.25 41.2382 1404.56 41.6461C1404.21 43.8895 1403.91 45.8066 1403.56 48.0092C1402.56 44.9908 1401.67 42.3395 1400.75 39.525C1400.25 39.6474 1399.71 39.7698 1399.25 39.8921C1398.94 40.9934 1398.67 41.8908 1398.4 42.7882C1397.86 41.8092 1397.36 40.8711 1396.21 38.7908C1396.36 43.2777 1396.48 46.2961 1396.59 49.9671C1398.02 50.4566 1399.44 50.9461 1400.86 51.3948C1400.17 51.925 1399.44 52.4145 1398.63 52.9856C1398.75 54.3724 1398.86 55.5553 1398.9 56.2079C1400.71 59.7158 1404.44 59.675 1404.6 65.304C1403.52 65.3856 1402.56 65.5079 1401.83 65.5487C1400.79 64.2027 1399.94 63.1422 1399.25 62.2448C1397.94 62.0408 1396.86 61.8369 1396.05 61.7145C1395.36 59.9606 1394.86 58.6553 1393.9 56.2079C1393.74 60.0014 1393.67 62.4487 1393.59 64.9369C1393.17 65.3448 1392.7 65.7527 1392.32 66.1198C1392.78 67.2211 1393.05 67.9145 1393.32 68.6079C1392.9 69.3014 1392.47 69.954 1391.97 70.729C1392.67 71.7079 1393.13 72.3606 1393.63 73.0132C1392.9 72.85 1392.13 72.7277 1391.4 72.5645C1391.28 70.1172 1391.17 68.0777 1391.05 66.0382C1390.93 66.1606 1390.78 66.2829 1390.66 66.4053C1390.28 65.304 1389.86 64.2027 1389.47 63.1422C1389.66 63.754 1389.82 64.4066 1390.01 65.0185C1389.16 65.4671 1388.28 65.9158 1387.39 66.3645C1387.7 67.4658 1388.01 68.6079 1388.05 68.8119C1387.47 71.7487 1387.05 73.8698 1386.62 75.9501C1386.35 75.5422 1386.08 75.0935 1385.66 74.4C1385.01 75.5014 1384.43 76.5211 1383.81 77.5408C1384.62 78.5606 1385.2 79.2948 1385.62 79.8251C1385.01 81.3751 1384.43 82.7211 1383.85 84.1488H1379.35C1378.69 83.2106 1378.12 82.4356 1377.58 81.7014C1374.07 82.1093 1371.03 81.4974 1368.72 76.9698C1371.88 76.3987 1374.96 75.8685 1378.04 75.2974C1378.54 72.8501 1381.08 72.9316 1380.96 69.4237C1379.04 69.179 1377.19 68.8935 1375.11 68.6487C1375.58 66.2829 1375.96 64.529 1376.19 62.7343C1376.31 61.7961 1376.11 60.7356 1376.04 59.0632C1374.07 61.6329 1372.57 63.6316 1370.96 65.7527C1369.92 63.1829 1369.15 61.1843 1368.26 58.9816C1369.99 58.0435 1371.42 57.3093 1373.04 56.4527C1374.5 53.8014 1376.11 50.9053 1377.81 47.8461C1375.61 45.6027 1373.19 47.7645 1371.3 46.4185C1371.23 44.95 1371.19 43.6856 1371.11 42.0948C1369.03 42.5435 1367.57 45.3987 1365.38 43.8895C1367.95 41.9724 1370.34 40.1777 1371.65 35.5277H1366.07C1366.57 34.2224 1366.92 33.325 1367.3 32.3053C1366.38 32.0198 1365.53 31.7342 1364.91 31.5303C1365.34 30.1842 1365.68 29.0421 1366.15 27.5329C1364.84 27.7369 1363.91 27.9 1362.87 28.0632C1362.22 26.9619 1361.56 25.9013 1360.83 24.6776C1361.33 23.5355 1361.8 22.5566 1361.95 22.2303C1361.37 19.5382 1360.91 17.3763 1360.64 16.1526C1359.29 13.95 1358.41 12.4408 1357.37 10.7276C1356.95 10.9316 1356.45 11.1763 1356.1 11.3803C1355.25 14.4803 1356.48 17.7842 1354.98 20.8434C1353.98 19.9461 1353.14 19.2119 1352.21 18.3553C1351.98 19.1303 1351.79 19.6605 1351.56 20.3132C1352.44 21.7408 1353.29 23.1276 1353.98 24.229C1353.06 25.2079 1352.33 26.0237 1351.56 26.8395C1352.21 27.9 1352.56 28.4711 1352.87 29.0421C1352.75 29.2461 1352.6 29.45 1352.48 29.654C1351.17 28.879 1349.86 28.104 1348.52 27.329C1347.67 30.4698 1349.59 31.2448 1350.71 33.4066C1348.13 32.9987 1346.25 32.7132 1344.24 32.4277V35.0382C1345.01 35.5277 1345.78 36.0171 1346.67 36.5882C1346.48 37.8119 1346.09 38.9948 1346.13 40.0961C1346.17 40.9935 1346.75 41.85 1347.17 43.0737C1344.51 43.1961 1343.17 38.9948 1340.63 40.5448C1341.01 45.0724 1343.09 47.6421 1345.17 49.804C1344.24 50.6606 1343.28 51.5987 1342.28 52.4961C1339.12 51.0685 1337.05 50.0895 1334.35 48.8658C1336.05 47.6013 1337.12 46.7856 1338.62 45.6842C1336.58 45.2356 1335.12 44.9092 1333.31 44.5013C1332.62 42.1763 1331.96 39.9329 1331.27 37.6079C1330.35 38.0158 1329.58 38.3829 1328.73 38.75C1328.62 40.8303 1328.54 42.7066 1328.42 44.5421C1326.65 44.379 1325.15 44.2566 1323.3 44.1342C1324.96 46.3777 1326.35 48.2132 1327.5 49.7632C1326.58 51.7619 1325.84 53.3119 1323.69 52.7408C1322.15 51.8027 1320.8 50.9869 1319.42 50.1711C1317.57 53.2303 1322.57 52.8224 1321.73 55.1474C1319.46 56.6158 1317.03 54.7803 1314.68 55.025C1314.34 55.5553 1314.07 55.9632 1313.64 56.6566C1315.38 57.2685 1316.99 57.7987 1318.8 58.4106C1318.15 59.1856 1317.53 59.9198 1316.91 60.6132C1317.03 61.8777 1320.19 62.1632 1318.15 64.0395C1312.64 60.7764 1312.64 60.7764 1309.02 61.3882C1310.53 63.2645 1311.91 65.0592 1313.41 66.9764C1314.22 67.2619 1315.18 67.5474 1316.22 67.9145C1311.83 70.6474 1307.1 72.8093 1304.21 77.1737C1304.83 77.5001 1305.41 77.7856 1305.91 78.0711C1306.95 77.5001 1307.79 77.0514 1308.68 76.6027C1309.02 77.5408 1309.29 78.2751 1309.56 78.9685C1313.68 79.458 1315.88 75.2974 1319.8 75.9093C1320.07 78.7237 1317.68 79.9474 1316.22 81.4974C1312.49 82.4764 1308.91 83.4145 1305.06 84.4751C1305.98 83.333 1306.83 82.2724 1307.6 81.2935C1305.87 79.254 1303.6 80.7632 1301.67 80.4369C1301.86 79.6211 1302.02 79.0093 1302.1 78.683C1300.75 77.1737 1299.59 75.8685 1298.59 74.7672C1296.74 74.1553 1295.01 73.5843 1293.2 72.9724C1294.44 71.504 1295.36 70.4027 1296.71 68.8527C1294.67 68.8527 1293.4 68.8527 1292.2 68.8527C1291.51 66.4053 1290.89 64.0803 1290.2 61.6329C1288.89 61.8369 1287.82 62 1286.31 62.2448C1286.31 60.0422 1286.31 58.2066 1286.31 56.3303C1286.08 56.2895 1285.81 56.2487 1285.58 56.2079C1284.97 57.3092 1284.35 58.3698 1283.73 59.5119C1281.31 60.45 1278.81 61.429 1276.27 62.4079C1275.5 61.3882 1274.73 60.3685 1274.04 59.4303C1276.88 57.8803 1279.89 56.6158 1280.77 53.1895C1279.35 52.9856 1278.35 52.8224 1277.42 52.6592C1279.35 51.8435 1281.31 50.9869 1283.27 50.1711C1283 47.9277 1283.54 46.3777 1283.97 44.7869C1284.08 44.4198 1283.81 43.9303 1283.66 43.1961C1282.43 43.8079 1281.43 44.3382 1280.42 44.8277C1280.12 44.0119 1279.81 43.2777 1279.46 42.5027C1278.65 42.5027 1278 42.5027 1277.15 42.5027C1276.77 44.0935 1276.42 45.6027 1276.11 46.9895C1274.92 46.9895 1274.07 46.9895 1273.15 46.9895C1273.23 45.8066 1273.27 44.7869 1273.34 43.5224C1271.76 43.5224 1270.53 43.5224 1269.03 43.5224C1269.92 40.9527 1270.69 38.7092 1271.46 36.5474C1270.61 35.8132 1269.99 35.2829 1269.76 35.079C1269.76 32.1421 1269.76 29.5724 1269.76 27.6961C1267.8 24.5145 1266.18 21.904 1264.45 19.0895C1263.57 19.8237 1262.83 20.4355 1262.68 20.5579C1262.14 23.0053 1261.76 24.7592 1261.41 26.35C1260.29 26.6355 1259.64 26.7987 1258.75 27.0434C1259.37 27.9816 1259.87 28.7566 1260.68 29.9803C1259.79 32.9579 1258.79 36.3027 1257.56 40.4224C1257.48 42.3395 1257.37 45.154 1257.29 48.0908C1256.02 48.0092 1255.37 47.9277 1254.4 47.8869C1254.33 45.6842 1254.13 43.5224 1251.4 42.7474C1251.06 43.0737 1250.67 43.4408 1250.32 43.7671C1249.21 39.8513 1247.98 38.3013 1246.36 38.5869C1244.17 40.0961 1246.63 40.9527 1246.86 41.9724C1246.05 42.5434 1245.4 43.0329 1244.67 43.5632C1245.2 44.0119 1245.59 44.3382 1246.01 44.6645C1245.51 45.1948 1245.01 45.7658 1244.24 46.5816C1245.63 47.6421 1246.94 48.6619 1248.28 49.7224C1248.13 50.2119 1247.94 50.7829 1247.63 51.6803C1249.09 52.4553 1250.52 53.2303 1252.56 54.3316C1250.59 54.3316 1249.32 54.3316 1248.09 54.3316C1247.71 55.5553 1247.4 56.5343 1247.01 57.7987C1245.44 56.6158 1244.24 55.6777 1243.32 54.9435C1244.86 50.0079 1244.86 50.0079 1241.93 46.9079C1242.47 43.1145 1239.51 39.2803 1243.24 35.9763C1241.82 35.6908 1240.78 35.4461 1239.93 35.2829C1239.05 32.8355 1238.2 30.429 1237.24 27.8184C1236.47 27.9408 1235.66 28.104 1234.81 28.2263C1234.66 30.0619 1234.5 31.6526 1234.39 33.0803C1233.31 33.529 1232.5 33.8553 1231.54 34.2632C1231.42 35.8132 1231.27 37.404 1231.16 38.954C1230.54 39.7698 1229.96 40.5448 1229.35 41.3198C1230.08 42.5027 1230.77 43.5632 1231.46 44.6645C1230.23 45.6027 1229.23 46.4185 1228.5 46.9487C1228.73 49.9264 1232.54 51.354 1231.08 54.25C1229.54 54.3316 1228.11 54.4132 1226.57 54.454C1226.69 55.8816 1226.77 56.779 1226.88 57.6764C1225.96 58.329 1225.19 58.8593 1224.34 59.4711C1223.34 57.0645 1223.84 54.3724 1220.99 52.6185C1220.07 53.8014 1219.22 54.8619 1218.41 55.9224C1217.3 55.229 1216.49 54.7395 1215.14 53.9237C1215.41 56.7382 1215.6 58.9816 1215.84 61.4698C1217.76 62.3264 1219.95 63.3053 1222.15 64.2843C1220.95 64.4882 1219.76 64.6922 1218.61 64.8961C1218.53 65.6303 1218.49 66.079 1218.41 66.7316C1220.15 67.9553 1221.8 69.4645 1223.77 70.4435C1226 71.5856 1227.15 73.2172 1227.88 75.2566C1227.96 75.4606 1227.61 75.7869 1227.34 76.1948C1226.31 75.6645 1225.27 75.1751 1224.11 74.604C1223.42 75.379 1222.76 76.0724 1222.07 76.8066C1221.8 75.7053 1221.53 74.604 1221.26 73.5843C1219.45 73.3803 1217.88 73.1764 1216.3 73.0132C1214.99 71.5856 1213.72 70.1987 1211.99 68.3224C1211.99 70.8922 1211.99 72.6461 1211.99 74.4C1210.22 76.4395 1208.87 78.479 1210.52 81.4566C1211.68 81.783 1213.18 82.2316 1214.64 82.6395C1214.49 82.7619 1214.37 82.8843 1214.22 83.0066C1216.64 85.0053 1219.07 87.004 1221.69 89.1251C1220.3 90.2672 1219.07 91.2869 1217.91 92.2251C1216.57 90.7159 1215.26 89.2474 1213.76 87.6159C1212.72 88.3501 1211.95 88.8803 1210.99 89.533C1205.4 86.7185 1200.28 82.6803 1193.59 82.9659C1192.24 81.6606 1191.12 80.5593 1189.97 79.458C1190.7 79.0908 1191.32 78.8053 1191.93 78.5198C1193.05 79.2948 1194.13 80.0698 1195.51 81.008C1196.05 79.0909 1195.97 77.0922 1198.51 76.2356C1200.55 77.6632 1202.71 79.2132 1205.52 81.1711C1205.25 79.2132 1205.06 77.8672 1204.83 76.0724C1205.9 74.9303 1207.21 73.5435 1208.52 72.1566C1206.79 70.4027 1205.83 72.279 1205.17 72.5237C1199.71 70.6474 1194.67 68.8935 1189.66 67.1803C1189.2 65.7119 1188.81 64.4066 1188.31 62.7343C1191.59 64.0803 1194.28 65.1816 1196.97 66.3237C1198.75 65.4671 1200.48 64.6106 1202.67 63.5093C1199.17 60.8579 1196.09 58.5329 1193.36 56.4527C1194.82 54.5764 1196.32 52.6185 1198.21 50.1711C1196.2 50.0487 1194.82 49.9671 1193.93 49.9264C1192.32 50.9869 1191.12 51.7619 1189.93 52.5777C1189.74 52.4145 1189.55 52.2514 1189.35 52.0882C1189.93 51.1908 1190.47 50.2935 1191.05 49.3961C1190.59 48.7435 1190.16 48.1316 1189.47 47.1935C1191.89 47.1935 1193.43 46.4185 1194.28 44.1342C1191.59 44.1342 1189.12 44.1342 1186.27 44.1342C1187.74 42.625 1190.32 42.054 1188.78 39.6882C1187.27 40.5856 1185.85 41.4421 1184.31 42.3803C1183.54 41.9316 1182.81 41.6869 1182.46 41.1974C1182.04 40.5855 1181.92 39.7698 1181.69 39.1579C1182.93 37.6895 1184 36.4658 1185.16 35.1198C1184.46 34.5487 1183.96 34.1 1183.5 33.7329C1182.77 34.3448 1182.19 34.8342 1181 35.8132C1180.27 32.754 1179.73 30.429 1179.15 28.0632C1178.88 28.0224 1178.61 28.0224 1178.34 27.9816C1177.54 30.3474 1176.69 32.7132 1175.88 34.9974C1174.61 35.2421 1173.53 35.4869 1172.26 35.7316C1172.99 36.7106 1173.49 37.3632 1174.5 38.6684C1172.88 39.7698 1171.49 40.7079 1170.15 41.6869C1169.99 41.8092 1170.11 42.2579 1170.11 42.6658C1171.34 42.829 1172.57 42.9513 1174.3 43.1961C1173.46 44.0935 1173.03 44.5421 1172.65 44.95C1170.68 44.9908 1168.99 43.0329 1167.03 44.6237C1167.37 45.3579 1167.72 46.0513 1168.34 47.3158C1166.45 46.3777 1165.26 45.7658 1163.95 45.1132C1163.22 45.8474 1162.64 46.4185 1161.83 47.275C1162.33 47.6829 1162.83 48.05 1163.29 48.4579C1160.68 50.0487 1158.83 51.1092 1156.98 52.2514C1156.56 51.0277 1156.21 49.9671 1155.67 48.4171C1157.83 46.8671 1160.18 45.3579 1162.29 43.604C1162.91 43.1145 1162.91 42.054 1163.14 41.4421C1160.41 40.4224 1158.14 39.5658 1155.67 38.6684C1155.06 39.0356 1154.29 39.4434 1153.56 39.8513C1153.56 38.8724 1153.02 38.3013 1152.17 37.9342C1153.63 37.7303 1155.06 37.5263 1157.48 37.2C1154.36 35.8132 1152.48 34.9566 1150.36 33.9777C1151.25 32.8356 1152.21 31.6527 1153.67 29.8171C1151.63 29.9395 1150.48 30.0211 1149.01 30.1026C1148.82 27.5737 1148.55 25.004 1146.9 22.7605C1142.97 24.1066 1145.47 27.3698 1143.82 29.4908C1142.78 29.2869 1141.66 29.0829 1140.24 28.7974C1140.2 29.6948 1140.16 30.3474 1140.12 31.0408C1141.12 31.5303 1142.09 31.979 1143.05 32.4277V36.2211C1142.05 36.7105 1141.28 37.0777 1140.7 37.3224C1139.93 36.8329 1139.39 36.4658 1138.74 36.0579C1138.78 34.8342 1138.85 33.6513 1138.66 32.4684C1138.58 32.0198 1137.7 31.6119 1137 31.0816C1135.85 31.5711 1134.89 31.9382 1133.85 32.3869C1133.35 34.304 1132.89 36.1395 1132.46 37.6895C1130.73 38.6684 1129.27 39.525 1127.38 40.5448C1128.07 41.85 1128.73 43.0737 1129.46 44.4198C1129.23 44.5013 1128.92 44.6237 1128.65 44.7053C1127.19 44.2974 1125.77 43.8895 1124.26 43.4408C1123.57 44.6645 1123.03 45.6027 1122.53 46.4592C1119.11 46.2145 1121.18 41.6053 1117.37 41.9316C1116.3 45.2763 1115.18 48.7027 1113.99 52.3737C1113.56 51.3132 1113.29 50.579 1112.99 49.8856C1112.06 49.5592 1111.25 49.2737 1110.52 48.9882C1110.41 47.1935 1110.29 45.5211 1110.14 43.7263C1108.41 44.0119 1107.25 44.2158 1106.17 44.379C1104.9 41.6869 1106.56 39.9329 1107.87 38.2198C1109.29 36.3027 1109.6 34.6711 1107.64 33.0395C1106.33 33.5698 1105.13 34.0184 1103.98 34.5079C1103.82 34.304 1103.67 34.0592 1103.52 33.8553C1104.56 32.5908 1105.6 31.2856 1106.71 29.9395C1106.98 28.1855 1107.4 26.35 1105.06 25.2895C1105.67 23.7395 1106.25 22.2303 1106.83 20.8026C1105.21 19.5382 1103.82 18.4776 1102.44 17.4171L1102.94 17.1316C1101.82 14.9697 1100.75 12.8079 1099.63 10.6053C1098.44 10.8908 1097.78 11.0539 1096.86 11.2987C1097.47 15.8671 1095.7 19.375 1091.12 21.5369C1092.05 22.8013 1092.78 23.7395 1093.51 24.7592C1092.89 27.0027 1094.39 29.654 1091.97 31.4487C1092.12 32.6724 1092.24 33.8145 1092.32 34.5487C1092.2 34.6711 1092.12 34.7527 1092.05 34.9158C1091.97 34.9158 1091.89 34.9158 1091.82 34.9566C1091.78 35.079 1091.78 35.2013 1091.74 35.3237C1090.74 36.5882 1089.78 37.7303 1088.93 38.7908C1089.2 38.8724 1089.47 38.9132 1089.7 38.954V43.8895C1088.85 43.7263 1088.2 43.604 1087.66 43.5224C1087.43 43.8895 1087.24 44.175 1087 44.5013C1086.97 44.0527 1086.93 43.604 1086.93 43.1145C1086.12 42.829 1085.31 42.5435 1084.12 42.1356C1083.92 42.7882 1083.77 43.2369 1083.62 43.8487C1083.39 43.604 1083.19 43.3592 1082.92 43.1145C1081.35 44.0119 1080.42 44.5014 1079.77 44.8685C1078.96 43.2777 1077.92 41.7277 1077.38 40.0553C1076.8 38.3013 1076.3 36.7513 1073.42 36.1803C1073.92 38.4237 1074.34 40.3 1074.84 42.4619C1074.3 43.0329 1073.65 43.7263 1073.07 44.3382C1073.19 45.0316 1073.34 45.6435 1073.45 46.2553C1072.42 46.6224 1071.61 46.9079 1070.49 47.3158C1072.72 50.1303 1076.03 51.2724 1079.19 52.5369C1077.57 52.9856 1076.19 53.3527 1075.42 53.5974C1073.69 54.8619 1072.53 55.6777 1071.38 56.4935C1071.76 56.8198 1072.18 57.1869 1072.69 57.6356C1070.45 57.7171 1068.34 57.7987 1066.14 57.9211C1065.76 58.6553 1065.45 59.2264 1065.14 59.8382C1063.14 60.0829 1062.45 61.429 1061.75 62.4079C1062.64 64.2435 1063.37 65.7935 1064.02 67.2211H1059.14C1058.52 66.4461 1057.98 65.7935 1057.6 65.3448C1052.21 65.9158 1051.59 65.5895 1050.59 61.429C1052.82 61.225 1054.94 61.0619 1057.98 60.8172C1055.21 56.3303 1052.13 52.6593 1049.55 48.6619C1051.13 47.3974 1052.48 46.3369 1053.21 45.7658V35.2421C1052.4 33.9369 1051.32 32.2237 1050.21 30.4698C1048.63 30.7961 1046.86 31.1224 1045.28 31.4487C1041.81 28.879 1041.81 28.879 1037.66 31.0816C1037.27 30.3474 1036.89 29.6132 1036.43 28.7974C1038.08 28.5527 1039.62 28.3487 1042.08 27.9816C1039.54 26.5948 1037.89 25.6974 1035.89 24.5961C1036.96 23.454 1037.93 22.475 1039.35 20.9658H1034.5C1032.85 18.6 1035.46 15.0513 1031 13.2158C1030.61 15.8263 1030.31 17.9882 1029.92 20.4355C1028.42 20.1092 1027.27 19.7013 1026.03 19.6605C1025.69 19.6198 1025.26 20.4763 1024.53 21.3329C1026.15 22.2303 1027.5 23.0053 1028.11 23.3316C1028.5 26.3908 1028.15 28.0224 1025.42 28.2263C1024.07 27.2474 1022.76 26.3092 1021.49 25.4119C1021.18 25.6158 1020.91 25.779 1020.61 25.9829C1020.99 27.0842 1021.38 28.1855 1021.76 29.2461C1019.64 29.8171 1016.87 28.3895 1015.1 31.2448C1016.76 32.2237 1018.3 33.1211 1019.61 33.8961C1019.03 34.7527 1018.41 35.7316 1017.83 36.629C1016.14 35.079 1014.14 34.8342 1011.48 36.0987C1013.22 38.5461 1014.83 40.7895 1016.29 42.8698C1015.22 43.604 1014.02 44.3382 1012.83 45.154C1012.83 44.4198 1012.75 43.4816 1012.64 42.2579C1011.91 42.054 1011.14 41.8908 1010.48 41.6869C1010.37 39.8513 1010.29 38.2198 1010.17 36.3842C1009.06 36.425 1008.37 36.4658 1007.52 36.4658C1007.29 37.8934 1007.1 39.0355 1006.86 40.5448C1005.71 39.5658 1004.98 38.954 1004.25 38.3421C1003.17 40.1777 1003.17 40.1777 999.59 40.0145C999.32 40.2184 999.012 40.4632 998.704 40.7487C998.435 41.0342 998.204 41.3198 997.588 42.0132V38.1382C998.396 36.9553 999.897 36.9553 1001.4 37.0369C1001.82 36.3027 1002.36 35.6092 1002.63 34.875C1002.98 34.0592 1003.09 33.2027 1003.32 32.3053C1001.82 32.0606 1000.86 31.8974 999.974 31.7342C1002.13 31.2448 1004.21 30.7961 1006.83 30.225C1006.13 29.0013 1005.63 28.104 1005.09 27.1658C1007.29 26.2276 1007.44 24.5145 1007.25 22.7198H1005.02C1004.4 23.5355 1003.94 24.1882 1003.17 25.2487C1001.86 23.6579 1000.9 22.5158 999.898 21.2513C998.435 21.6184 997.165 21.9447 995.663 22.3119C996.703 22.5974 997.434 22.8421 998.204 23.0461C997.434 25.0855 996.741 26.9211 995.894 29.1237C995.509 28.2263 995.317 27.8184 995.125 27.329C994.278 27.0434 993.431 26.7987 992.469 26.4724C992.7 25.4934 992.93 24.5961 993.123 23.9026C991.814 22.6382 989.158 24.9632 988.504 22.3934C989.274 21.6592 990.236 20.7211 991.314 19.7013V16.6829C990.429 15.9895 989.543 15.2553 989.197 14.9697C989.197 12.7671 988.927 11.054 989.274 9.38158C989.697 7.13816 988.62 5.75132 985.579 5.09869C985.502 3.95658 985.386 2.89605 985.309 1.79473C984.462 1.22368 983.577 0.611843 982.615 0C981.768 0.693422 981.114 1.22369 980.498 1.71316C980.69 2.61053 980.844 3.38552 981.036 4.2421C980.113 4.48684 979.381 4.69079 978.766 4.85395C977.957 4.44605 977.38 4.11974 976.725 3.79343C976.033 5.62895 978.188 5.26184 978.958 5.87368C978.997 5.87368 978.842 6.03685 978.766 6.11843C977.842 6.24079 976.918 6.36316 976.225 6.48553C973.3 8.85132 978.919 10.2382 977.072 12.3592C976.648 12.1145 976.187 11.829 975.532 11.4211C973.646 15.9079 968.257 17.2132 963.33 19.1303C962.869 18.4776 962.445 17.8658 961.983 17.2132C961.136 17.6211 960.328 17.9474 959.366 18.3961C959.789 19.6605 960.174 20.8026 960.521 21.9447C959.982 22.8829 959.404 23.8619 958.865 24.7592C955.632 25.004 955.594 25.0448 953.669 26.9619C954.554 26.8395 955.478 26.7171 956.479 26.5948C957.056 27.125 957.634 27.6961 958.019 28.0632C960.482 28.5526 962.676 28.9605 965.601 29.5316C963.407 29.8171 962.06 30.0211 959.943 30.3066C962.06 31.5711 963.523 32.4277 965.062 33.325C963.946 33.9777 962.83 34.5895 961.714 35.2421C959.327 35.3645 956.902 35.4869 954.901 35.5684C953.669 34.875 952.822 34.4263 951.706 33.8145C950.551 34.6711 949.55 35.4053 948.703 36.0171C949.897 37.6487 950.936 39.0763 952.245 40.8303H948.819V41.2382H947.664C947.549 42.8698 947.433 44.4606 947.318 45.9698C946.125 46.5408 945.201 46.9487 944.046 47.479C944.123 48.1316 944.2 48.6211 944.277 49.2329C943.815 49.2737 943.392 49.2737 942.891 49.3145C942.737 50.4566 942.622 51.3948 942.468 52.2921C941.698 53.3119 939.927 53.9645 939.696 55.1882C938.465 55.1066 937.271 55.025 936.425 54.9842C935.385 55.7593 934.616 56.3303 933.884 56.9014C932.729 55.6777 931.844 54.7395 930.612 53.4342C932.691 53.1487 934.269 52.9448 936.155 52.7C936.078 51.4356 936.04 50.375 935.963 48.9882H927.302C928.957 48.1724 929.843 47.7645 930.843 47.275C930.69 46.5 930.574 45.8882 930.458 45.3987C927.418 44.2566 926.224 46.7448 924.146 47.4382C922.452 45.929 923.068 44.1342 923.222 42.4619C924.377 41.6053 925.301 40.8711 926.494 40.0145C925.532 39.0356 924.762 38.2198 923.992 37.4448C923.068 38.0158 922.337 38.4645 921.221 39.1171C920.297 36.0987 921.875 32.7948 917.987 30.9592C917.14 31.4895 916.14 32.1013 914.946 32.8355V39.7698C912.829 39.4435 911.097 39.1987 908.942 38.9132C910.366 40.9119 912.136 42.1763 911.906 43.4408C909.288 45.5619 907.017 47.3974 904.708 49.2737C903.36 49.1921 902.244 49.1106 901.243 49.0698V48.0092C899.473 48.1316 897.779 48.2948 896.047 48.4171C895.932 47.6421 895.893 47.3158 895.854 46.9487C894.353 46.7448 892.814 46.5408 891.236 46.3369C890.928 44.8277 890.658 43.604 890.312 42.0132C892.583 42.9921 894.584 43.8079 896.509 44.6645C896.778 44.7869 896.663 45.3171 896.74 45.6434H902.013C902.552 44.8277 902.937 44.2566 903.399 43.5632C904.669 44.2974 905.67 44.8685 906.671 45.3987C906.748 45.4395 906.979 45.3579 907.441 45.3171C907.556 44.7053 907.671 44.0527 907.787 43.4408C903.514 40.5856 899.588 37.6079 894.238 36.0171C895.97 35.4461 897.702 34.875 898.934 34.4671C900.089 32.5908 900.974 31.1632 902.09 29.4092C900.243 29.2869 898.857 29.2053 897.625 29.1237C896.355 29.8579 895.354 30.4698 894.546 30.9592C893.545 29.654 892.621 28.3895 891.62 27.125C894.045 27.0434 896.586 27.125 897.702 24.5145C894.238 25.0855 891.736 24.1474 889.042 23.25C890.504 22.5158 891.659 21.9447 893.16 21.2105C889.234 19.375 885.693 22.5158 882.151 20.8026V18.6408C883.537 17.7434 884.884 17.05 885.962 16.1934C886.463 15.7855 886.501 15.0513 886.963 14.0316C884.615 14.2763 882.96 14.3987 880.958 14.6026V10.3605C879.226 9.87106 878.803 8.03553 876.609 8.64737C876.532 8.44342 876.493 8.19869 876.416 7.99474C876.185 7.99474 875.993 7.95395 875.762 7.95395C875.377 8.64737 874.992 9.3 874.569 10.075C873.414 9.91185 872.375 9.78948 871.104 9.62632C871.027 10.075 870.989 10.4013 870.95 10.6868C871.913 11.1355 872.721 11.5026 874.145 12.1553C870.758 13.2158 867.794 14.0316 865.985 15.704C866.447 16.1934 866.87 16.6829 867.756 17.7026C865.677 17.1316 864.445 16.7645 863.098 16.3974C862.405 16.7645 861.828 17.1316 860.943 17.6211C863.252 18.804 865.331 19.9053 867.448 21.0066C867.178 21.129 866.909 21.2105 866.601 21.3329C866.177 21.8224 865.6 22.475 865.138 23.0461C864.253 22.5974 863.329 22.1487 862.136 21.5369C862.328 22.8013 862.444 23.5355 862.559 24.3513C861.135 24.8 858.633 23.9434 857.979 25.575C858.017 25.6158 858.094 25.6158 858.133 25.6566H856.285C856.208 26.2684 856.131 26.7171 856.093 27.0434C858.094 28.1855 860.096 29.3277 862.059 30.4698C860.558 30.7145 859.018 30.9592 857.324 31.2448C858.749 33.4474 853.514 33.1211 854.091 35.0382C855.4 34.9974 856.747 34.9566 858.21 34.9158C858.441 35.6908 858.672 36.5066 858.864 37.2C856.632 38.3013 853.976 36.9145 851.936 38.4237C852.244 38.75 852.705 38.8724 853.052 39.1579C852.705 39.4027 852.32 39.6882 852.051 39.8921C848.625 39.9737 848.625 39.9737 846.547 40.6671C848.433 41.1566 850.165 41.5645 851.897 42.0132C850.588 43.7263 846.855 43.4 846.162 45.3171C846.585 45.4803 847.009 45.6842 847.509 45.8882C850.973 44.5829 854.361 43.2777 857.748 42.0132C857.94 42.3803 858.171 42.7882 858.402 43.2369C859.249 43.1961 859.98 43.1961 860.596 43.1553C860.673 43.0737 860.712 43.0329 860.789 42.9513C860.635 43.3592 860.519 43.8079 860.442 44.175C860.327 44.6645 860.288 45.1132 860.25 45.5619C859.441 45.8882 858.556 46.1329 857.671 46.3777C856.708 46.5408 855.746 46.704 854.822 46.8671C853.899 46.9895 853.052 47.1527 852.051 47.1527C851.897 47.9277 851.82 48.5395 851.743 48.8658C850.742 49.6816 849.973 50.3342 849.164 50.9869C848.433 51.2724 847.701 51.5171 846.97 51.8027C847.086 52.6592 847.201 53.3119 847.317 54.0869C848.317 54.1277 849.087 54.1685 849.819 54.2092C848.664 54.9435 847.586 55.6777 846.393 56.3711C845.623 56.8198 844.16 56.779 842.698 57.0237C842.274 57.35 841.581 57.9211 840.811 58.5329C839.041 58.125 837.771 57.8395 836.5 57.554V54.9435C838.002 54.3316 840.119 54.1685 840.542 52.7C840.234 52.4961 839.849 52.2106 839.618 52.0474C838.348 52.3737 837.27 52.7 835.654 53.1079C835.461 51.6803 835.307 50.579 835.115 49.3145C834.499 48.9066 834.152 48.0092 832.151 48.1724C831.65 49.8856 831.189 51.5987 830.65 53.4342C829.187 53.2711 827.801 53.1487 826.262 52.9856C826.185 53.3527 826.108 53.679 826.069 53.9237C827.224 54.4948 828.263 55.025 829.418 55.5961C828.032 56.2079 826.993 56.6566 825.954 57.1053C825.107 57.4724 823.49 57.8395 823.49 58.2474C823.452 59.5119 821.412 59.0224 820.757 59.7974C820.873 60.2461 821.027 60.7764 821.219 61.5106C819.372 61.2658 817.87 61.1027 816.254 60.8579C815.522 61.2658 814.83 61.6737 814.252 62.0408C817.639 63.6724 820.873 65.2632 824.106 66.8132C823.144 67.8737 822.412 68.6895 821.643 69.5461C819.449 68.6079 818.409 67.1395 815.83 67.0172C814.868 68.2001 817.64 69.2198 815.715 70.4027C814.984 70.3619 814.06 70.3211 812.905 70.2395C813.636 69.3829 814.214 68.6895 814.753 68.0369C814.137 67.0987 813.405 66.4053 811.596 66.2421C810.557 67.3027 809.595 68.3224 808.594 69.3422C807.478 68.5672 806.592 67.9553 805.553 67.2619C804.668 67.9145 804.052 68.3632 803.321 68.9342V72.3198H802.589V66.4461C801.396 66.8948 800.665 67.1395 800.511 67.1803C798.24 66.8132 796.623 66.5277 794.275 66.1606C797.816 65.6303 800.241 64.7329 803.321 63.5093C801.242 63.2645 800.01 63.1421 798.586 62.979C801.435 61.8369 804.668 61.3474 807.054 59.8382C804.514 58.6961 802.474 60.4908 799.317 59.8382C801.742 59.2672 803.398 58.8593 804.976 58.4921C805.938 57.4724 804.706 56.9014 803.937 56.4527C804.398 55.229 804.783 54.25 805.207 53.1487C804.244 53.1079 803.706 53.1079 802.936 53.0671C801.858 54.9435 800.78 56.8198 799.664 58.6961C799.048 58.0027 798.509 57.4316 797.816 56.6566C796.585 57.3908 795.661 57.9211 794.737 58.4514V62.4079C793.736 62.0408 792.697 61.6737 791.311 61.1435C790.965 60.2053 792.197 58.5737 790.272 57.4316C790.926 56.4119 791.581 55.4737 792.35 54.3316C791.273 53.679 790.233 53.0671 789.464 52.6185C789.772 50.2935 788.963 48.2132 787.847 46.1329C788.116 46.0513 788.771 45.8882 789.579 45.6434C789.464 45.0724 789.348 44.5014 789.233 43.8487C788.078 43.9303 787.193 44.0119 786.153 44.0527C787.231 42.7474 785.884 42.0132 784.845 41.279C785.499 38.75 785.268 38.5461 781.996 38.8316C781.727 39.8921 781.419 40.9935 781.111 42.1356C780.033 42.625 778.763 43.1961 777.262 43.8895C777.685 44.8685 778.109 45.8882 778.532 46.9079C778.109 47.0303 777.377 47.275 777.069 47.3566C776.107 48.4171 776.646 49.1921 777.377 49.8856C777.262 50.375 777.108 50.9053 776.992 51.354C776.338 51.3948 775.645 51.4764 774.606 51.5579C774.875 51.9658 775.106 52.2921 775.337 52.7C774.413 53.2303 773.528 53.7198 772.489 54.3316C773.105 55.4737 773.682 56.5342 774.298 57.6764C774.259 57.6764 774.221 57.7171 774.182 57.7171C773.605 57.9211 772.951 58.125 772.296 58.329C771.911 59.1448 771.95 59.879 772.219 60.5316C772.065 60.5724 771.911 60.6132 771.758 60.654C771.68 60.8987 771.565 61.1435 771.488 61.3882C771.18 61.429 770.872 61.4698 770.526 61.4698C769.987 60.1645 769.448 58.9408 768.986 57.7579C770.064 55.4329 770.295 53.0671 769.64 50.6198C768.601 50.2527 767.87 49.9671 767.639 49.8856C768.37 48.254 769.025 46.8263 769.64 45.3579C768.64 44.175 767.754 43.1553 766.907 42.2171C767.6 41.1974 768.293 40.1369 768.871 39.2803C766.754 37.5671 764.983 36.1803 763.52 34.9974C763.366 32.9171 763.212 31.2448 763.097 29.7763C760.787 28.4303 760.787 28.4303 758.131 28.7974C757.516 31.775 756.861 34.7934 756.245 37.7711C755.283 37.6079 754.59 37.4856 753.974 37.3632C752.897 38.9948 751.896 40.4632 750.972 41.85C751.934 42.8698 752.666 43.7263 753.551 44.6645C752.589 46.0513 751.742 47.3158 750.933 48.4987C752.281 53.1487 747.893 57.6356 751.087 61.7553C750.626 63.7948 750.241 65.5895 749.856 67.3843C748.855 67.5882 747.893 67.9961 746.853 68.2816C746.738 66.1198 746.661 63.9987 746.545 61.6737C744.775 61.429 743.389 61.2658 742.157 61.1027C741.503 60.6132 741.08 60.2461 740.81 60.0421C740.541 60.1237 740.271 60.2461 740.002 60.3277C739.578 57.3908 738.462 54.9027 735.229 53.1487C734.651 54.6579 734.344 56.0856 734.498 57.4316C734.074 58.7777 733.689 60.1645 733.304 61.3474C732.304 61.3066 731.457 61.225 730.571 61.1843C730.533 61.1435 730.533 61.1435 730.494 61.1027H725.49C724.875 60.3277 724.336 59.675 723.951 59.2264C718.562 59.7974 717.946 59.4711 716.945 55.3106C719.178 55.1066 721.295 54.9435 724.336 54.6987C721.564 50.2119 718.485 46.5408 715.945 42.5435C717.523 41.279 718.87 40.2184 719.601 39.6474V29.1237C718.793 27.8184 717.715 26.1053 716.599 24.3513C715.021 24.6776 713.25 25.004 711.672 25.3303C708.208 22.7605 708.208 22.7605 704.051 24.9632C703.666 24.229 703.281 23.4948 702.819 22.679C704.474 22.4342 705.975 22.2303 708.477 21.8632C705.937 20.4763 704.282 19.579 702.28 18.4776C703.358 17.3355 704.32 16.3566 705.744 14.8474H700.894C699.239 12.4816 701.857 8.9329 697.392 7.09737C697.007 9.7079 696.699 11.8697 696.352 14.3171C694.851 13.9908 693.696 13.5829 692.465 13.5421C692.118 13.5013 691.695 14.3579 690.964 15.2145C692.58 16.1119 693.927 16.8869 694.543 17.2132C694.928 20.2724 694.582 21.904 691.849 22.1079C690.502 21.129 689.193 20.1908 687.923 19.2934C687.615 19.4566 687.345 19.6605 687.037 19.8237C687.422 20.925 687.807 22.0263 688.192 23.0869C686.075 23.6579 683.304 22.2303 681.533 25.0855C683.188 26.0645 684.728 26.9619 686.037 27.7369C685.459 28.5934 684.843 29.5724 684.266 30.4698C682.572 28.9198 680.571 28.675 677.915 29.9395C679.647 32.3869 681.264 34.6303 682.726 36.7106C680.994 37.8527 678.916 38.954 677.26 40.4632C675.759 41.85 673.026 42.829 673.95 45.6434C676.375 45.8474 678.723 46.4592 680.879 46.0921C683.15 45.725 685.228 44.4606 688.154 43.3184C686.652 45.5619 685.498 47.2342 684.497 48.7027C681.148 49.3553 678.3 49.9264 676.144 50.3342C674.297 51.4764 672.988 52.2921 671.602 53.1487C671.448 53.1079 671.333 53.0264 671.179 52.9448C671.14 52.1698 671.102 51.3948 671.025 50.5382C670.063 50.579 669.447 50.579 668.715 50.6198C668.638 51.1092 668.561 51.5579 668.484 52.0066C668.138 52.0474 667.792 52.1698 667.484 52.5777C667.753 52.8224 668.022 53.0264 668.292 53.2303C668.253 53.5566 668.176 53.8421 668.138 54.1685C667.137 53.3527 666.521 52.8224 665.867 52.2921C664.905 53.8829 664.905 53.8829 661.864 53.7606C661.633 53.9237 661.363 54.1685 661.094 54.4132C660.863 54.6579 660.671 54.9027 660.132 55.5145V52.129C660.863 51.1092 662.133 51.1092 663.442 51.1908C663.788 50.579 664.25 49.9671 664.52 49.3145C664.789 48.6211 664.905 47.8461 665.097 47.0711C663.788 46.8671 662.942 46.704 662.172 46.5816C664.019 46.1737 665.828 45.7658 668.099 45.2763C667.484 44.2158 667.06 43.4408 666.598 42.625C668.484 41.8092 668.638 40.3408 668.484 38.75H666.521C665.982 39.4842 665.597 40.0553 664.905 40.9527C663.75 39.5658 662.942 38.5869 662.056 37.4855C660.786 37.8119 659.67 38.0974 658.361 38.4237C659.246 38.6684 659.901 38.8724 660.555 39.0763C659.901 40.8303 659.285 42.4211 658.554 44.3382C658.207 43.5632 658.053 43.1961 657.861 42.7882C657.129 42.5435 656.398 42.2987 655.551 42.054C655.744 41.1974 655.936 40.4224 656.09 39.8106C654.974 38.7092 652.664 40.7487 652.087 38.5053C652.741 37.8527 653.588 37.0777 654.512 36.1395V33.529C653.742 32.9171 653.011 32.3053 652.664 32.0605C652.664 30.1842 652.433 28.675 652.703 27.2474C653.088 25.2895 652.125 24.1066 649.508 23.5355C649.431 22.5566 649.354 21.6592 649.277 20.6803C648.546 20.1908 647.776 19.6605 646.929 19.1303C646.198 19.7421 645.62 20.1908 645.081 20.6395C645.235 21.4145 645.389 22.0671 645.543 22.8421C644.735 23.0461 644.119 23.2092 643.58 23.3724C642.887 23.0053 642.387 22.7198 641.81 22.4342C641.194 24.025 643.08 23.6987 643.734 24.229C643.734 24.229 643.619 24.3513 643.542 24.4329C642.733 24.5553 641.925 24.6776 641.348 24.7592C638.807 26.7987 643.696 28.0224 642.079 29.8579C641.694 29.6132 641.309 29.4092 640.732 29.0421C639.115 32.9171 634.419 34.0592 630.147 35.7316C629.762 35.1606 629.377 34.6303 628.992 34.0592C628.261 34.3855 627.568 34.7119 626.721 35.079C627.067 36.1803 627.414 37.1592 627.722 38.1382C627.221 38.954 626.759 39.8106 626.298 40.5856C623.488 40.7895 623.449 40.8303 621.794 42.5027C622.564 42.4211 623.372 42.2987 624.219 42.1763C624.719 42.625 625.22 43.1145 625.566 43.4408C627.683 43.8487 629.608 44.2158 632.148 44.7461C630.262 44.9908 629.069 45.154 627.221 45.4395C629.03 46.5408 630.339 47.275 631.648 48.05C630.686 48.6211 629.723 49.1513 628.761 49.7224C626.682 49.804 624.604 49.9264 622.872 50.0079C621.794 49.4369 621.063 49.029 620.1 48.4987C619.1 49.2329 618.253 49.8856 617.483 50.4158C618.522 51.8435 619.446 53.0671 620.562 54.5764H617.598V56.8198C620.254 58.2882 622.602 59.5935 625.489 61.225C623.295 61.5922 621.717 61.8369 620.139 62.0816C620.062 62.8566 620.023 63.4685 619.946 64.2027C621.833 65.4672 623.372 66.8948 622.217 69.0974C619.215 66.9356 616.636 64.6514 615.096 61.7961C614.211 61.8369 613.403 61.8777 612.479 61.9593C612.325 62.9382 612.21 63.754 612.133 64.529C611.979 64.7737 611.709 64.9369 611.44 65.1408C611.44 65.0593 611.517 64.9777 611.517 64.8961C609.746 64.7737 608.322 64.6922 607.206 64.6106C606.166 65.3856 605.397 65.9566 604.665 66.5277C603.51 65.304 602.625 64.3658 601.393 63.0606C603.472 62.775 605.05 62.5711 606.936 62.3264C606.859 61.0619 606.821 60.0014 606.744 58.6145H598.083C599.738 57.7987 600.624 57.3908 601.624 56.9014C601.47 56.1264 601.355 55.5145 601.24 55.025C598.199 53.8829 597.005 56.3711 594.927 57.0645C593.195 55.5553 593.849 53.7606 594.003 52.0882C595.158 51.2316 596.082 50.4974 597.275 49.6408C596.313 48.6619 595.543 47.8461 594.773 47.0711C593.849 47.6421 593.118 48.0908 592.001 48.7435C591.078 45.725 592.656 42.4211 588.807 40.5856C587.96 41.1158 586.959 41.7277 585.766 42.4619V49.3961C583.649 49.0698 581.917 48.825 579.761 48.5395C581.185 50.5382 582.956 51.8027 582.725 53.0671C581.724 53.8829 580.8 54.6171 579.877 55.3514C576.951 53.3935 574.064 51.4763 570.331 50.375C571.832 49.8856 573.333 49.3553 574.372 49.029C575.373 47.3974 576.143 46.1737 577.105 44.6645C575.527 44.5829 574.295 44.5013 573.256 44.4198C572.178 45.0724 571.293 45.6027 570.6 46.0106C569.753 44.8685 568.906 43.8079 568.06 42.6658C570.138 42.5842 572.371 42.6658 573.333 40.3816C570.331 40.8711 568.175 40.0553 565.827 39.2803C567.097 38.6684 568.098 38.179 569.368 37.5263C565.981 35.9355 562.902 38.6684 559.822 37.1592V35.2829C561.016 34.5079 562.17 33.8961 563.094 33.1619C563.518 32.7948 563.556 32.1829 563.941 31.2855C561.901 31.4895 560.477 31.6119 558.745 31.775V28.104C557.167 27.6553 556.897 25.9013 554.742 26.6355C554.472 28.7974 554.164 30.9184 553.895 33.2842C552.086 32.6724 550.623 32.1829 549.16 31.6934C549.006 31.6526 548.698 31.775 548.429 31.8566C548.775 32.6316 549.122 33.4066 549.468 34.1C550.2 34.4671 550.892 34.8342 552.009 35.4053C549.969 36.1803 548.313 36.8329 546.312 37.6079C545.427 38.6684 544.31 39.9737 543.117 41.4013H537.382C537.305 41.9316 537.228 42.2987 537.189 42.5842C540.5 44.4606 543.656 46.2553 547.12 48.254C546.081 49.1514 545.35 49.804 544.618 50.4566C542.732 49.3961 541.885 47.3566 538.806 48.4987C539.114 49.5592 539.383 50.4974 539.653 51.3948C537.728 52.3329 535.419 51.15 533.648 52.4553C535.534 54.454 538.267 55.3514 541.462 55.8816C541.27 56.4935 541.077 56.9421 541 57.4316C540.885 57.9619 540.846 58.5329 540.808 58.9816C538.421 59.3895 536.112 59.7566 533.841 60.1645C533.725 61.0619 533.61 61.7961 533.533 62.4895C532.109 63.0198 530.761 63.5093 529.337 64.0395C529.453 64.7737 529.53 65.3448 529.645 65.9974C530.607 66.0382 531.3 66.079 531.993 66.079C532.686 65.5079 533.302 64.9777 533.995 64.4474C534.533 65.1 534.995 65.6303 535.611 66.3645C537.074 65.4672 538.267 64.6922 539.46 63.9579C539.73 64.2435 539.961 64.4882 540.23 64.7329C540.461 64.8961 540.731 65.0593 540.923 65.1816C540.461 65.5895 540.115 65.8343 539.614 66.2829C540.577 66.6093 541.308 66.854 542.039 67.0987C541.77 67.4658 541.462 67.8329 540.923 68.5671C537.459 68.8527 533.687 69.179 529.837 69.5053C529.491 69.954 529.145 70.4843 528.76 70.9737C526.373 71.0553 524.102 71.1369 521.639 71.2185C521.793 72.1566 521.87 72.8093 521.947 73.2987C524.218 73.6658 526.142 73.9921 528.683 74.4C526.951 75.175 525.68 75.7053 524.449 76.2764C523.371 76.7658 522.255 77.2553 521.331 77.8672C520.522 78.3974 520.407 79.1316 521.908 79.8658C526.104 78.3566 530.992 77.4593 534.302 74.4408C534.495 75.3382 534.687 76.2356 534.918 77.1737C536.15 77.2145 537.112 77.2553 538.113 77.2961C537.728 75.2159 539.229 74.1145 541.616 73.5843C543.348 73.7474 544.156 74.2777 543.848 75.5422C542.232 76.2764 540.5 77.0106 538.806 77.7856C536.458 80.3553 532.763 80.4777 528.952 80.4369C528.221 81.008 527.49 81.6198 526.72 82.2316C527.336 82.6395 527.72 82.8843 528.028 83.0882C526.797 84.0264 525.526 84.9645 524.141 86.0251C524.256 86.7185 524.41 87.4935 524.526 88.3501C525.449 88.3909 526.142 88.4316 526.835 88.4316C527.528 87.8606 528.144 87.2895 528.837 86.8001C529.029 86.6777 529.53 86.7593 530.107 86.7185C529.299 87.5343 528.644 88.1869 528.182 88.6356C526.758 89.1251 525.603 89.4922 525.064 89.6553C524.025 90.6751 523.217 91.4501 522.486 92.1843C519.483 91.5316 516.635 90.879 513.825 90.2672C513.979 90.1856 514.056 90.0632 514.171 89.9816C514.595 89.8593 515.018 89.7777 515.326 89.6961C515.48 89.4514 515.365 89.2474 515.134 89.0027C515.365 88.6356 515.442 88.1869 515.403 87.6974C516.25 88.2685 517.058 88.7987 518.405 89.6961V86.8409C520.715 86.4738 520.561 89.1251 523.255 87.9422C523.409 86.1066 520.561 85.3724 519.329 84.0672C518.174 82.8027 514.98 82.4764 514.672 80.4369C516.173 81.2935 517.443 81.9869 518.829 82.8027C519.252 82.4356 519.56 82.1501 519.907 81.8237C519.06 81.1303 518.174 80.5593 517.482 79.9066C516.75 79.2132 516.211 78.3974 515.557 77.6632C513.132 77.5001 511.169 77.0106 509.398 76.358C507.512 75.6645 505.742 74.8079 504.471 73.3803H507.782C508.706 73.9921 509.629 74.6448 510.746 75.4198C511.477 74.8895 512.054 74.4816 512.555 74.1145C515.403 75.1343 518.136 76.1132 521.1 77.1329C521.408 75.1343 517.52 75.2566 517.405 73.6658L521.292 72.7277C521.254 72.6053 521.177 72.4422 521.138 72.3198C519.714 72.2382 518.328 72.1566 516.558 72.075C514.672 70.4027 511.477 70.729 508.552 70.5251C507.82 70.0764 507.127 69.6685 506.742 69.4645C507.32 68.6079 507.82 67.8737 508.359 67.0579C509.283 67.4658 510.168 67.8329 511.054 68.2408C511.515 68.0369 511.977 67.8329 512.401 67.629C513.325 68.1185 514.056 69.0974 515.519 67.9145C514.518 66.2421 511.708 65.6303 509.783 64.6514C507.474 63.9171 505.164 63.2237 502.855 62.4895C502.932 62.3671 503.009 62.2448 503.086 62.1224H507.474C509.129 61.5514 510.515 61.1027 511.977 60.6132C511.939 60.3277 511.9 60.0014 511.862 59.5527C510.515 59.4303 509.283 59.3487 507.936 59.2264C508.051 58.4921 508.128 57.9211 508.282 56.8198C506.704 57.7171 505.626 58.329 504.625 58.9C504.087 58.329 503.355 57.554 502.585 56.7382C505.318 55.7593 507.974 54.9843 509.398 53.0264C507.936 52.9856 506.858 52.9448 505.819 52.904C504.471 51.354 502.508 50.2935 499.429 49.4369C500.083 48.825 500.738 48.2132 501.623 47.3566C500.045 47.275 498.852 47.2342 497.658 47.1935C497.543 46.0106 497.389 44.7869 497.273 43.4408C496.311 43.7263 495.657 43.8895 495.08 44.0527C494.887 45.1132 494.695 46.0513 494.502 47.1119C493.193 46.9487 492.154 46.7856 490.461 46.5408C491.808 47.6829 492.77 48.4987 493.848 49.3961C493.309 50.0079 492.77 50.579 492.193 51.2724C490.922 50.7014 489.806 50.2119 488.767 49.7632C486.765 50.9461 489.537 51.2316 489.537 51.9658C488.113 51.9658 486.765 51.925 485.38 51.9658C484.995 51.9658 484.61 52.1698 483.994 52.3329C485.341 53.0264 486.188 53.475 486.496 53.6382C486.881 54.6579 487.112 55.3514 487.458 56.3303C485.534 55.7185 483.917 55.229 482.223 54.6987C481.838 55.229 481.607 55.5553 481.338 55.9224C482.454 56.8198 483.571 57.6764 484.687 58.6145C482.531 60.2461 479.029 60.9803 477.874 63.0606C478.374 63.2645 478.605 63.3461 478.99 63.5093C479.221 63.2237 479.452 62.9382 479.567 62.8158C480.799 63.2237 481.646 63.5093 482.416 63.754C484.302 63.2237 485.957 62.7343 487.959 62.1632C487.882 62.9382 487.843 63.5093 487.766 64.1211C486.342 64.6922 485.033 65.2632 483.725 65.7935C483.648 65.6711 483.571 65.5895 483.532 65.4671C480.915 66.0382 478.259 66.6093 475.641 67.1803C474.717 67.4658 473.909 65.7935 472.6 67.3027C473.832 67.9961 475.064 68.6895 476.334 69.4237C475.949 69.8316 475.449 70.3619 474.987 70.8514C475.449 71.1369 475.718 71.3408 476.026 71.504C477.797 70.6882 479.49 69.8724 481.454 68.9342C481.838 70.0764 482.146 70.8922 482.493 71.9527C483.417 71.6264 483.955 71.4224 484.494 71.2185C485.033 71.0145 485.611 70.8106 486.496 70.5251C486.727 71.1369 486.842 71.504 487.035 71.9527C481.607 73.4619 475.641 73.9514 471.138 76.4395C470.676 75.7461 470.291 75.2158 469.906 74.6448C468.713 75.1343 467.75 75.5014 466.711 75.9093C465.903 75.5422 465.249 75.2566 464.286 74.8487C465.364 73.8698 466.288 73.054 467.597 71.9119C466.095 71.9935 465.133 72.0343 464.055 72.075C463.863 71.0145 463.709 70.0764 463.516 69.179C462.708 68.975 462.092 68.8527 461.361 68.6895C461.13 69.9948 460.976 71.1369 460.783 72.279H455.895C452.469 74.033 449.236 75.7053 445.964 77.4185C445.541 76.8474 445.156 76.3172 444.732 75.7461C447.273 74.7264 449.621 73.7882 451.199 73.1356C453.47 71.5856 455.164 70.4843 456.819 69.3422C455.51 68.2816 455.395 66.9764 453.47 66.3645C451.161 67.5474 450.506 69.5869 447.619 70.4843C446.734 68.8935 448.389 67.9553 449.698 66.9356C448.89 66.5277 448.274 66.1606 447.581 65.8343C446.965 66.1198 446.465 66.3645 445.926 66.65C445.618 66.2014 445.31 65.8343 445.04 65.4264C446.927 64.4474 448.697 63.5908 450.429 62.6527C450.699 62.5303 450.699 62.204 450.814 61.9185C449.967 61.6737 449.236 61.429 448.428 61.1843V59.7974C448.736 59.675 449.082 59.5527 449.467 59.4303C449.929 59.2671 450.391 59.1448 450.737 59.0224C450.814 57.7987 449.929 57.6764 448.428 57.9211C447.735 58.5329 447.003 59.1448 446.195 59.8382C445.81 59.3079 445.502 58.9 445.233 58.5329C444.617 58.6145 444.078 58.6961 443.616 58.7369C443.154 58.4106 442.769 58.125 442.423 57.8803C440.999 57.7987 439.613 57.7171 438.189 57.5948C439.806 56.9829 441.307 56.4119 443 55.7593C442.115 55.3514 441.538 55.1066 441.076 54.9027C442.5 54.454 444.04 53.9645 445.964 53.3119C444.694 52.9856 444.04 52.8224 443.347 52.6592C443.847 52.4553 444.309 52.2106 444.809 52.0066C444.117 51.4764 443.616 51.1092 443.116 50.7421C443.616 50.2119 444.001 49.804 444.502 49.2737C443.963 49.029 443.501 48.8658 443 48.6619C441.384 49.4369 441.345 50.5382 441.114 51.5579C440.036 51.5171 439.113 51.4356 437.996 51.3948C437.612 52.5369 437.304 53.5158 436.957 54.5764C436.418 54.4948 435.918 54.4132 435.264 54.3316C435.148 52.7816 435.033 51.3132 434.879 49.3553C433.878 47.6013 431.029 45.4803 433.916 43.0329C432.646 42.1356 431.453 41.3198 430.26 40.4632C430.452 40.3816 430.683 40.3408 430.875 40.3C430.568 39.729 430.26 39.1987 429.759 38.179C428.027 40.0553 426.757 41.4829 425.602 42.7066C425.41 43.604 425.179 44.3382 425.179 45.0724C425.14 45.8066 425.333 46.5816 425.41 47.3158C424.948 47.5606 424.447 47.8461 424.139 48.05C424.755 49.3553 425.294 50.4158 425.795 51.5171C424.64 51.5579 423.755 51.5987 422.869 51.6395C422.638 52.4961 422.446 53.1895 422.253 53.8829C419.674 53.3527 419.982 52.0066 419.251 50.6198C418.096 51.3948 417.288 52.0066 416.518 52.5369C416.056 52.2106 415.556 51.8435 414.478 51.0685C414.709 52.7408 414.901 53.9237 415.055 55.1882C415.594 55.4329 416.249 55.7185 416.941 56.0448C417.018 56.7382 417.095 57.4316 417.134 57.6764C420.059 59.5119 422.484 61.0211 425.14 62.6935C422.715 63.1421 422.215 60.9803 420.059 61.7961C418.905 60.45 416.711 61.225 415.055 60.8172C414.209 60.0421 413.362 59.2671 412.361 58.2882C411.129 60.3685 413.285 62.5303 410.321 64.0395C413.516 65.6711 416.441 67.1803 419.366 68.6895C418.327 69.179 417.442 69.5461 416.672 69.9132C415.132 69.3422 414.401 67.9961 412.092 68.6895C412.284 69.3014 412.438 69.8316 412.669 70.6474C411.283 69.5053 410.205 68.6487 409.089 67.7106C406.972 69.2198 407.434 70.0764 408.974 70.8514C408.088 71.0961 407.165 71.3001 406.279 71.5448C405.971 72.279 405.702 72.9316 405.509 73.4619C405.894 73.7474 406.164 73.9514 406.164 73.9514C405.586 75.0119 405.086 75.8685 404.701 76.4803C403.085 76.6027 401.66 76.7251 399.543 76.8882C401.083 77.7856 402.045 78.3566 403.123 79.0093C403.161 80.3961 401.622 81.783 402.43 83.333C402.469 83.4145 402.122 83.5369 401.814 83.7408C401.006 83.0882 400.275 82.4356 399.543 81.8237H396.079C395.925 82.8027 397.234 83.5369 396.656 84.6382C396.387 85.1277 397.542 86.0251 398.35 86.5961C399.197 87.1672 400.39 87.5343 401.275 87.9422V91.7356C400.198 91.4909 399.197 91.2869 398.312 91.083C398.196 90.1448 398.119 89.329 398.042 88.6356C397.195 88.1461 396.541 87.7382 395.771 87.3303C395.194 87.7382 394.732 88.1461 394.193 88.5132C393 87.0448 393.5 85.0053 390.498 84.1895C388.65 85.3316 391.037 86.0251 390.844 86.9224C390.267 87.1672 389.689 87.4119 389.228 87.6159C389.074 89.0435 388.92 90.3895 388.727 92.0211C386.764 91.083 385.263 90.3487 383.685 89.5737C384.993 88.9619 386.957 89.6553 387.572 88.1869C385.494 87.8198 383.377 87.4527 381.144 87.0448C381.645 86.6777 381.953 86.4737 382.607 85.9843C381.106 85.7395 379.951 85.5356 378.527 85.2909C379.874 84.8014 381.029 84.3935 381.914 84.108C382.453 82.9251 382.915 81.9461 383.415 80.9264C382.761 80.6409 382.184 80.3961 381.606 80.1922C380.605 80.7224 379.72 81.2119 379.22 81.4566C377.719 81.0895 376.525 80.7632 375.64 80.5593C377.334 79.8251 379.143 79.0093 381.029 78.1935C380.798 77.6224 380.644 77.133 380.413 76.5619C381.414 76.0316 382.453 75.4606 383.454 74.8895V70.8514C382.107 70.5658 380.913 70.3211 379.643 70.0356C378.527 70.3211 377.334 70.6474 376.294 70.8922C375.294 70.6882 374.447 70.4843 373.484 70.2803C374.909 69.0158 376.217 67.9145 377.488 66.7724C376.91 66.4461 376.487 66.2422 376.102 65.9974C377.796 64.7329 379.489 63.4277 381.337 62C380.182 61.5921 379.489 61.3474 378.411 60.9395C376.525 62.0816 374.639 63.2237 372.561 64.529C371.906 64.6106 370.905 64.6922 369.982 64.8961C368.981 65.1408 368.096 65.5079 366.902 65.9158C366.556 65.3448 366.402 65.0185 366.248 64.7737C367.98 63.8356 369.558 63.0198 371.136 62.1632C372.253 61.9185 373.446 61.7145 374.832 61.429C374.254 61.0619 373.985 60.8579 373.715 60.6948C375.178 60.0014 376.679 59.3079 378.103 58.6961C379.374 56.5342 376.333 55.5961 375.409 53.9237C372.176 55.5145 371.021 58.0027 367.672 59.2264C366.017 57.3092 368.827 56.4119 369.982 54.9842C369.481 54.454 368.942 53.9237 368.365 53.3119C367.249 53.679 366.44 53.9645 365.632 54.2092C365.363 53.5566 365.132 53.0671 364.901 52.5777C367.364 51.4356 369.828 50.2935 372.676 48.9474C371.521 48.3764 370.675 47.9277 369.828 47.5198C370.367 46.5408 370.829 45.6435 371.367 44.6645C370.906 44.175 370.405 43.6856 369.751 42.9921C368.327 44.0527 367.21 44.9092 366.017 45.8066C365.17 44.9908 364.439 44.2974 362.899 45.1948C362.784 46.1329 362.668 47.1527 362.553 48.1724C361.821 46.8263 361.86 45.4803 361.783 44.175C361.783 43.8895 361.167 43.6448 360.821 43.3592C360.397 43.6448 360.128 43.8487 359.82 44.0527C359.243 43.8487 358.665 43.604 358.126 43.4C357.279 43.6856 356.471 43.9711 355.355 44.3382V43.0737C357.664 42.5027 359.743 41.9724 362.399 41.279C360.859 40.7895 359.935 40.5448 358.896 40.2184C361.437 39.729 363.631 39.0356 365.517 37.7303C364.362 37.2816 363.554 37.1592 362.784 37.8527C362.014 38.5053 361.244 38.3829 359.974 37.7711C361.629 37.2408 362.899 36.8329 364.208 36.425C363.708 35.9356 363.246 35.5277 362.784 35.0382C362.976 34.4263 363.207 33.8145 363.284 33.2027C363.284 32.9987 362.822 32.7948 362.437 32.4684C361.629 33.0395 360.898 33.529 360.359 33.9369C360.243 34.9158 360.128 35.7316 360.051 36.5474C359.089 36.2211 358.242 35.9356 357.356 35.6092C356.548 36.1395 355.855 36.5882 355.393 36.9145C354.624 38.6684 355.894 40.4632 354.123 41.8908C351.467 41.6461 351.621 40.3 350.813 39.2395C351.39 39.1579 351.852 39.1171 352.43 39.0356C352.468 37.2408 352.545 35.4053 352.545 33.5698C352.545 33.2434 352.43 32.8355 352.122 32.55C350.159 30.7961 349.966 28.7974 350.043 27.125C350.736 26.2684 351.159 25.779 351.467 25.4119C349.928 24.3105 348.619 23.4132 347.58 22.679C347.426 21.7408 347.272 21.0474 347.156 20.2316C346.155 20.5579 345.424 20.7619 344.77 20.9658C344.693 21.904 344.577 22.679 344.539 23.3316C343.115 23.9434 341.883 24.4737 340.69 24.9632C341.305 25.7382 341.767 26.35 342.152 26.9211C341.421 27.5329 340.844 27.9816 340.112 28.5527C340.805 29.3684 341.498 30.1434 342.075 30.9184C342.229 31.1224 341.96 31.4079 341.883 31.6934C341.305 31.3671 340.805 31.0816 340.189 30.7553C338.38 32.7948 340.613 34.0184 342.268 35.4869C341.69 35.7316 341.382 35.9356 340.997 35.9763C340.497 36.0171 339.92 35.8948 339.419 35.8948C339.034 35.8948 338.688 36.0171 338.188 36.0987C337.957 36.7921 337.764 37.4448 337.533 38.1382C336.532 38.3013 335.647 38.4237 334.608 38.5869C334.454 37.3632 334.338 36.3434 334.223 35.2421C333.453 35.2013 332.914 35.1605 332.645 35.1605C331.644 35.8948 330.836 36.5474 329.873 37.3224C329.335 36.5882 328.988 36.1395 328.488 35.4461C327.718 35.9763 327.179 36.3434 326.679 36.7106C325.177 36.5066 323.676 36.3434 322.175 36.0987C321.906 36.0579 321.829 35.6908 321.636 35.4461C322.483 35.2013 323.253 34.9566 324.061 34.7527C323.984 34.3448 323.907 34.0184 323.869 33.6921C322.521 33.5698 321.367 33.4882 320.058 33.3658C320.597 32.8356 320.905 32.5092 321.251 32.1829C319.442 31.3263 317.248 33.5698 315.978 31.9382C315.439 30.5921 319.096 30.3066 317.595 28.8382C316.902 28.879 316.286 28.9198 315.555 28.9605C315.324 27.7776 315.324 26.5948 312.668 26.1869C312.321 27.1658 311.975 28.104 311.667 28.9605C310.666 29.2869 309.704 29.5724 308.472 29.9395C309.473 30.225 310.127 30.3882 310.628 30.5105C310.782 32.2237 308.01 31.5303 307.356 32.4277C306.701 33.2434 306.086 34.0592 305.431 34.875C304.469 34.6303 303.584 34.3855 302.621 34.1408C302.198 34.5895 301.89 34.875 301.428 35.3645C302.583 35.854 303.545 36.3434 304.623 36.7513C306.701 37.5671 306.894 37.9342 306.201 39.8513C305.162 39.4027 304.199 38.9132 303.199 38.5053C302.929 38.3829 302.467 38.5053 302.005 38.5053C302.39 39.1579 302.698 39.729 303.006 40.2592C301.698 40.504 300.543 40.7079 299.196 40.9935C300.851 42.6658 303.468 42.8698 305.662 43.3592C304.661 45.0724 302.082 44.5829 300.196 44.9908C299.427 45.6027 298.811 46.1737 298.041 46.6632C297.309 47.1119 296.424 47.479 295.577 47.8869C297.656 48.1316 299.427 48.05 301.197 47.8461C301.851 47.7645 302.39 47.3974 302.852 47.1935C303.391 47.9277 303.93 48.6619 304.546 49.5592C302.313 50.0487 299.888 50.5382 297.502 51.15C295.269 51.7211 292.652 51.4356 290.535 52.2514C291.382 53.2711 294.384 52.2106 293.807 54.0053C292.69 54.4948 291.574 54.9435 289.919 55.6369C294.307 56.4527 296.078 54.2908 298.772 53.5974C299.234 53.8829 299.696 54.2092 300.35 54.6579C301.544 53.9645 302.506 53.3935 303.622 52.7816C304.315 52.8632 305.085 52.9856 306.317 53.1487C302.737 55.5961 298.849 57.0645 294.423 57.7579C293.614 58.9408 292.921 60.0014 292.267 60.9803C292.844 61.4698 293.268 61.7961 293.73 62.204C292.96 62.6119 292.113 62.9382 291.459 63.4277C290.843 63.8764 290.419 64.4474 289.881 64.9777C289.149 64.7329 288.533 64.4882 288.033 64.325C287.879 63.3461 287.764 62.5303 287.61 61.4698C286.455 62.0816 285.646 62.4895 285.223 62.7343C282.76 61.6737 280.566 60.7764 278.526 59.7974C278.025 59.5527 277.871 59.0224 277.486 58.5737C279.411 58.125 280.989 57.7987 282.721 57.3908V53.3527C283.645 53.0671 284.376 52.8632 285.146 52.6185V51.5171C283.529 51.8027 282.067 52.0474 280.373 52.3329C279.988 52.0882 279.603 51.8435 279.026 51.4763C279.988 50.579 280.835 49.8448 281.682 49.029C281.335 48.7842 280.951 48.5395 280.604 48.2948C281.913 47.5606 283.068 46.8264 282.529 45.6027H277.871C276.716 44.9908 275.408 44.3382 274.061 43.6856C276.716 42.2171 276.716 42.2171 277.294 40.504C275.331 40.8711 273.56 41.1974 271.597 41.5645C271.52 39.5658 273.291 38.4645 275.292 37.1592C273.83 36.9145 272.829 36.7105 271.905 36.5474C272.02 36.1395 272.097 35.8132 272.213 35.4053C271.135 35.2829 270.211 35.1606 269.134 35.0382C269.942 34.3856 270.596 33.8553 271.405 33.2027C270.635 32.8763 270.096 32.6724 269.442 32.3869C268.479 32.754 267.632 33.0395 267.017 33.2842C265.977 32.9171 265.092 32.5908 264.207 32.2645C264.9 31.775 265.592 31.2855 266.362 30.7553C265.361 30.4698 264.707 30.3066 263.783 30.0619C265.13 29.4908 266.131 29.0421 267.171 28.5527C267.094 27.7777 267.055 27.0842 267.017 26.4316C266.208 26.1869 265.631 26.0237 265.015 25.8605C266.709 24.8816 266.709 23.8619 265.515 22.7605C265.438 22.679 265.053 22.679 264.746 22.679C264.553 23.2092 264.361 23.6987 264.13 24.3921C262.629 24.5553 261.05 24.7592 259.511 24.9224C259.318 25.2487 259.164 25.6158 258.972 25.9421C257.548 25.6974 256.431 25.3711 257.009 24.229C258.625 23.2908 260.319 22.3119 262.359 21.0882C260.742 20.8434 259.819 20.6803 259.241 20.5987C260.55 20.0684 262.09 19.4566 263.783 18.804C263.09 18.3145 262.706 18.0697 262.513 17.9474C263.09 17.3355 263.629 16.7645 264.168 16.2342C264.014 16.1119 263.899 16.0303 263.745 15.9079C262.898 16.1526 262.051 16.3974 261.243 16.6421C260.627 15.704 260.588 15.6632 259.087 15.0105C256.778 15.5 258.202 17.05 257.124 17.9066C256.393 17.7026 255.892 17.5395 255.431 17.3763C255.508 16.9276 255.546 16.5605 255.623 16.1526C254.122 15.9487 252.929 15.8263 251.581 15.6224C252.082 14.0724 255.123 13.2158 253.852 11.5026H251.889C252.428 10.85 252.89 10.2382 253.352 9.62632C252.736 9.01447 252.236 8.52501 251.851 8.11711C252.274 7.50527 252.621 7.01579 252.659 6.93421C251.158 5.30263 249.926 3.99737 248.772 2.7329C246.501 3.1 247.655 4.32369 246.885 5.01711C246 5.75132 244.922 6.36316 243.768 7.13816C244.153 7.50527 244.614 7.87237 244.884 8.11711C244.653 9.54474 244.46 10.8092 244.23 12.5224C244.306 12.4408 243.96 12.7263 243.652 13.0118C243.383 13.2974 243.152 13.6237 242.998 13.8276C244.114 16.275 243.729 17.4579 241.343 18.9263C241.266 17.9474 241.189 17.0908 241.073 16.0303C239.841 15.8263 238.725 15.6632 237.416 15.4592C236.801 14.6026 236.108 13.6645 235.415 12.7263C234.838 12.7671 234.414 12.8079 234.376 12.8079C233.952 14.3987 233.529 15.9079 233.067 17.5803C233.837 17.9882 234.838 18.4776 235.8 18.9671C235.954 19.4566 236.108 19.9869 236.262 20.5171C237.263 20.6803 238.186 20.8842 239.11 21.0474C239.11 21.2105 239.072 21.3329 239.072 21.4961C236.916 21.904 234.761 22.2711 232.528 22.679C232.143 22.9645 231.643 23.3316 231.296 23.5763C230.488 22.8013 229.757 22.0671 228.91 21.2513C226.793 22.7197 228.794 24.0658 228.563 25.3303C227.986 25.4934 227.37 25.6158 226.677 25.779C228.294 27.4513 230.719 28.2671 233.028 29.1645C232.682 29.5316 232.413 29.8579 232.182 30.1434C230.911 30.2658 229.757 30.3882 228.255 30.5513C229.256 31.3671 229.988 32.0198 230.796 32.7132C230.719 33.2434 230.642 33.8145 230.526 34.8342C228.602 33.3658 227.178 32.1829 225.638 31.0816C225.176 30.7553 224.483 30.5513 223.829 30.225C222.828 31.4079 222.02 32.4277 221.25 33.325C221.981 34.7119 223.79 35.079 225.446 35.5684C225.369 37.0369 228.063 36.8737 229.025 37.8527C229.795 38.6684 231.797 39.0763 233.259 39.6882C232.413 40.3816 231.797 40.8711 231.142 41.4013C230.642 39.525 228.717 38.8316 226.177 38.7908C224.791 37.404 223.367 36.425 220.557 36.3842V38.0158C221.404 38.2606 222.135 38.5053 223.021 38.75C223.098 39.6066 223.175 40.4224 223.29 41.4013C223.983 41.9316 224.868 42.625 225.907 43.4C225.176 43.9303 224.599 44.3382 224.098 44.7053C222.713 44.0934 221.635 43.604 220.519 43.1145C219.441 43.5224 218.594 43.8079 217.901 44.0935V47.5606C218.863 48.05 219.595 48.4579 220.365 48.825C220.172 49.2329 220.057 49.5592 219.903 49.8856C222.905 52.1698 223.136 52.4961 222.944 54.454C222.02 53.6382 221.288 52.904 220.365 52.2514C219.941 51.9658 219.056 51.925 218.479 51.7619C216.592 53.6382 219.787 54.1277 220.326 55.025C219.826 55.8408 219.479 56.4119 219.094 56.9829C218.902 57.2685 218.671 57.5948 218.171 58.2474C217.901 56.6566 217.709 55.5553 217.516 54.454C216.746 54.4132 216.323 54.4132 215.861 54.3724C215.284 54.9435 214.745 55.4737 214.091 56.1264C213.167 55.6777 212.474 55.3921 211.858 55.1066C209.779 56.3303 212.897 56.8606 212.397 57.8395C212.05 58.1658 211.666 58.5329 211.281 58.9C213.051 59.4711 214.783 60.0014 217.324 60.8172C215.245 60.6948 213.975 60.6132 212.743 60.5724C211.55 60.5316 210.318 60.5724 209.625 60.5724C206.777 59.9198 204.391 59.3487 202.081 58.8185C203.544 58.2066 205.815 59.1856 207.662 58.0843C205.776 57.1869 203.813 57.8395 202.158 57.3908C199.926 56.8606 197.693 56.3711 195.422 55.9224C195.307 55.8816 195.23 55.7593 195.191 55.7185C196.346 55.4737 197.462 55.229 199.002 54.9027C197.77 54.454 197.039 54.2093 196.5 54.0461V51.354C197.963 52.4961 199.194 53.475 200.541 54.4948C201.311 54.3724 202.12 54.25 202.851 54.1277C203.967 54.3724 205.083 54.6171 207.085 55.025C206.046 54.0869 205.545 53.6382 205.007 53.1487C207.662 52.0066 208.432 54.4948 210.588 54.25C209.741 51.354 206.431 51.0277 202.928 51.15C201.773 50.579 200.772 50.1303 199.733 49.6408C199.849 49.0698 199.964 48.5803 200.041 48.1724C202.274 48.0092 204.198 49.9671 206.662 48.05C204.314 47.5198 202.274 47.0711 200.349 46.6224C200.926 46.4185 201.581 46.2145 202.543 45.929C200.003 44.7053 196.692 46.2145 194.845 44.6237C196.23 44.1342 197.424 43.7263 198.54 43.3592C198.078 42.7066 197.809 42.2579 197.424 41.7277C199.887 41.7277 199.425 43.9303 202.158 43.5632C201.927 42.9513 201.773 42.4211 201.581 41.8908C201.735 41.85 201.889 41.8092 202.043 41.7685C203.159 42.7474 204.275 43.6856 205.622 44.8685C206.007 44.3382 206.354 43.9711 206.546 43.604C206.739 43.2369 206.739 42.8698 206.854 42.3803C208.317 43.1553 208.163 44.5829 210.511 44.8685C210.28 44.0119 210.126 43.2369 209.856 42.2171C208.24 41.3198 206.546 40.1369 204.506 39.3211C202.505 38.5053 200.234 37.9342 197.963 37.4448C196.115 37.0369 194.113 36.9553 192.035 36.7106C191.881 36.0579 191.765 35.5277 191.573 34.7527C193.228 35.1605 194.306 35.4053 195.615 35.7316C196.038 34.7934 196.346 34.0592 196.769 32.9987C198.463 33.8145 199.81 34.5487 201.234 35.2013C201.581 35.3645 202.274 35.2013 203.236 35.2013C202.351 34.3855 201.773 33.8145 201.196 33.2842C202.966 32.7948 204.853 32.1829 205.43 30.5513C204.044 30.7145 202.851 31.0816 201.889 30.9184C198.386 30.2658 194.883 29.5316 191.534 28.6342C189.802 28.1855 188.84 27.1658 189.687 25.9829C192.073 26.7171 194.344 27.4105 196.654 28.1448C197 27.6553 197.27 27.2474 197.462 27.0026C198.463 27.0434 199.31 27.0434 200.426 27.0842C198.809 25.5342 195.307 23.6171 192.42 22.6382C194.729 22.0263 195.961 20.8026 197.462 19.1303C195.268 19.2119 193.69 19.2934 192.189 19.3342C191.65 18.804 191.149 18.3145 190.611 17.7842C191.534 17.6618 192.381 17.5395 193.382 17.4171C193.651 17.05 193.921 16.6013 194.306 16.1118C192.189 16.0303 190.572 15.9487 188.686 15.9079C189.148 15.5 189.456 15.3368 189.648 15.0921C189.879 14.8474 190.033 14.5619 190.418 13.9092C188.532 14.3987 187.262 14.725 185.684 15.0921C185.068 14.4395 184.567 13.9092 184.106 13.4605C185.145 12.5224 187.416 12.3592 186.608 10.9724C185.684 11.0132 184.798 11.054 183.644 11.1355C183.49 10.075 183.336 9.13685 183.143 8.11711C182.412 8.07632 181.873 8.07632 181.296 8.03553C180.718 9.25921 180.141 10.4013 179.679 11.4211H176.484C177.369 12.1961 177.985 12.7263 178.755 13.379C177.37 13.9092 176.061 14.4395 174.175 15.1737C176.138 15.4184 177.369 15.5408 178.563 15.6632C177.1 17.7842 174.829 15.0921 173.366 16.2342C173.443 16.6829 173.52 17.05 173.597 17.4579C171.75 17.4987 170.056 16.3974 168.67 17.7434C170.826 18.8855 172.866 19.9869 174.983 21.129C174.483 21.8224 174.098 22.3119 173.674 22.8829C172.404 22.2711 171.326 21.7816 169.864 21.129C169.633 22.2303 169.479 23.0053 169.325 23.9026H165.861C167.516 25.6158 170.21 25.5342 172.327 26.1461C173.559 25.9829 174.752 25.8197 176.677 25.575C173.328 27.4921 169.825 28.1855 166.245 29.1237C166.861 30.6737 162.589 30.2658 163.128 31.8974H168.516C168.593 31.775 168.786 31.3671 169.055 30.7145C170.326 31.979 171.057 32.6724 172.058 33.6921C166.784 34.5895 161.819 35.4869 156.507 36.3842C159.509 37.0369 159.509 37.0369 160.626 38.0158C159.278 38.75 157.931 39.525 156.507 40.3C157.084 40.6263 157.392 40.7895 157.7 40.9527C160.395 39.9737 163.012 39.0355 165.476 38.1382C166.284 38.5053 166.9 38.75 167.593 39.0763C168.67 38.3013 169.594 37.6487 170.672 36.8737C171.673 36.9553 172.674 37.0369 174.175 37.1592C172.25 39.4027 168.824 40.0961 166.707 41.3606C164.667 41.6869 162.897 41.9724 161.896 42.0948C160.356 43.6856 159.278 44.8277 158.124 46.0513C159.047 46.2961 159.779 46.5 160.626 46.7448C159.086 47.8053 157.546 48.8658 155.968 49.9264C155.391 49.8448 154.698 49.7632 153.89 49.6408C153.505 49.9264 153.235 50.2119 152.85 50.4566C152.388 50.7421 151.811 51.0277 151.388 51.2724C149.348 50.7014 149.348 50.7014 148 49.5185C149.232 48.6211 150.541 47.6829 151.811 46.7448C151.85 46.7448 151.696 46.6224 151.542 46.4185C150.464 46.5 149.271 46.5408 148.231 46.6224C146.923 45.4395 147.923 43.7671 145.806 42.8698C144.844 44.2974 143.997 45.6435 143.112 46.9487C141.957 46.9079 141.11 46.8671 139.34 46.7856C140.494 47.479 141.033 47.7645 141.495 48.0908C141.957 48.4171 142.304 48.7842 142.804 49.2329C140.841 49.7224 139.263 50.0895 137.685 50.4974C137.8 50.579 137.877 50.6606 137.993 50.7421C137.069 51.354 136.183 51.9658 135.298 52.5369C135.414 52.904 135.568 53.2711 135.722 53.7606C133.72 53.3935 132.103 53.0671 130.256 54.1277C132.95 55.5145 135.452 56.8198 138.108 58.1658C137.415 58.9408 136.645 59.8382 135.683 60.9803C134.721 59.6343 134.259 58.4514 132.065 58.2882C131.718 58.4921 131.372 58.6553 131.064 58.8185C131.988 59.6343 131.988 59.6343 131.795 60.8987C131.141 60.8172 130.525 60.7356 129.948 60.654C129.832 59.6343 129.755 58.7369 129.64 57.7987C128.87 57.7579 128.331 57.7579 127.908 57.7171C127.061 58.5737 126.291 59.3895 125.175 60.5316C124.559 59.2672 123.635 58.9 122.134 59.5119C121.98 60.4093 121.826 61.3066 121.634 62.4895C120.556 60.8172 122.095 59.1448 120.094 57.8395C119.632 58.125 119.247 58.329 119.016 58.4514C117.823 58.0843 116.668 57.7579 115.321 57.3908C117.207 56.8198 119.016 56.2895 121.326 55.5553C119.594 55.229 118.439 54.9842 117.592 54.8211C119.786 54.0869 122.172 53.3119 124.713 52.4553C122.596 50.8237 121.326 53.2711 119.632 52.5777C119.594 50.8237 122.326 51.6803 122.981 51.2316C122.634 50.1303 122.365 49.1921 122.057 48.2948C121.903 47.8461 121.634 47.4382 121.364 46.9079C118.785 48.05 119.594 49.6408 119.132 51.0277C118.054 50.7014 117.092 50.4158 116.014 50.0895C114.744 50.9053 114.089 51.7211 114.166 52.7816C114.243 53.679 114.128 54.5764 114.051 55.4329C114.051 55.5145 113.82 55.6369 113.781 55.6369C113.088 55.025 112.396 54.3724 111.857 53.9237C111.587 52.5369 111.356 51.3132 111.202 50.4566C111.356 49.1106 111.472 48.0908 111.587 47.2342C110.625 46.704 110.009 46.3369 109.586 46.1329C110.548 43.9303 107.584 41.8092 110.163 39.7698C106.583 38.7092 106.622 36.6698 106.121 34.7119C105.352 34.7527 104.813 34.7934 104.235 34.7934C103.773 35.8948 103.35 36.9145 102.927 37.8934C101.81 38.5053 100.771 39.0356 99.7703 39.6066C100.232 40.3 100.579 40.8711 100.848 41.279C100.117 41.8908 99.5394 42.3803 98.962 42.8698C98.6541 44.2566 102.08 44.7053 101.002 46.2553C100.348 45.8474 99.7703 45.4803 98.962 45.0316C98.1537 46.9487 98.7696 48.3764 101.002 49.6C100.348 50.0079 99.7318 50.3342 99.4239 50.4974H97.0759C96.9604 51.3132 96.845 52.0066 96.768 52.7C95.6902 52.8632 94.7664 53.0264 93.8041 53.1895C93.6117 52.0066 93.4192 50.8645 93.2268 49.804C92.4184 49.7632 91.995 49.7224 91.6101 49.7224C90.7248 50.4158 89.8395 51.0685 88.8772 51.8027C88.4153 51.15 88.1074 50.7014 87.7225 50.1711C86.9911 50.2935 86.4522 50.375 85.6439 50.5382C86.4137 51.5579 87.1066 52.4553 87.7994 53.3935C87.4915 53.6382 87.1451 53.9645 86.5677 54.454C88.0689 54.9842 89.2236 55.4329 90.4169 55.8816C89.9935 56.4119 89.4931 56.9829 88.8002 57.8395C91.5331 59.0224 94.1506 60.1645 96.4601 61.1843C97.2684 62.1632 97.9227 62.9382 98.5771 63.754C98.4231 63.8356 98.2307 63.9579 98.0382 64.0395C96.8065 63.5093 95.5748 62.979 94.2276 62.3671C93.6887 62.979 93.3422 63.4277 92.8803 63.9579C92.6109 63.1829 92.3415 62.4895 92.149 61.9185C90.4939 61.6329 89.0697 61.429 87.5685 61.1843C87.1066 61.3474 86.6062 61.5514 85.9903 61.7961C85.7979 60.8987 85.6439 60.2053 85.4514 59.3487C84.6046 59.3895 83.9888 59.3895 82.9495 59.4303C83.2959 60.654 83.5654 61.6737 83.7193 62.1224C83.1805 63.1014 82.911 63.5908 82.6416 64.1211C82.3336 64.6514 82.0642 65.1816 81.7178 65.7527C85.2205 67.4658 88.6848 69.179 92.38 71.0145C91.2252 71.7487 90.1089 72.4829 88.9157 73.2172C87.607 71.9935 86.9911 70.6882 84.2197 70.729C84.0658 71.6672 83.9118 72.6053 83.7193 73.6251C82.2182 72.3606 81.1789 70.9329 78.369 70.6474C77.1373 72.279 78.7539 73.1764 79.9856 74.1961C78.7539 74.3185 77.5222 74.4408 76.175 74.5632C76.7908 76.3987 79.7162 76.3987 81.5253 77.5816C81.0249 78.1935 80.7555 79.05 79.8702 79.4987C78.138 80.3553 76.0595 81.0079 73.9809 81.783C73.0956 81.4158 72.2103 81.0487 71.1326 80.6001C70.1703 81.0079 69.2465 81.4158 68.3612 81.783C65.5513 80.1106 66.706 78.0303 66.937 76.0724C66.937 75.9093 66.9755 75.7461 67.014 75.5829C66.3981 75.4198 65.7437 75.2158 65.0509 75.0527C64.9354 74.1553 64.8199 73.2987 64.7045 72.3606C63.9731 72.279 63.4342 72.2382 63.1263 72.1974C62.087 73.2987 61.1247 74.3185 59.893 75.5829C59.5851 76.3172 59.1617 77.3777 58.6998 78.479C59.0077 78.7645 59.4311 79.1724 59.7775 79.5395C59.0077 80.1106 58.4303 80.5593 57.8914 81.008C58.5458 81.7422 59.1232 82.354 59.5851 82.9659C59.739 83.1698 59.4696 83.4553 59.4311 83.7001C58.8152 83.6185 58.2764 83.5369 57.545 83.4553C57.2371 84.1487 56.9676 84.8014 56.7367 85.3724C56.0438 85.5356 55.5434 85.6987 54.8891 85.8619C54.6966 85.0461 54.5042 84.2711 54.3502 83.4553H52.5026C52.1562 83.904 51.8482 84.2711 51.2324 85.0869C51.1554 83.8224 51.0784 83.0066 51.0784 82.8027C47.6912 77.908 41.263 76.0724 34.4885 74.3593C30.4084 74.2369 25.5585 72.8093 25.7509 71.6264C26.3668 71.3 27.0981 70.9329 27.8295 70.6066C29.1382 71.2593 29.4846 72.6053 31.6786 72.075C31.0628 70.6474 32.7949 69.954 33.8727 68.8935C36.2206 70.1172 38.2607 71.1369 40.3008 72.1974C40.6857 72.1158 41.0706 71.9935 41.6095 71.8711C40.8396 70.3211 38.6456 69.6277 36.721 68.404C38.4147 68.6487 39.7234 68.8119 40.5317 68.9342C41.9174 68.1185 42.9952 67.5066 44.2269 66.7724C44.1884 66.6093 44.1114 66.2829 43.996 65.8343C42.3408 66.1198 40.8781 66.3645 39.9158 66.5685C35.3353 65.6711 31.1397 64.8145 27.3291 64.0395C24.8271 62.5711 22.864 61.225 23.8648 59.104C26.9826 60.2869 29.6386 61.8369 33.3723 62.6119C33.7572 61.8777 34.0651 61.2658 34.4115 60.5724C35.4893 61.0211 36.3746 61.3474 37.3754 61.7553C37.6448 61.4698 37.9143 61.1843 38.2222 60.8579C35.3738 59.2672 32.6024 57.7579 29.754 56.2079C29.0612 56.1264 28.2144 56.0448 27.2906 55.9224C28.6378 55.3106 29.8695 54.7395 31.1397 54.1685C30.9858 54.0869 30.8703 54.0461 30.7163 54.0053C31.5631 53.1487 32.41 52.2513 33.2568 51.3948C31.6401 51.2316 30.2159 51.2724 28.8302 52.0066C27.5215 52.7 25.9434 53.1895 24.0958 52.7C25.0581 52.3329 26.0588 51.9658 27.1751 51.5579C26.4438 50.7829 25.8664 50.2119 25.3275 49.6C26.5592 49.1106 27.637 48.7027 28.9457 48.1724C28.3683 47.7237 27.9449 47.4382 27.637 47.1935C26.1358 47.3158 24.9041 47.4382 23.6339 47.479C23.3644 47.479 23.0565 47.1935 22.6716 46.9895C23.5954 46.3777 24.4422 45.8882 25.4045 45.2763C22.7486 44.379 21.4783 45.3579 20.4006 46.4185C19.2843 45.9698 18.476 45.6027 17.5907 45.2356C17.6292 44.5829 17.6677 43.9711 17.7062 43.6448C18.7839 42.5434 20.6315 42.0948 20.901 41.0342C19.2843 40.0553 18.5915 41.1566 17.5522 41.4421C17.0903 41.279 16.5899 41.1158 16.0125 40.8711C15.897 39.5658 15.8201 38.2606 15.7046 36.9961H13.626C13.0872 38.5869 12.5868 40.0961 12.0864 41.6869C10.5082 41.6461 9.31498 41.6053 7.12096 41.5237C8.69911 42.4211 9.62291 42.9513 10.3927 43.4C9.73839 45.0316 7.19794 44.7461 5.58129 45.2763V46.4592C6.9285 46.4592 8.12174 46.4185 9.31498 46.4592C9.62291 46.4592 9.93085 46.704 10.5082 46.9487C9.46895 47.4382 8.58364 47.8461 8.16023 48.0092C5.92771 48.1316 5.04241 46.2961 2.92537 47.4382C3.11782 47.8869 3.31028 48.3356 3.54123 48.8658C2.50196 48.825 1.57816 48.7842 0.461899 48.7435V50.9461C2.23252 51.7619 4.00313 52.5369 5.81224 53.3527C5.5428 54.1685 5.19637 55.1066 4.81146 56.2895C3.2333 55.7185 1.96308 55.229 0.115478 54.5356C0.769836 56.7382 -1.03927 58.7369 1.77062 60.4908C3.61821 59.7158 5.35034 58.7777 8.08325 59.7566C5.35034 60.9395 2.84838 62.0408 0.384918 63.1014V68.6895C1.19324 68.6079 1.80911 68.5672 2.88687 68.4856C1.77062 69.3422 0.962291 69.954 0 70.6882C0.69285 71.5448 0.731342 72.5237 1.46268 73.1764ZM1393.67 73.1764C1394.21 73.2579 1394.74 73.2987 1395.21 73.3803C1396.17 74.8895 1397.05 76.3579 1397.98 77.704C1398.86 78.9685 1399.86 80.1106 1400.9 81.4974C1400.21 82.4356 1399.52 83.4145 1398.82 84.3935C1397.13 82.7211 1395.55 81.2119 1393.63 79.2948V73.1764H1393.67ZM1375.46 91.3685C1377.69 94.1422 1379.12 96.7119 1381.58 96.1816C1382.12 97.3645 1382.62 98.5474 1383.27 99.9343C1382.89 100.383 1382.5 100.913 1382.08 101.403C1382.27 102.871 1382.5 104.38 1382.74 106.134C1382.08 106.175 1381.5 106.461 1381.39 106.216C1380.66 104.584 1380 102.871 1379.23 100.954C1378.15 100.709 1376.92 100.465 1375.46 100.138V91.3685ZM1345.51 64.6514C1344.13 65.7119 1342.82 66.6908 1341.51 67.7106C1341.2 66.854 1340.89 65.9566 1340.59 65.1816C1341.13 64.7737 1341.63 64.3658 1342.17 63.9987C1343.28 64.2027 1344.36 64.4066 1345.51 64.6514ZM1342.28 52.7C1341.86 53.0671 1341.47 53.475 1341.05 53.8421C1340.59 53.5974 1340.09 53.3119 1339.51 52.9856C1340.36 52.904 1341.2 52.8224 1342.28 52.7ZM1338.2 53.1487C1338.28 54.0869 1338.32 54.9843 1338.35 55.8C1337.01 56.0448 1336.31 55.3513 1335.66 53.4342C1336.47 53.3119 1337.28 53.2303 1338.2 53.1487ZM1316.11 93.0816C1316.88 93.4488 1317.49 93.7751 1318.34 94.1422C1317.42 95.1619 1316.49 96.1816 1315.41 97.3645C1313.26 97.2422 1311.26 99.9343 1308.56 97.6093C1311.18 96.1001 1313.64 94.5909 1316.11 93.0816ZM1198.9 96.2632C1199.13 95.3659 1199.36 94.3053 1199.67 93.0001C1202.94 94.9987 1204.48 99.0369 1208.56 98.7922C1210.72 100.546 1212.49 101.974 1215.03 104.054C1215.57 104.625 1216.64 106.053 1218.03 107.154C1219.38 108.174 1222.03 108.051 1221.65 110.499C1219.38 109.601 1217.14 108.745 1214.91 107.888C1214.83 108.011 1214.76 108.133 1214.68 108.296C1212.64 106.583 1210.6 104.87 1208.18 102.83C1206.71 102.708 1204.79 102.545 1202.67 102.341C1203.6 101.607 1204.37 101.036 1205.79 99.9343C1203.02 99.9343 1201.02 99.9343 1198.98 99.9343C1197.59 98.8738 1196.82 98.2619 1195.82 97.4461C1197.09 96.9566 1197.86 96.6711 1198.9 96.2632ZM1163.06 58.5329C1162.91 58.5329 1162.83 58.5737 1162.72 58.5737C1162.87 58.4514 1162.99 58.3698 1163.14 58.2474C1163.1 58.329 1163.06 58.4514 1163.06 58.5329ZM1163.6 48.6619C1165.87 50.4566 1168.03 52.2106 1170.49 54.1277C1169.41 55.1882 1168.53 56.0448 1167.41 57.1461C1167.03 56.6566 1166.68 56.1671 1166.34 55.6777C1166.76 55.3106 1167.14 55.025 1167.64 54.6171C1166.6 54.3316 1165.8 54.1277 1165.03 53.9237C1164.76 53.5566 1164.56 53.2711 1164.22 52.8632C1164.14 53.1895 1164.1 53.3935 1164.06 53.679C1163.56 53.5566 1163.03 53.3935 1162.56 53.2711C1162.87 51.8842 1163.14 50.6606 1163.6 48.6619ZM1121.38 64.8145C1121.15 65.6711 1120.95 66.5277 1120.68 67.425C1119.95 65.5895 1119.26 63.7948 1118.57 62C1120.49 61.1027 1122.61 60.654 1124.73 60.2053C1123.53 61.2658 1122.42 62.204 1121.11 63.3461H1124.92C1123.15 64.0803 1122.3 64.4474 1121.38 64.8145ZM1125.46 60.0421C1125.8 59.9606 1126.19 59.879 1126.5 59.7974C1126.65 60.0421 1126.92 60.4093 1127.15 60.7764C1126.61 60.5316 1126.03 60.2869 1125.46 60.0421ZM1126.61 46.9895C1126.8 47.0711 1126.96 47.1527 1127.15 47.2342C1127.27 48.4579 1128.15 49.5185 1129.54 50.4158C1128.15 50.8645 1126.88 51.2724 1125.73 51.6803C1125.23 51.2724 1124.65 50.7829 1124.07 50.2935C1124.88 49.2329 1125.69 48.1316 1126.61 46.9895ZM1118.95 55.6777C1121.26 55.3106 1123.8 54.6987 1125.38 52.4553C1125.26 53.8421 1125.8 54.9435 1126.65 55.9224C1125.42 56.7382 1124.15 57.554 1122.84 58.4514C1120.26 54.8211 1117.53 57.6356 1114.49 58.6553C1115.45 57.0237 1116.76 56.0448 1118.95 55.6777ZM1109.87 69.5869C1110.18 69.6685 1110.45 69.7093 1110.79 69.7908C1110.56 70.729 1110.33 71.6264 1110.1 72.6461C1109.95 72.6053 1109.75 72.6461 1109.64 72.5645C1109.25 72.3198 1108.83 72.0751 1108.44 71.8303C1108.87 71.1369 1109.37 70.3619 1109.87 69.5869ZM1068.45 61.3882C1068.34 61.9593 1068.3 62.5303 1068.3 63.1014C1067.8 62.3264 1067.26 61.5106 1066.76 60.7356C1067.33 60.9395 1067.87 61.1435 1068.45 61.3882ZM1062.18 71.0961C1061.87 71.3408 1061.6 71.5856 1061.25 71.8711C1063.6 73.3803 1065.87 74.808 1068.14 76.2764C1067.45 76.4395 1066.68 76.5211 1065.95 76.6435V75.0119C1064.14 74.1961 1062.41 73.4211 1059.87 72.3198C1060.79 71.8711 1061.52 71.4632 1062.18 71.0961ZM1049.86 34.0592C1050.48 35.7316 1050.86 36.7921 1051.36 38.179C1047.63 38.3421 1045.47 40.6263 1043.43 42.9106C1042.85 42.0132 1042.28 41.0342 1041.43 39.729C1043.97 38.0158 1046.74 36.1395 1049.86 34.0592ZM1010.79 52.2921C1012.14 52.4553 1013.45 52.5777 1014.72 52.3737C1016.99 52.0066 1019.07 50.7421 1021.99 49.6C1020.49 51.8027 1019.37 53.475 1018.41 54.9027C1018.37 54.6579 1018.34 54.3316 1018.3 54.0869C1015.26 52.3737 1013.72 56.2895 1010.6 54.4132C1010.64 53.8421 1010.71 53.0264 1010.79 52.2921ZM1008.64 48.7027C1008.52 48.825 1008.44 48.9474 1008.33 49.0698C1008.21 48.9882 1008.13 48.9474 1007.98 48.8658C1008.29 48.825 1008.4 48.7842 1008.64 48.7027ZM964.947 23.2092V20.2724C965.486 20.6395 965.871 20.8842 966.333 21.2105C968.18 20.3947 970.066 19.579 971.914 18.7632C972.799 19.7421 973.531 20.5987 974.57 21.7V28.3079C973.685 29.2869 972.915 30.1026 971.683 31.4079C971.683 29.6132 971.799 28.1448 971.645 26.6763C971.414 23.7395 969.451 22.7197 964.947 23.2092ZM954.554 56.6566C954.477 56.0448 954.4 55.3514 954.362 54.7395C954.631 55.3514 954.67 56.004 954.554 56.6566ZM955.401 66.2421C955.401 66.1606 955.401 66.079 955.401 66.0382C955.594 66.1198 955.747 66.2014 955.94 66.2421H955.401ZM958.057 48.7027C956.363 48.9882 955.055 49.1921 953.784 49.3961C953.784 49.3145 953.746 49.1921 953.746 49.1106C952.63 48.825 951.975 48.6619 951.167 48.4171C951.09 47.1527 951.052 45.9698 950.974 44.7461C953.246 46.0106 955.478 47.2342 958.057 48.7027ZM940.389 56.8606C940.967 57.4316 941.544 58.0435 942.314 58.5329C942.352 58.5737 942.429 58.5737 942.506 58.6145C941.891 59.6343 942.16 60.5724 942.699 61.4698C940.89 61.5106 939.042 61.5106 937.079 61.5514C938.465 60.2461 939.696 58.7369 940.389 56.8606ZM936.887 61.7553C937.272 64.2435 940.004 65.0593 941.044 65.9974C941.082 66.2422 941.121 66.4053 941.159 66.6093C941.044 66.8948 940.928 67.1395 940.774 67.425C939.889 66.4053 939.042 65.3856 938.311 64.4474C937.233 64.2843 936.001 64.0803 934.693 63.8764C935.424 63.1422 936.155 62.4487 936.887 61.7553ZM936.001 74.2777C934.731 74.6856 933.461 75.0935 932.037 75.5014C932.037 75.5829 932.114 75.6237 932.114 75.7053C930.92 74.9711 929.997 73.9514 930.035 72.1566C931.883 73.625 932.383 73.7474 936.001 74.2777ZM905.131 72.5645C905.323 72.6869 905.516 72.85 905.67 73.0132C905.246 73.1764 904.939 73.2987 904.592 73.4619C904.015 72.9316 903.514 72.4422 902.706 71.7079C903.206 71.7895 903.514 71.9119 903.899 72.0343C904.323 72.2382 904.746 72.4014 905.131 72.5645ZM900.435 57.4316C901.089 57.1869 901.744 56.9421 902.514 56.6566C902.783 56.8606 903.014 57.1053 903.283 57.3092C903.784 57.6764 903.899 58.4921 904.13 59.2671C903.745 59.4303 903.437 59.6343 903.168 59.879C901.936 60.0422 900.743 60.2461 899.511 60.4093C899.858 59.3079 900.166 58.329 900.435 57.4316ZM894.199 57.4724C895.778 58.5329 897.202 59.4711 898.818 60.5316C898.741 60.5316 898.626 60.5724 898.549 60.5724C898.857 61.1435 899.088 61.6737 899.357 62.204C897.51 62.204 895.739 62.0408 894.199 60.9395V57.4724ZM864.792 36.2211C864.753 36.2211 864.753 36.2619 864.715 36.3027C864.676 36.2619 864.638 36.2619 864.599 36.2211C864.676 36.2211 864.715 36.2211 864.792 36.2211ZM862.906 33.325C863.214 34.1816 863.445 34.875 863.675 35.5277C862.944 34.9566 862.251 34.4263 861.482 34.0592C861.982 33.8145 862.328 33.6513 862.906 33.325ZM852.436 52.4553C852.513 52.5369 852.551 52.5777 852.628 52.6592C852.051 53.0264 851.397 53.3935 850.819 53.8013C851.358 53.3527 851.897 52.904 852.436 52.4553ZM825.068 73.7882C824.722 73.9514 824.376 74.1145 824.029 74.2777C824.029 74.1145 823.991 73.9922 823.952 73.829C824.337 73.7882 824.683 73.7882 825.068 73.7882ZM809.518 86.0251C809.71 84.5974 809.864 83.4145 810.018 82.3132C810.711 82.2316 811.327 82.1501 811.943 82.1093C812.943 82.4764 813.906 82.8027 814.907 83.1698C813.79 84.3527 811.712 85.0869 809.518 86.0251ZM806.438 77.2145C809.094 76.6843 811.134 75.6237 813.174 74.5224C814.021 74.033 815.522 73.5435 816.446 73.6658C817.409 73.829 818.332 73.829 819.256 73.8698V76.2356C817.678 76.7251 816.061 77.2145 814.214 77.4185C812.79 77.5816 811.481 78.2751 810.172 78.7237C809.325 79.0093 808.478 79.3356 807.131 79.8251C807.362 79.0501 807.439 78.7237 807.593 78.2751C806.746 78.3974 805.977 78.479 805.207 78.6014C805.168 78.4382 805.014 78.2343 805.091 78.1527C805.476 77.7856 805.9 77.2961 806.438 77.2145ZM741.888 61.5514C741.426 62.4487 741.041 63.1421 740.425 64.3658C740.425 63.754 740.387 63.1829 740.348 62.5711C740.849 62.2448 741.349 61.9185 741.888 61.5514ZM730.148 64.0395C730.34 64.325 730.456 64.4882 730.648 64.7329C729.34 65.1 728.262 65.3856 727.608 65.5895C727.184 65.875 726.876 66.1198 726.53 66.3645C726.414 66.3237 726.299 66.2829 726.183 66.2014C727.954 65.2224 729.032 64.6514 730.148 64.0395ZM716.176 27.8592C716.791 29.5316 717.176 30.5921 717.677 31.979C713.943 32.1421 711.787 34.4263 709.747 36.7106C709.17 35.8132 708.593 34.8342 707.746 33.529C710.286 31.8566 713.058 29.9803 716.176 27.8592ZM678.954 79.1724C678.993 79.1316 678.993 79.0908 679.031 79.0908C679.07 79.1316 679.108 79.1724 679.108 79.2132C679.07 79.2132 679.031 79.2132 678.954 79.1724ZM674.181 55.5553L674.412 56.0856C674.066 56.3711 673.719 56.6566 673.373 56.9014C673.334 56.5342 673.334 56.2895 673.296 55.8408C673.604 55.7185 673.873 55.6369 674.181 55.5553ZM670.986 60.8579C671.025 60.9803 671.102 61.1027 671.14 61.225C673.527 59.8382 675.682 58.5737 678.377 56.9829C679.493 58.9 680.34 60.2869 681.187 61.7145C682.303 61.3474 683.419 60.9803 685.344 60.3277C684.343 62.0408 683.804 63.0198 683.535 63.5093C679.955 64.3251 676.799 64.6921 674.027 65.7527C673.527 65.9566 673.103 66.2421 672.641 66.4869C672.218 66.4461 671.833 66.4869 671.371 66.2014C671.448 65.304 671.564 64.2435 671.679 62.979C670.986 62.5303 670.063 62 669.139 61.3882C669.909 61.1843 670.409 61.0211 670.986 60.8579ZM631.802 39.1579V36.5882C632.264 36.9145 632.61 37.1185 632.995 37.404C634.612 36.7106 636.228 35.9763 637.845 35.2829C638.615 36.1395 639.269 36.8737 640.116 37.8119V43.5632C639.346 44.4198 638.653 45.1132 637.614 46.2553C637.614 44.7053 637.691 43.4408 637.614 42.1763C637.383 39.6066 635.69 38.75 631.802 39.1579ZM619.023 73.7474C620.408 74.5632 621.409 75.175 622.41 75.7053H618.599V76.1132C618.253 76.1132 617.983 75.9908 617.56 76.0316C616.213 74.8079 614.866 73.5843 613.518 72.3198C615.558 72.8501 617.598 73.3803 619.023 73.7474ZM610.439 68.2408C610.939 68.7303 611.478 69.3014 612.21 69.75C613.018 70.2395 614.096 70.525 615.212 70.9737C614.558 71.4632 614.019 71.8711 613.48 72.279C611.517 72.3198 609.554 72.3198 607.437 72.3606C607.475 72.8908 607.668 73.2987 607.898 73.6658C607.167 73.5435 606.474 73.4211 605.705 73.2987C607.321 71.6672 609.169 70.1579 610.439 68.2408ZM600.932 81.1711C602.972 82.0277 604.973 82.8435 607.013 83.7001C606.436 83.7816 605.859 83.8224 605.281 84.0264C604.973 84.2711 604.511 84.679 604.242 84.8829C604.319 85.2908 604.357 85.5764 604.434 85.9843C602.625 84.9645 600.547 84.0264 600.932 81.1711ZM570.523 69.8724V68.8119C570.985 69.0974 571.408 69.4237 571.832 69.7093C571.408 69.7501 570.985 69.8316 570.523 69.8724ZM572.409 108.826C572.255 108.582 571.986 108.418 571.986 108.051C572.332 108.174 572.679 108.255 573.025 108.378C573.025 108.419 573.025 108.459 573.025 108.5C572.833 108.622 572.602 108.745 572.409 108.826ZM572.64 57.8803C572.871 58.0027 572.794 58.4514 572.833 58.7369H576.027C575.258 59.3487 574.526 59.9198 573.756 60.5724C573.641 60.5724 572.871 60.5316 572.178 60.654C572.14 60.3277 572.101 60.0421 572.063 59.8382C570.754 59.675 569.445 59.5119 568.06 59.3079C567.79 58.0027 567.559 56.9421 567.251 55.5553C569.214 56.3711 570.985 57.1053 572.64 57.8803ZM526.566 99.5672V101.607C525.68 101.933 524.795 102.3 523.871 102.667H523.486C523.409 102.626 523.332 102.586 523.255 102.545C523.448 102.015 523.602 101.566 523.794 101.036C522.794 101.076 521.831 101.076 520.869 101.117C520.561 100.954 520.33 100.791 519.984 100.587C522.409 100.179 524.487 99.8527 526.566 99.5672ZM478.605 78.8461C480.183 79.5803 481.531 80.1514 483.07 80.8448C481.569 82.4356 479.336 81.783 476.758 81.6198C477.412 80.5593 477.989 79.7435 478.605 78.8461ZM437.727 112.661C438.035 112.783 438.381 112.865 438.651 113.028C439.844 113.803 439.844 113.803 441.884 113.966C442.307 113.517 442.769 112.987 443.308 112.375C443.732 112.701 444.194 112.905 444.155 113.028C444.001 113.599 443.693 114.17 443.385 114.822C444.117 114.986 444.732 115.149 445.541 115.312C443.193 115.638 440.999 115.965 438.458 116.332C437.612 115.842 436.457 115.149 435.148 114.333C436.149 113.68 436.88 113.191 437.727 112.661ZM417.942 112.13C416.865 112.579 416.441 113.64 415.363 114.863C415.017 111.682 415.787 110.947 420.406 109.928C420.444 111.315 419.174 111.6 417.942 112.13ZM409.898 73.2987C413.169 75.0119 415.517 77.0106 419.751 78.4382H415.71C413.978 77.1737 412.361 75.9908 410.783 74.808L409.898 75.2974V73.2987ZM392.037 93.6527C394.039 94.0606 396.079 94.4277 398.119 94.8356C398.081 94.958 398.042 95.0803 398.004 95.1619C396.002 95.3251 394 95.529 391.691 95.733C391.614 96.1817 391.499 96.5895 391.422 97.0382C390.382 96.6711 389.42 96.304 388.188 95.8553C389.458 95.1619 390.652 94.4685 392.037 93.6527ZM383.107 102.586C383.569 102.912 383.877 103.32 383.8 103.238C386.187 103.728 387.919 104.054 390.036 104.503C388.958 105.115 388.265 105.482 387.572 105.89C381.722 103.075 381.683 103.075 381.452 101.77C382.145 102.137 382.684 102.3 383.107 102.586ZM338.688 46.9487C338.957 47.8053 340.574 48.6211 339.111 49.8448C338.149 49.2737 337.302 48.7842 336.417 48.2948C335.493 48.4579 334.569 48.6211 332.606 48.9474C333.646 48.3356 333.915 48.1316 334.415 47.8461C333.684 47.479 332.991 47.1119 332.26 46.7448V45.1948C332.799 45.1132 333.376 44.95 333.53 45.0724C334.993 45.9698 338.188 45.3171 338.688 46.9487ZM326.833 36.9961C327.564 37.6487 328.334 38.3421 329.027 38.954C328.642 39.2803 328.295 39.5658 327.949 39.8921C329.527 41.5645 332.221 41.8092 335.108 41.9316C335.224 42.2987 335.339 42.625 335.455 43.0329C333.492 42.4211 331.683 41.6461 330.104 43.0329C327.833 41.9316 325.562 40.8303 323.407 39.8106C325.524 39.525 326.525 38.4237 326.833 36.9961ZM293.845 64.7329C293.614 65.7935 293.46 66.5277 293.191 67.8329C294.846 66.9764 295.808 66.4869 296.886 65.9158C297.079 66.7724 295.924 67.7514 297.771 68.2816C298.272 68.0369 298.772 67.7922 300.081 67.1803C299.427 68.1185 299.157 68.5264 298.849 68.9751C296.809 69.0566 294.846 69.1382 292.767 69.2198C292.229 68.4856 291.536 67.629 290.612 66.4869C291.459 65.9974 292.421 65.5079 293.845 64.7329ZM295.693 76.3987C295.5 77.2961 295.385 77.9487 295.192 78.7645C293.691 78.3158 292.344 77.8672 291.613 77.6632C290.189 76.4803 289.188 75.6237 287.648 74.2777C290.881 75.1343 293.268 75.7461 295.693 76.3987ZM208.009 70.5658C205.507 70.8514 204.968 69.0158 202.505 68.9751C203.505 68.5264 204.044 68.2816 204.699 67.9961C204.622 67.5474 204.545 67.0987 204.468 66.5685C205.776 66.9764 206.893 67.3435 208.009 67.7106V70.5658ZM200.772 62.0408H203.89C204.16 61.7961 204.66 61.3882 205.353 60.8172C208.471 62.0816 211.396 63.2645 214.398 64.4474C213.706 65.0593 213.167 65.5487 212.551 66.0382C211.704 65.1408 210.819 64.2027 209.587 62.9382C209.048 63.9987 208.702 64.6922 208.278 65.5487C206.315 64.8145 204.314 64.0803 202.197 63.3053C201.696 63.5093 201.119 63.754 200.541 63.9987C198.116 62.5711 195.422 61.3066 192.805 59.3895C196.307 59.7974 198.578 60.6948 200.772 62.0408ZM163.82 51.5171C165.86 52.6185 163.051 52.904 162.858 53.8421C162.935 54.0461 163.128 54.454 163.32 54.8619C161.549 55.1882 159.779 55.4737 157.431 55.9224C157.238 55.8 156.661 55.4329 156.045 55.025C158.778 53.8014 161.318 52.6592 163.82 51.5171ZM127.292 73.9514C126.407 72.8501 126.407 71.9935 127.061 71.2593C129.024 70.6474 130.718 70.0764 132.565 69.5053C131.718 71.2593 129.524 72.483 127.292 73.9514ZM131.603 63.6724C131.68 63.8356 131.718 63.9579 131.795 64.1211C134.143 64.0395 136.453 63.9987 138.57 63.9172C136.607 65.304 136.568 65.2632 133.874 66.0382C130.795 66.8948 127.792 67.8737 124.79 68.7711C124.636 68.3632 124.366 67.7922 124.097 67.1395C126.445 66.079 129.024 64.8553 131.603 63.6724ZM68.7846 81.9053C69.7854 82.3132 70.7861 82.6803 71.7484 83.0882C71.1326 84.108 70.5552 85.0461 69.9778 86.0251C67.5528 85.2093 67.3604 84.4751 68.7846 81.9053ZM39.6464 99.4448H35.3353C34.7964 99.1185 34.2191 98.7514 33.3338 98.2619C34.2576 98.058 34.758 97.9764 35.4508 97.8132V96.4672C34.8734 96.3448 34.3345 96.2224 33.8342 96.1001C33.1028 94.6724 32.41 93.2856 31.6786 91.8988C31.8326 91.8172 32.0251 91.7764 32.179 91.6948C32.7949 92.0619 33.6417 92.3882 34.0266 92.8777C35.7587 94.8764 37.7603 96.6303 41.648 97.079C42.2253 97.1606 42.7257 97.3645 43.765 97.6501C41.571 98.5882 40.5317 99.0777 39.6464 99.4448ZM33.5647 78.8053C35.5663 80.233 37.2984 81.4974 39.5309 83.0882V80.5185C40.2238 80.5185 41.2246 80.3553 41.417 80.5593C42.2253 81.3751 42.8027 82.2316 43.7265 83.4961C43.919 83.5369 44.4579 83.7001 44.9582 83.8224C46.3439 82.7211 44.8428 81.6198 44.8043 80.3553C47.9606 80.3961 47.9991 82.2724 49.1538 83.1698C50.2701 84.0264 49.9237 85.6172 50.3086 87.208C50.809 87.3711 51.7713 87.6974 52.6951 87.983C52.5411 88.4724 52.3871 88.9619 52.1947 89.533C53.5804 90.308 54.9276 91.083 56.3518 91.8988C55.8514 92.3882 55.351 92.8777 54.7736 93.4895C54.1577 93.0001 53.6574 92.633 53.08 92.1843C52.1177 92.0619 51.1554 91.9803 50.5395 91.8988C49.6157 91.1645 48.8844 90.5527 47.6527 89.6145C47.3062 90.8382 47.1138 91.5724 46.8828 92.429C45.1122 92.429 43.2261 92.6738 41.648 92.3474C39.9928 92.0211 38.6456 91.1645 36.9135 90.4711C37.2214 90.2264 37.5294 89.9816 37.9528 89.6553C37.6833 89.3698 37.2984 89.0027 36.7595 88.4724C38.6456 88.3093 40.2238 88.1461 41.571 88.8395C43.0337 89.5737 44.4194 89.4514 46.1515 88.7988C45.3816 88.2685 44.7658 87.8606 44.1114 87.4527C42.3793 87.2895 40.6087 87.0856 38.2607 86.8409C39.5309 86.1474 40.1853 85.8211 41.4555 85.1277H32.2945C31.8326 84.5974 31.5247 84.2303 31.1782 83.7816C32.7179 83.333 34.1806 82.8843 35.7202 82.4356C35.1814 81.2119 33.2568 80.3961 33.5647 78.8053Z" fill="#3F372F"/>
</svg>
