<svg width="1440" height="869" viewBox="0 0 1440 869" fill="none" xmlns="http://www.w3.org/2000/svg">
<rect y="310" width="1440" height="471" fill="#B88119"/>
<path fill-rule="evenodd" clip-rule="evenodd" d="M0 759H1440V784.546C959.999 892.126 480 902.067 0 784.546V759Z" fill="#B88119"/>
<path fill-rule="evenodd" clip-rule="evenodd" d="M0.000488281 16.6212C267.012 -31.7608 473.482 135.053 949.525 262.608L1440 328.605H0.00104039V16.6212H0.000488281Z" fill="#B73913"/>
<path fill-rule="evenodd" clip-rule="evenodd" d="M1300.57 121.388C867.069 -81.4862 527.04 -13.4398 212.989 202.611L0 328.605H1440L1300.57 121.388H1300.57Z" fill="#B73913"/>
<path fill-rule="evenodd" clip-rule="evenodd" d="M1440 16.6212C1172.99 -31.7608 966.518 135.053 490.475 262.608L0 328.605H1440V16.6212H1440Z" fill="#A35B0F"/>
<path fill-rule="evenodd" clip-rule="evenodd" d="M0.000488281 114.116C364.506 -40.76 963.957 106.555 1440 234.11V328.605H0.000488281V114.116Z" fill="#B88119"/>
</svg>
