<svg width="251" height="251" viewBox="0 0 251 251" fill="none" xmlns="http://www.w3.org/2000/svg">
<path fill-rule="evenodd" clip-rule="evenodd" d="M125.868 0.381226C194.833 0.381226 250.753 56.3009 250.753 125.266C250.753 194.265 194.833 250.185 125.868 250.185C56.8684 250.185 0.94873 194.265 0.94873 125.266C0.94873 56.3009 56.8684 0.381226 125.868 0.381226Z" fill="#F3EFE5"/>
<path fill-rule="evenodd" clip-rule="evenodd" d="M131.813 171.436C139.525 165.456 134.429 154.823 131.202 151.256C130.794 150.848 130.08 151.052 129.979 151.663C129.979 152.886 129.571 154.313 128.552 155.332C127.94 152.173 125.426 148.232 121.859 146.397C121.383 146.194 120.874 146.499 120.874 147.009C120.976 151.358 118.122 154.517 115.676 158.152C113.57 161.414 112.041 167.597 116.593 171.538C117.205 172.047 119.141 173.066 121.485 173.576C121.281 172.862 121.18 172.149 121.18 171.436C121.18 168.786 122.572 166.476 123.592 165.049C124.203 164.335 125.324 164.335 125.834 165.049C126.853 166.476 128.246 168.684 128.246 171.436C128.246 172.047 128.144 172.761 128.042 173.372C129.571 172.761 130.794 172.149 131.813 171.436Z" fill="#A35B0F"/>
<path d="M177.235 163.894C177.541 164.471 177.303 165.185 176.691 165.49C176.114 165.762 175.4 165.524 175.095 164.947L104.499 23.6188C104.227 23.0073 104.465 22.2939 105.042 22.0221C105.62 21.7164 106.333 21.9542 106.639 22.5317L177.235 163.894Z" fill="#A35B0F"/>
<path d="M126.275 87.4542C126.275 88.0996 125.732 88.6432 125.086 88.6432C124.441 88.6432 123.897 88.1336 123.897 87.4542L123.218 21.3766C123.218 20.7311 123.761 20.1875 124.407 20.1875C125.052 20.1875 125.596 20.7311 125.596 21.3766L126.275 87.4542Z" fill="#A35B0F"/>
<path d="M74.6704 164.709C74.3647 165.287 73.6513 165.524 73.0737 165.253C72.4962 164.947 72.2584 164.233 72.5301 163.656L142.854 22.5317C143.16 21.9542 143.874 21.7164 144.451 22.0221C145.029 22.2939 145.266 23.0073 144.995 23.6188L74.6704 164.709Z" fill="#A35B0F"/>
<path fill-rule="evenodd" clip-rule="evenodd" d="M116.491 75.5977C118.631 78.6892 120.84 80.6596 124.746 80.6936C128.653 80.6596 131.269 78.7911 133.41 75.6996L177.982 165.015C169.149 170.349 158.516 174.969 145.64 178.23C145.64 178.23 144.451 163.452 139.321 152.784C134.191 142.117 127.77 139.365 124.746 139.365C121.723 139.365 115.302 142.117 110.172 152.784C105.042 163.452 103.853 178.23 103.853 178.23C91.4189 174.969 80.9892 170.45 71.7485 165.015L116.491 75.5977ZM120.738 103.252C120.092 103.218 119.583 102.674 119.617 102.029C119.651 101.349 120.194 100.874 120.874 100.908C122.232 100.976 123.557 101.01 124.882 101.01C126.207 101.043 127.532 101.01 128.891 100.942C129.537 100.942 130.114 101.451 130.114 102.097C130.148 102.776 129.639 103.32 128.993 103.32C127.634 103.388 126.241 103.388 124.848 103.388C123.456 103.388 122.097 103.354 120.738 103.252ZM115.71 113.308C115.064 113.24 114.589 112.662 114.656 112.017C114.724 111.371 115.302 110.896 115.981 110.964C118.971 111.269 121.927 111.439 124.916 111.473C127.872 111.507 130.862 111.371 133.817 111.1C134.463 111.032 135.04 111.507 135.108 112.187C135.176 112.832 134.701 113.41 134.021 113.478C130.998 113.749 127.94 113.885 124.882 113.851C121.825 113.817 118.767 113.647 115.71 113.308ZM110.41 123.058C109.764 122.956 109.323 122.345 109.425 121.699C109.527 121.054 110.138 120.612 110.784 120.714C115.472 121.495 120.16 121.903 124.78 121.937C129.435 121.971 134.089 121.665 138.709 120.952C139.389 120.85 140 121.291 140.068 121.971C140.17 122.616 139.729 123.228 139.083 123.296C134.327 124.009 129.571 124.349 124.78 124.315C119.99 124.281 115.2 123.839 110.41 123.058Z" fill="#A35B0F"/>
<path d="M184.335 79.8103C184.403 79.8782 184.471 79.9462 184.539 80.0141C184.607 80.0481 184.675 80.116 184.743 80.15V80.184C186.238 81.5769 187.631 83.0037 188.922 84.4646C188.174 81.373 187.869 78.4174 188.31 75.6656C188.548 74.3406 188.922 73.0496 189.499 71.7926C188.99 70.3997 187.801 67.0364 187.427 63.741C187.189 61.4648 187.291 59.1547 188.14 57.3881L190.281 58.4412C189.635 59.7322 189.601 61.6007 189.805 63.4692C190.043 65.5756 190.62 67.6819 191.096 69.1767C192.251 67.6479 193.814 66.2211 195.818 64.8961L197.143 66.9005C195.275 68.1235 193.882 69.4145 192.863 70.8074C198.298 70.6036 204.923 73.1176 207.063 73.9329C207.403 74.0688 207.573 74.1368 207.607 74.1368L206.996 76.4469C206.826 76.379 206.588 76.3111 206.248 76.1752C203.972 75.3258 196.43 72.4381 191.402 73.3554C191.062 74.2387 190.824 75.122 190.654 76.0393C190.111 79.6064 190.96 83.6492 192.523 88.0657L192.013 88.2356C199.216 97.7141 202.477 107.906 202.647 118.098L202.681 118.54C203.394 117.351 204.244 116.161 205.229 115.04C205.874 114.293 206.622 113.546 207.403 112.832C209.272 110.182 209.17 107.261 209.068 104.713C208.932 101.281 208.83 98.3935 212.397 96.7628L213.382 98.9371C211.276 99.8884 211.344 102.063 211.446 104.611C211.514 106.343 211.582 108.212 211.174 110.114C213.111 108.959 215.421 107.94 218.139 107.057C218.41 106.989 218.648 106.989 218.852 106.989C218.886 106.989 218.886 107.023 218.852 107.091V107.838L220.415 108.416C220.041 109.367 219.464 109.367 218.852 109.367V109.333C216.678 110.046 214.775 110.828 213.145 111.745C214.062 111.949 215.013 112.255 216.066 112.56C218.037 113.138 220.313 113.817 223.065 114.259L222.725 116.603C219.769 116.127 217.425 115.448 215.387 114.837C213.382 114.225 211.684 113.715 210.121 113.681C208.932 114.599 207.913 115.584 207.029 116.603C205.127 118.743 203.802 121.155 202.715 123.568C202.715 124.315 202.681 125.096 202.681 125.844C204.448 125.912 205.874 126.15 207.029 126.795C208.762 127.746 209.713 129.479 209.883 132.638C212.363 134.099 213.586 133.658 214.911 133.216C216.712 132.604 218.648 131.925 222.555 133.929L221.468 136.07C218.478 134.507 217.052 135.017 215.659 135.492C214.062 136.036 212.499 136.579 209.815 135.288C209.476 138.923 207.811 142.389 206.792 144.529C206.384 145.344 206.112 145.956 206.078 146.126L203.734 145.718C203.836 145.242 204.176 144.495 204.651 143.51C205.772 141.166 207.709 137.089 207.437 133.352H207.505C207.471 130.736 206.928 129.445 205.874 128.867C205.093 128.46 204.006 128.29 202.613 128.222C202.341 133.997 201.594 140.112 199.623 146.601C199.182 147.994 197.279 160.225 196.362 167.189L189.465 166.951C193.304 160.972 193.508 151.12 194.697 147.247C197.007 139.603 198.434 131.551 198.91 124.383C198.57 124.145 198.332 124.111 198.095 124.043C197.619 123.975 197.143 123.873 196.43 123.466C190.892 120.238 189.16 120.238 182.297 120.238H182.059C181.108 120.238 180.055 120.476 179.002 120.918C177.915 121.325 176.895 121.937 175.978 122.582C176.352 123.262 176.827 124.043 177.405 124.791C178.288 125.912 179.409 126.999 180.734 127.712L186.204 130.6L180.055 129.921C180.021 129.921 180.055 129.921 180.055 129.921C179.375 129.887 179.138 129.887 178.968 129.411C177.575 128.562 176.454 127.407 175.536 126.251C174.313 124.655 173.464 122.956 172.988 121.767C172.071 121.767 171.018 121.835 170.033 122.175C169.965 122.209 169.591 122.345 169.116 122.514C167.417 123.16 164.189 124.349 163.748 124.247L164.325 121.937C164.597 122.005 166.839 120.85 168.3 120.306C168.742 120.136 169.082 120 169.217 119.932C170.882 119.355 172.479 119.389 173.736 119.389C174.449 119.423 175.027 119.423 175.163 119.355L175.536 120C176.352 119.491 177.235 119.049 178.084 118.709C179.443 118.166 180.802 117.86 182.059 117.86H182.297C185.83 117.86 188.106 117.86 190.179 118.234C189.703 115.21 188.752 109.333 188.616 109.129C187.937 108.008 187.529 107.328 187.189 106.819C185.491 106.819 183.894 107.057 182.331 107.668C180.53 108.382 178.696 109.639 176.726 111.643L175.027 109.978C177.235 107.736 179.341 106.309 181.448 105.46C182.875 104.882 184.335 104.577 185.796 104.475C185.66 104.203 185.592 103.965 185.525 103.693C185.355 103.082 185.423 102.64 185.525 101.859C185.626 101.111 185.796 99.9563 185.796 97.7481H188.174C188.174 100.058 188.005 101.349 187.869 102.199C187.801 102.674 187.767 102.946 187.835 103.15C187.903 103.49 188.276 104.067 189.126 105.426C189.567 106.139 190.145 107.091 190.654 107.872C191.028 108.518 192.285 116.433 192.693 118.913C194.12 119.457 195.649 120.238 197.619 121.393C198.027 121.631 198.298 121.665 198.57 121.733C198.74 121.767 198.876 121.801 199.046 121.835C199.114 120.408 199.114 119.049 199.08 117.758C198.944 110.182 197.585 103.523 195.139 97.6801C192.591 91.531 186.442 85.9934 182.297 81.2711C180.395 79.9122 178.05 78.7911 175.672 77.9078C172.377 76.7187 168.98 76.0053 166.602 75.8354C164.733 76.6168 161.404 77.3642 159.433 77.8398C158.686 78.0097 158.176 78.1116 158.142 78.1116C155.696 78.961 152.469 79.0968 149.887 78.4514C148.766 78.2135 147.78 77.8059 146.965 77.2623C146.082 76.6848 145.402 75.9034 145.063 74.9861C144.825 74.2727 144.791 73.4913 144.995 72.6759L147.305 73.2195C147.203 73.5932 147.237 73.899 147.339 74.2047C147.475 74.6124 147.814 74.9861 148.29 75.2919C148.868 75.6656 149.581 75.9713 150.43 76.1412C152.605 76.6848 155.322 76.5828 157.395 75.8694C157.497 75.8354 158.074 75.6995 158.924 75.4957C160.758 75.088 164.02 75.0201 165.209 74.7143C164.699 74.2387 164.325 73.5932 164.02 72.8798C163.578 71.7587 163.374 70.3997 163.374 69.0408C163.374 67.0024 163.816 64.8282 164.495 63.2314L166.669 64.1147C166.126 65.4736 165.752 67.3082 165.752 69.0408C165.752 70.128 165.922 71.1811 166.228 71.9965C166.5 72.6759 166.907 73.1855 167.451 73.4233C169.591 74.3066 173.532 74.6124 176.488 75.6995C179.341 76.7187 182.127 78.1116 184.335 79.8103ZM218.852 109.333V109.367C218.852 109.333 218.886 109.333 218.852 109.333ZM218.852 107.091C218.784 107.261 218.546 107.498 218.376 107.634L218.852 107.838V107.091ZM180.463 128.222L180.293 128.528L180.734 128.426C180.632 128.358 180.564 128.29 180.463 128.222ZM180.293 128.528L180.463 128.222C180.395 128.154 180.327 128.086 180.259 128.018L180.191 128.528H180.293Z" fill="#A35B0F"/>
<path fill-rule="evenodd" clip-rule="evenodd" d="M28.0592 164.199C29.3842 155.57 28.9765 148.572 40.6633 138.244C30.3015 138.04 28.5349 143.136 22.5216 148.266C19.9737 132.231 30.3015 116.297 44.9439 113.749C35.0917 110.386 26.8702 115.244 20.1775 121.189C25.0696 88.7792 55.2377 88.8131 53.1993 88.4055C48.9527 87.2164 44.4682 87.4882 40.1197 88.4055C34.4802 89.6285 29.0445 91.9726 24.594 93.8072C31.7623 79.3686 46.2688 67.546 71.4768 66.1871C65.3956 60.3097 46.4726 66.5268 46.4726 66.4928C55.9511 52.462 86.8326 48.2833 104.261 51.205C101.067 54.908 94.6465 72.642 97.5681 79.3007C95.19 80.0821 89.0069 77.7379 88.871 72.7099C86.5948 80.6256 90.23 86.1293 95.7676 92.0066C86.7307 93.5354 82.6879 92.0406 79.6643 87.9978C79.4945 97.0007 84.2507 103.965 97.8739 104.984C89.9921 111.473 81.5668 112.764 75.9952 109.741C77.7618 115.72 86.5609 123.703 98.0438 121.529C95.0881 126.217 89.0069 134.711 80.038 132.876C83.9449 137.836 90.7056 140.826 100.286 141.132C87.5461 156.725 74.5684 157.982 63.3233 156.046C58.3292 144.903 55.9511 128.732 59.1446 114.972C64.6822 91.2592 81.5329 69.4485 87.8518 61.4988C31.9661 117.181 58.9408 164.947 64.1726 171.979L52.282 168.514C57.9895 164.063 50.4135 157.337 48.4091 154.143C41.5805 154.755 35.6013 156.963 28.0592 164.199Z" fill="#346025"/>
<path fill-rule="evenodd" clip-rule="evenodd" d="M154.269 75.9713C148.052 75.9373 150.159 75.3258 144.587 83.2076C140.34 89.2208 136.332 84.4646 132.934 87.0805C132.187 87.6241 129.537 87.8959 126.989 90.0362C125.528 91.2592 122.674 89.1868 121.587 88.3715C121.723 86.401 119.243 83.7172 123.999 82.5961C133.104 80.4218 119.753 66.6627 135.007 62.6199C139.661 61.3629 137.555 55.1458 140.918 52.9716C146.489 49.3704 146.286 53.8888 151.551 51.0011C153.42 49.9819 154.541 46.4487 158.006 48.7929C161.54 51.205 163.68 48.0115 166.669 49.4723C168.64 50.4915 166.669 56.3689 172.717 55.5535C175.672 55.1458 175.536 54.5683 179.002 56.8785C183.316 59.7322 184.947 62.7218 178.764 63.8429C176.182 64.3186 171.154 64.5224 172.819 69.0068C173.94 72.0644 164.597 67.6139 161.607 69.5164C161.37 69.6523 155.051 75.9713 154.269 75.9713ZM207.471 143.17C206.452 144.597 203.191 140.894 199.963 145.582C198.23 148.096 195.071 144.937 192.387 146.873C189.533 148.878 188.14 138.652 185.083 143.714C183.69 145.99 185.185 152.241 190.587 152.003C192.931 151.901 194.935 155.196 198.808 157.099C201.798 158.56 204.481 154.449 206.894 156.997C209.713 159.987 216.508 156.318 218.309 153.124C220.585 149.081 230.675 156.284 233.732 144.291C234.208 142.525 240.833 136.885 236.144 134.541C233.257 133.114 231.898 135.934 227.923 132.978C225.103 130.838 225.069 130.226 221.264 132.774C217.799 135.084 218.716 136.851 215.829 137.768C214.062 138.312 208.253 142.049 207.471 143.17ZM172.343 126.014C172.037 127.916 175.197 129.615 181.754 125.334C184.132 123.771 187.937 125.504 190.349 125.98C192.285 126.387 191.708 129.751 188.446 130.974C184.2 132.536 185.728 135.356 183.384 137.089C181.686 138.346 178.56 135.934 174.144 140.622C169.353 145.684 158.448 141.811 157.667 135.458C157.395 133.182 151.246 132.842 154.337 128.494C155.017 127.576 150.328 124.485 148.868 121.597C147.067 117.996 153.284 119.083 153.692 118.166C156.172 112.934 158.38 114.701 160.011 117.011C160.894 118.302 160.622 119.932 162.593 120.204C164.563 120.442 166.398 119.117 168.164 122.277C168.98 123.805 174.517 122.107 172.343 126.014ZM186.883 100.466C188.582 99.4807 187.767 96.6269 190.722 95.6077C192.047 95.1321 192.013 93.3655 194.12 92.4143C198.502 90.4438 197.177 92.9578 199.521 87.2504C200.914 83.8531 194.154 85.7895 194.12 85.7895C189.805 82.3583 188.378 82.4262 182.773 84.2268C181.448 84.6684 180.632 87.4882 176.114 88.7452C167.587 91.0893 173.43 96.0154 168.13 99.107C167.315 99.5486 161.709 104.101 162.355 105.698C164.461 110.794 165.616 104.577 165.616 113.376C165.616 122.616 170.508 115.21 173.396 120.068C174.415 121.801 178.356 121.325 178.22 116.637C178.152 114.021 179.545 114.225 177.133 110.828C175.299 108.28 179.613 107.804 179.987 105.29C180.021 105.086 186.102 100.874 186.883 100.466ZM213.824 103.048C210.087 100.772 211.14 101.859 209.985 98.1218C209.51 96.525 205.739 96.525 203.598 98.1218C200.201 100.636 187.801 99.6845 195.513 96.491C197.483 95.6757 197.483 98.2576 200.099 92.6861C201.424 89.9003 205.467 89.2208 208.015 90.274C212.193 92.0066 216.168 83.887 221.876 91.1912C223.71 93.5014 223.269 96.0834 228.67 96.593C230.641 96.7968 231.796 98.3596 231.014 100.5C228.976 106.037 237.266 106.037 237.266 113.885C237.266 116.026 233.393 119.355 233.63 124.859C233.664 126.082 231.15 130.6 228.908 124.621C227.447 120.646 222.895 125.742 222.691 120.85C222.317 111.269 218.75 116.094 214.979 109.741C212.941 106.309 217.425 105.222 213.824 103.048ZM190.009 66.6967C197.653 65.3038 194.561 68.3953 199.793 70.5696C201.866 71.4189 202.647 69.5844 205.399 74.2727C207.403 77.7379 209.442 83.7851 213.688 84.4646C217.697 85.144 213.314 81.6448 213.314 80.5917C213.314 78.8251 217.119 78.6212 215.557 73.6272C214.911 71.5548 213.314 72.8798 213.756 68.0216C214.164 63.2654 210.461 58.5771 204.753 58.747C199.793 58.9168 201.594 49.6082 195.241 47.9775C192.557 47.2981 187.223 43.595 184.403 48.4871C182.637 51.5787 173.736 48.5551 174.076 52.5639C174.144 53.7529 177.915 52.394 180.768 55.4176C183.282 58.0675 186.204 56.4708 185.151 61.6347C184.675 63.9449 187.461 67.1383 190.009 66.6967Z" fill="#346025"/>
<path d="M112.992 177.517C112.143 177.177 111.735 176.226 112.075 175.377C112.414 174.527 113.4 174.086 114.249 174.425L124.747 178.672L135.244 174.425C136.094 174.086 137.079 174.527 137.419 175.377C137.758 176.226 137.351 177.177 136.501 177.517L129.197 180.472L136.501 183.428C137.351 183.768 137.758 184.753 137.419 185.602C137.079 186.452 136.094 186.859 135.244 186.52L124.747 182.273L114.249 186.52C113.4 186.859 112.414 186.452 112.075 185.602C111.735 184.753 112.143 183.768 112.992 183.428L120.296 180.472L112.992 177.517Z" fill="#A35B0F"/>
<path d="M96.4471 224.739C96.4131 224.841 94.8843 224.162 94.7145 224.094L93.7292 223.584C93.5254 223.482 92.1325 222.905 91.7248 222.735L90.3659 222.157C89.4826 221.784 89.1429 221.41 89.3128 221.036L90.3319 218.794C90.5018 218.522 90.6717 218.149 90.8755 217.741L92.4722 214.14C92.5402 213.936 92.7101 213.596 92.9479 213.053C93.1857 212.543 93.6613 211.524 94.3408 209.995L94.9523 208.738L92.2684 210.776C91.0454 211.694 90.1621 212.339 89.5506 212.747L86.459 215.091C86.3231 215.159 86.0853 215.159 85.7456 215.023C85.168 214.751 84.8963 214.547 84.8963 214.378L84.6584 210.403C84.5226 209.146 84.4546 207.991 84.4206 206.87L84.2508 203.744L83.6053 205.307L81.8047 209.655C80.0041 213.766 78.951 216.008 78.7471 216.382C78.5773 216.62 78.4414 216.756 78.3395 216.79C78.2375 216.824 78.0677 216.79 77.8978 216.688C77.0485 216.28 71.2731 213.63 71.6807 212.883C76.7427 204.356 80.0721 199.667 84.1149 190.495C84.1828 190.359 84.4206 190.359 84.8963 190.461C85.3379 190.596 86.2552 190.97 87.716 191.582C88.0557 191.752 88.3275 191.955 88.4634 192.193C88.5993 192.397 88.6333 192.737 88.5993 193.144C88.5993 195.658 88.6333 198.58 88.7692 201.842C88.8711 205.137 89.041 206.802 89.2108 206.904C89.3807 206.972 90.6717 205.986 93.1517 203.948C95.6317 201.91 97.806 200.075 99.6406 198.444C100.116 198.003 100.456 197.765 100.728 197.663C100.999 197.595 101.339 197.629 101.713 197.799C103.378 198.512 104.363 199.022 104.635 199.26C104.872 199.429 104.872 199.803 104.635 200.313L103.853 202.113L102.834 204.525C101.203 207.991 97.4323 220.187 96.4471 224.739Z" fill="#346025"/>
<path d="M73.2435 187.845C71.3071 186.112 68.5552 187.199 63.9009 192.499C62.7798 193.79 62.0664 195.047 61.7606 196.304C61.4549 197.561 61.8286 198.648 62.9157 199.599C63.867 200.449 65.022 200.652 66.313 200.177C67.638 199.701 68.7931 198.886 69.7783 197.765C72.3262 194.877 73.2775 193.28 73.855 191.616C74.3986 189.951 74.1948 188.694 73.2435 187.845ZM73.5493 202.283C72.8019 203.132 71.8506 203.982 70.6955 204.865C69.5065 205.748 68.2155 206.36 66.7886 206.768C65.7695 207.039 64.8182 207.175 63.9689 207.175C63.1196 207.175 62.1343 206.937 61.0812 206.428C60.028 205.918 58.839 205.103 57.548 203.948C57.0724 203.506 56.5628 202.861 56.0532 201.943C55.5436 201.06 55.2038 200.211 55.0679 199.429C54.8301 198.138 54.966 196.542 55.5436 194.707C56.1211 192.873 57.2422 191.038 58.8729 189.17C61.6927 185.976 63.833 183.904 65.2938 182.986C66.7886 182.103 67.8758 181.594 68.5552 181.492C69.2347 181.424 69.6764 181.356 69.8462 181.356C71.0692 181.084 72.3262 181.118 73.5493 181.39C74.7723 181.661 76.0633 182.409 77.3882 183.598C78.5433 184.617 79.3587 185.636 79.7663 186.588C80.208 187.573 80.4118 188.694 80.3779 189.985C80.3439 190.936 80.208 191.887 79.9362 192.839C79.6644 193.756 79.0189 195.013 78.0337 196.576C77.0145 198.104 75.5197 200.007 73.5493 202.283Z" fill="#346025"/>
<path d="M43.3811 179.963C44.9099 181.899 46.1669 183.462 47.1182 184.617L49.3264 182.851L52.6898 180.269L59.3485 175.003C58.7709 174.221 57.8876 173.1 56.7665 171.673C53.8788 173.916 51.3308 175.682 49.1566 177.007C46.9483 178.298 44.9779 179.215 43.1773 179.725L43.3811 179.963ZM45.7932 198.172C45.4875 198.41 44.5362 197.221 44.1625 196.712C43.8228 196.304 43.551 195.998 43.3132 195.726L41.8184 193.926C41.6145 193.62 41.8184 193.212 42.4639 192.703L44.9779 190.664L44.7401 190.359L41.003 185.636C39.2704 183.428 37.9115 181.729 36.9602 180.54L36.2468 181.118L35.5334 181.662C35.2955 181.831 34.7859 182.205 34.0046 182.817C33.6988 183.054 33.3591 182.919 32.9514 182.409L30.981 179.929C30.7092 179.589 30.0977 178.162 30.0977 177.958C30.1996 177.381 36.5865 174.323 37.6737 173.474C37.8095 173.338 38.0134 173.338 38.2172 173.474C38.455 173.61 38.6589 173.78 38.8287 174.018L39.9159 175.444C40.3236 175.376 40.6973 175.275 41.037 175.139C43.0074 174.459 44.9439 173.508 46.8804 172.251C48.7829 171.028 51.0251 169.397 53.5731 167.359L54.966 166.34C55.5775 165.898 56.155 165.49 56.6646 165.083C57.2082 164.641 57.6498 164.437 57.9216 164.437C58.2274 164.403 58.4652 164.505 58.635 164.743L60.1638 166.679L66.9245 175.309C67.1963 175.648 67.0604 176.056 66.4828 176.532L60.9452 180.914L58.3293 182.885L52.3161 187.709L50.6514 189.034L51.6026 190.257L51.8065 190.495C52.0443 190.834 52.1802 191.038 52.2141 191.208C52.2821 191.344 52.1462 191.48 51.9763 191.684C49.6662 194.299 48.1034 196.27 45.7932 198.172Z" fill="#346025"/>
<path d="M197.109 167.733L205.568 174.357C207.199 175.648 208.388 177.075 209.102 178.57C209.815 180.099 210.053 181.628 209.849 183.19C209.679 184.719 209.034 186.146 208.015 187.437C207.097 188.592 206.112 189.509 205.059 190.189C204.006 190.902 203.054 191.344 202.239 191.582C201.39 191.785 200.846 191.819 200.608 191.616C200.235 191.344 199.793 190.868 199.283 190.189C198.774 189.509 198.332 188.83 198.026 188.218C197.721 187.607 197.687 187.165 197.857 186.927C197.959 186.825 198.06 186.757 198.264 186.723C199.012 186.689 199.895 186.384 200.914 185.908C201.899 185.399 202.715 184.753 203.326 183.972C203.904 183.224 204.142 182.409 203.972 181.526C203.836 180.642 203.258 179.759 202.273 178.944C202.001 179.657 201.594 180.337 201.084 181.016C200.031 182.307 198.842 183.258 197.483 183.836C196.124 184.379 194.731 184.549 193.27 184.277C191.843 184.04 190.45 183.394 189.126 182.341L184.505 178.706L182.467 177.075C182.195 176.871 182.093 176.599 182.195 176.26C182.297 175.92 182.535 175.512 182.942 175.003C183.214 174.629 183.588 174.187 184.064 173.61C184.573 173.066 184.913 172.761 185.117 172.625C185.355 172.489 185.694 172.557 186.136 172.896L187.902 174.289C188.48 174.765 188.99 175.173 189.397 175.546L192.353 177.924C193.372 178.74 194.323 179.08 195.139 178.944C195.988 178.842 196.668 178.4 197.245 177.687C197.687 177.143 198.026 176.498 198.298 175.784L197.483 175.105L192.964 171.538C192.353 171.062 191.809 170.654 191.368 170.348C190.892 170.009 190.62 169.805 190.45 169.669L189.363 168.786C188.922 168.48 188.82 168.106 188.99 167.665C189.159 167.223 189.567 166.611 190.247 165.762C191.368 164.335 192.081 163.69 192.319 163.928L197.109 167.733Z" fill="#A35B0F"/>
<path d="M196.702 195.591C196.973 195.896 197.007 196.474 196.871 197.323C196.736 198.138 196.328 199.09 195.75 200.143C195.139 201.162 194.323 202.113 193.338 202.997C192.557 203.676 191.64 204.22 190.552 204.593C189.499 204.967 188.514 205.171 187.597 205.239C186.238 205.307 184.777 205.001 183.18 204.288C181.584 203.574 179.987 202.317 178.424 200.517C174.381 195.93 172.309 191.989 172.207 188.694C172.071 185.942 173.226 183.496 175.672 181.356C176.216 180.88 176.929 180.439 177.779 180.031C178.628 179.657 179.409 179.385 180.157 179.283C180.87 179.148 181.312 179.182 181.482 179.385C181.821 179.759 182.127 180.371 182.399 181.186C182.637 182.001 182.841 182.783 182.909 183.564C183.01 184.311 182.976 184.753 182.773 184.923C182.705 184.991 182.569 185.025 182.365 185.059C182.127 185.093 181.991 185.127 181.889 185.161C181.244 185.263 180.7 185.399 180.225 185.534C179.749 185.67 179.307 185.908 178.934 186.248C178.05 187.029 177.847 188.286 178.356 189.985C178.866 191.718 179.681 193.212 182.127 195.998C183.146 197.187 184.301 198.003 185.592 198.41C186.849 198.852 187.971 198.682 188.888 197.867C189.363 197.459 189.771 196.814 190.111 195.998C190.451 195.149 190.654 194.164 190.722 193.043C190.722 192.873 190.79 192.737 190.926 192.601C191.164 192.397 192.285 193.11 192.965 193.348C193.678 193.586 194.391 193.926 195.105 194.367C195.852 194.809 196.362 195.217 196.702 195.591Z" fill="#A35B0F"/>
<path d="M179.409 210.097C179.545 210.437 179.715 210.708 179.885 210.912C180.089 211.082 180.191 211.252 180.259 211.354C180.428 211.694 180.428 211.999 180.293 212.203C180.123 212.407 179.817 212.611 179.375 212.815L176.522 214.174L169.829 217.469L168.402 218.183C167.451 218.658 166.907 218.692 166.703 218.318L163.476 211.456L160.554 205.341L158.21 200.585L155.696 195.421C155.56 195.149 155.526 194.945 155.594 194.775C155.628 194.571 155.832 194.401 156.138 194.198C156.443 193.994 156.987 193.722 157.734 193.348L161.335 191.65C161.913 191.378 162.626 191.072 163.442 190.664C163.782 190.528 164.427 190.223 165.344 189.781L166.669 189.068L167.655 188.524C167.892 188.422 168.13 188.388 168.334 188.422C168.538 188.456 168.708 188.66 168.878 189C168.945 189.17 169.047 189.441 169.149 189.781L169.455 190.698C169.659 191.208 170.033 191.989 170.508 192.975C170.644 193.212 170.542 193.45 170.27 193.688C169.999 193.926 169.489 194.198 168.776 194.571L166.907 195.421C165.31 196.202 163.985 196.847 162.898 197.425L163.17 198.037L166.126 204.118C167.315 203.574 168.64 202.929 170.033 202.249L172.207 201.264C172.479 201.128 172.683 201.094 172.886 201.128C173.09 201.162 173.26 201.366 173.43 201.706L173.906 202.555C174.007 202.793 174.075 202.997 174.143 203.166C174.279 203.54 174.449 203.88 174.551 204.152C174.687 204.423 174.789 204.627 174.857 204.763C174.959 204.967 174.891 205.137 174.721 205.273C174.517 205.443 174.211 205.613 173.838 205.782C173.464 205.986 173.192 206.088 173.022 206.19L169.931 207.651L168.334 208.5L168.64 209.214L169.693 211.32L171.731 210.335L175.061 208.704L176.386 207.957L177.371 207.447C177.609 207.311 177.846 207.277 178.05 207.345C178.22 207.379 178.424 207.583 178.594 207.923C178.662 208.093 178.832 208.5 179.07 209.112L179.409 210.097Z" fill="#A35B0F"/>
<path d="M160.486 218.556L161.505 220.934C161.641 221.274 160.996 221.376 160.724 221.512C160.554 221.614 160.452 221.682 160.384 221.716C160.282 221.784 160.079 221.852 159.841 221.92L158.516 222.225C158.108 222.327 156.342 222.837 156.172 222.905L155.22 223.211L155.051 223.244C154.847 223.312 154.711 223.312 154.609 223.278C154.507 223.244 154.405 223.109 154.269 222.837C154.099 222.429 153.624 219.711 152.401 215.091L151.314 210.98L148.8 203.065C147.814 203.302 146.421 203.676 144.621 204.186C147.373 214.14 148.766 220.866 146.863 224.603C146.727 224.875 146.557 225.113 146.353 225.419C146.15 225.725 145.946 225.894 145.742 225.928C144.383 226.302 142.277 225.351 141.088 224.637C140.408 224.23 138.947 223.414 138.879 223.109C138.845 223.007 139.015 222.633 139.355 222.021C142.65 216.382 140.85 211.286 139.423 205.443L139.083 204.084C138.913 203.2 138.71 202.385 138.54 201.706C138.336 201.026 138.302 200.551 138.404 200.279C138.506 200.007 138.71 199.837 138.981 199.769L141.359 199.09L151.993 196.202C152.435 196.1 152.774 196.372 152.944 197.085C155.085 204.899 157.565 211.796 160.486 218.556Z" fill="#A35B0F"/>
<path d="M120.568 222.769C121.587 222.803 122.402 222.633 123.048 222.293C123.659 221.92 123.999 221.342 124.033 220.527C124.067 219.677 123.795 219.032 123.252 218.658C122.708 218.251 121.859 218.047 120.738 218.013C120.364 218.013 118.19 218.013 117.51 218.047L116.831 221.75C116.763 222.123 116.729 222.395 117.137 222.429C118.156 222.565 120.262 222.769 120.568 222.769ZM123.252 210.641C123.286 209.316 123.014 208.33 122.47 207.685C121.893 207.005 121.247 206.666 120.534 206.666C120.16 206.632 119.786 206.666 119.447 206.734L119.413 206.904L118.088 214.004L119.786 214.072C120.704 214.106 121.519 213.8 122.199 213.155C122.878 212.543 123.218 211.694 123.252 210.641ZM125.324 215.363C128.416 216.382 129.91 218.318 129.809 221.172C129.775 222.939 129.231 224.4 128.212 225.589C127.193 226.812 125.834 227.627 124.135 228.103C122.844 228.476 121.247 228.612 119.345 228.578C117.374 228.51 115.642 228.273 114.113 227.865C114.011 227.865 111.905 227.253 111.701 227.219C111.497 227.151 111.361 227.118 111.293 227.016C111.191 226.948 110.206 226.404 110.206 226.302C110.614 217.639 113.739 209.995 113.977 201.366C113.977 201.264 114.215 201.162 114.691 201.06C114.724 201.06 115.064 200.992 115.676 200.856C116.287 200.754 117.408 200.72 119.039 200.788C122.267 200.856 124.747 201.74 126.445 203.336C128.144 204.933 128.959 207.073 128.891 209.689C128.857 210.98 128.518 212.101 127.872 213.053C127.261 214.004 126.411 214.785 125.324 215.363Z" fill="#A35B0F"/>
</svg>
