<svg width="250" height="250" viewBox="0 0 250 250" fill="none" xmlns="http://www.w3.org/2000/svg">
<path fill-rule="evenodd" clip-rule="evenodd" d="M124.885 0C193.85 0 249.77 55.9197 249.77 124.885C249.77 193.85 193.85 249.77 124.885 249.77C55.8857 249.77 0 193.85 0 124.885C0 55.9197 55.8857 0 124.885 0ZM130.389 170.443C138.101 164.464 133.039 153.83 129.777 150.263C129.403 149.855 128.69 150.059 128.588 150.671C128.588 151.894 128.18 153.32 127.161 154.34C126.55 151.18 124.002 147.239 120.468 145.405C119.959 145.201 119.449 145.507 119.449 146.016C119.551 150.365 116.731 153.524 114.285 157.159C112.145 160.421 110.616 166.604 115.203 170.545C115.814 171.054 117.717 172.074 120.061 172.583C119.857 171.87 119.755 171.156 119.755 170.443C119.755 167.827 121.182 165.483 122.201 164.056C122.813 163.342 123.9 163.342 124.409 164.056C125.429 165.483 126.855 167.725 126.855 170.443C126.855 171.054 126.754 171.768 126.652 172.379C128.18 171.768 129.403 171.156 130.389 170.443ZM119.178 221.776C120.163 221.81 120.978 221.64 121.624 221.301C122.269 220.961 122.609 220.349 122.609 219.534C122.643 218.685 122.371 218.039 121.827 217.665C121.284 217.258 120.468 217.054 119.313 217.02C118.94 217.02 116.799 217.02 116.086 217.054L115.406 220.757C115.373 221.131 115.339 221.402 115.746 221.47C116.731 221.572 118.872 221.776 119.178 221.776ZM121.827 209.648C121.895 208.323 121.624 207.338 121.046 206.692C120.502 206.013 119.857 205.673 119.144 205.673C118.736 205.639 118.362 205.673 118.022 205.741V205.911L116.664 213.011L118.362 213.079C119.313 213.113 120.095 212.807 120.774 212.196C121.454 211.55 121.827 210.701 121.827 209.648ZM123.934 214.37C126.991 215.389 128.486 217.326 128.418 220.179C128.35 221.946 127.841 223.407 126.821 224.63C125.802 225.819 124.443 226.634 122.745 227.11C121.454 227.484 119.857 227.62 117.921 227.586C115.95 227.518 114.217 227.28 112.689 226.872C112.621 226.872 110.514 226.261 110.311 226.227C110.107 226.193 109.971 226.125 109.869 226.023C109.801 225.955 108.816 225.445 108.816 225.309C109.223 216.646 112.315 209.002 112.587 200.373C112.587 200.271 112.825 200.169 113.266 200.067C113.334 200.067 113.674 199.999 114.251 199.898C114.863 199.762 115.984 199.728 117.649 199.796C120.876 199.898 123.322 200.747 125.021 202.344C126.754 203.974 127.569 206.081 127.467 208.731C127.433 209.988 127.093 211.109 126.482 212.06C125.836 213.011 124.987 213.792 123.934 214.37ZM159.062 217.564L160.081 219.976C160.217 220.281 159.571 220.417 159.334 220.519C159.164 220.621 159.028 220.689 158.96 220.723C158.858 220.791 158.688 220.859 158.45 220.927L157.091 221.233C156.684 221.335 154.951 221.878 154.747 221.912L153.796 222.218L153.66 222.252C153.456 222.32 153.32 222.32 153.219 222.286C153.117 222.252 152.981 222.116 152.879 221.844C152.675 221.436 152.233 218.719 151.01 214.132L149.923 210.021L147.375 202.072C146.424 202.31 145.031 202.683 143.196 203.193C145.948 213.147 147.375 219.874 145.439 223.611C145.303 223.882 145.133 224.154 144.929 224.426C144.725 224.732 144.521 224.902 144.352 224.97C142.993 225.309 140.852 224.358 139.697 223.679C138.984 223.271 137.557 222.422 137.455 222.116C137.421 222.014 137.591 221.64 137.931 221.029C141.26 215.389 139.425 210.293 137.999 204.45L137.693 203.125C137.489 202.208 137.319 201.426 137.115 200.713C136.945 200.033 136.877 199.558 136.979 199.286C137.081 199.014 137.285 198.844 137.557 198.776L139.935 198.097L150.603 195.209C151.044 195.107 151.35 195.413 151.554 196.127C153.694 203.906 156.174 210.803 159.062 217.564ZM178.019 209.138C178.121 209.478 178.291 209.716 178.494 209.92C178.664 210.123 178.8 210.259 178.834 210.395C179.004 210.735 179.038 211.007 178.868 211.211C178.698 211.414 178.427 211.618 177.985 211.822L175.131 213.181L168.404 216.476L167.012 217.19C166.06 217.665 165.483 217.699 165.313 217.326L162.085 210.463L159.13 204.348L156.786 199.592L154.272 194.428C154.17 194.19 154.136 193.952 154.17 193.782C154.238 193.579 154.408 193.409 154.713 193.205C155.053 193.001 155.563 192.729 156.31 192.355L159.911 190.657C160.523 190.419 161.236 190.079 162.052 189.672C162.391 189.536 163.037 189.23 163.954 188.788L165.245 188.075L166.23 187.565C166.502 187.429 166.706 187.395 166.91 187.429C167.114 187.497 167.283 187.667 167.453 188.007C167.555 188.177 167.623 188.449 167.725 188.788L168.031 189.706C168.269 190.215 168.608 190.997 169.118 192.016C169.22 192.22 169.152 192.457 168.846 192.695C168.574 192.933 168.065 193.239 167.351 193.579L165.483 194.428C163.92 195.209 162.561 195.889 161.474 196.432L161.78 197.044L164.735 203.125C165.924 202.581 167.215 201.97 168.642 201.29L170.783 200.271C171.054 200.135 171.292 200.101 171.462 200.135C171.666 200.203 171.87 200.373 172.04 200.747L172.481 201.562C172.583 201.8 172.685 202.004 172.719 202.174C172.889 202.547 173.025 202.887 173.161 203.159C173.297 203.431 173.399 203.635 173.466 203.77C173.534 203.974 173.5 204.144 173.297 204.28C173.093 204.45 172.821 204.62 172.447 204.79C172.04 204.993 171.768 205.129 171.632 205.197L168.54 206.658L166.91 207.507L167.249 208.221L168.269 210.327L170.307 209.376L173.636 207.711L174.961 206.964L175.946 206.454C176.218 206.318 176.422 206.284 176.626 206.352C176.83 206.386 177 206.59 177.17 206.93C177.271 207.1 177.441 207.507 177.679 208.153L178.019 209.138ZM195.277 194.598C195.549 194.903 195.617 195.481 195.447 196.33C195.311 197.18 194.937 198.097 194.326 199.15C193.714 200.203 192.933 201.155 191.948 202.004C191.132 202.683 190.215 203.227 189.162 203.601C188.109 203.974 187.09 204.178 186.172 204.246C184.847 204.314 183.387 204.008 181.79 203.295C180.159 202.615 178.596 201.358 177 199.524C172.991 194.937 170.918 190.997 170.783 187.701C170.681 184.949 171.836 182.503 174.248 180.363C174.825 179.887 175.505 179.446 176.388 179.072C177.237 178.664 178.019 178.427 178.732 178.291C179.446 178.155 179.921 178.189 180.091 178.393C180.397 178.766 180.703 179.378 180.975 180.193C181.246 181.008 181.416 181.824 181.518 182.571C181.62 183.319 181.552 183.76 181.348 183.93C181.28 183.998 181.144 184.032 180.941 184.066C180.737 184.134 180.567 184.134 180.465 184.168C179.853 184.27 179.276 184.406 178.8 184.542C178.325 184.678 177.917 184.915 177.509 185.255C176.626 186.036 176.456 187.294 176.966 188.992C177.441 190.725 178.291 192.22 180.703 195.005C181.756 196.194 182.911 197.01 184.168 197.451C185.459 197.859 186.546 197.689 187.463 196.874C187.939 196.466 188.347 195.855 188.686 195.005C189.026 194.156 189.264 193.171 189.332 192.05C189.332 191.88 189.4 191.744 189.502 191.608C189.774 191.404 190.895 192.152 191.574 192.355C192.254 192.593 192.967 192.933 193.714 193.375C194.428 193.816 194.971 194.224 195.277 194.598ZM195.685 166.74L204.178 173.399C205.809 174.656 206.964 176.082 207.677 177.611C208.391 179.14 208.663 180.669 208.459 182.198C208.255 183.726 207.643 185.153 206.59 186.478C205.707 187.599 204.722 188.517 203.669 189.23C202.615 189.909 201.664 190.385 200.815 190.589C199.965 190.827 199.422 190.827 199.184 190.657C198.844 190.351 198.403 189.875 197.859 189.196C197.35 188.517 196.942 187.837 196.636 187.226C196.33 186.614 196.262 186.172 196.466 185.935C196.534 185.833 196.67 185.765 196.84 185.731C197.621 185.697 198.505 185.425 199.49 184.915C200.475 184.406 201.29 183.76 201.902 182.979C202.479 182.232 202.717 181.416 202.581 180.533C202.445 179.65 201.868 178.8 200.849 177.951C200.577 178.664 200.203 179.344 199.66 180.023C198.641 181.348 197.417 182.265 196.059 182.843C194.7 183.387 193.307 183.556 191.88 183.319C190.419 183.047 189.026 182.401 187.701 181.348L183.115 177.713L181.042 176.116C180.771 175.879 180.703 175.607 180.805 175.267C180.907 174.927 181.144 174.52 181.518 174.01C181.79 173.636 182.164 173.195 182.673 172.651C183.183 172.074 183.522 171.768 183.692 171.666C183.964 171.496 184.304 171.564 184.712 171.904L186.478 173.297C187.056 173.772 187.565 174.18 188.007 174.554L190.963 176.932C191.982 177.747 192.899 178.087 193.748 177.985C194.564 177.849 195.277 177.407 195.821 176.694C196.262 176.15 196.636 175.505 196.908 174.791L196.059 174.112L191.54 170.545C190.963 170.069 190.419 169.661 189.943 169.356C189.502 169.016 189.196 168.812 189.06 168.71L187.939 167.827C187.531 167.487 187.395 167.114 187.565 166.672C187.735 166.298 188.075 165.789 188.584 165.075C190.657 161.338 191.506 156.446 192.152 152.369C191.132 151.554 190.181 150.976 189.196 151.01C183.76 151.248 182.265 144.997 183.658 142.721C186.716 137.659 188.143 147.885 190.997 145.88C191.812 145.269 192.695 145.167 193.579 145.235C195.719 137.897 197.044 130.219 197.519 123.39C197.18 123.152 196.942 123.118 196.67 123.084C196.228 122.982 195.719 122.881 195.005 122.473C189.502 119.245 187.735 119.245 180.907 119.245H180.635C179.684 119.245 178.63 119.517 177.577 119.925C176.524 120.333 175.471 120.944 174.588 121.59C174.961 122.303 175.437 123.05 176.014 123.798C176.558 124.511 177.17 125.157 177.883 125.768C178.664 125.395 179.48 124.919 180.329 124.341C182.707 122.779 186.546 124.511 188.958 125.021C190.861 125.395 190.283 128.758 187.056 129.981C182.809 131.544 184.304 134.363 181.994 136.096C180.295 137.353 177.136 134.941 172.753 139.629C167.929 144.725 157.024 140.818 156.276 134.465C155.97 132.223 149.855 131.849 152.947 127.501C153.592 126.584 148.904 123.492 147.443 120.604C145.643 117.003 151.86 118.09 152.301 117.207C154.781 111.941 156.956 113.708 158.586 116.018C159.504 117.309 159.232 118.94 161.202 119.211C162.765 119.415 164.226 118.634 165.619 119.823C166.06 119.653 166.502 119.449 166.876 119.313C167.317 119.144 167.657 119.008 167.827 118.974C169.152 118.498 170.409 118.396 171.496 118.396C168.574 114.999 164.192 121.148 164.192 112.383C164.192 103.584 163.037 109.801 160.964 104.705C160.285 103.108 165.924 98.5898 166.706 98.1142C172.006 95.0227 166.162 90.0966 174.689 87.7524C179.208 86.4954 180.023 83.6757 181.348 83.234C181.994 83.0302 182.571 82.8603 183.115 82.6904C182.333 81.8751 181.586 81.0597 180.873 80.2784C179.004 78.9194 176.66 77.7983 174.248 76.949C170.952 75.726 167.589 75.0465 165.211 74.8427C163.309 75.624 159.979 76.3714 158.043 76.8471C157.295 77.0169 156.786 77.1189 156.752 77.1189C154.272 78.0022 151.044 78.1041 148.462 77.4926C147.851 77.3227 147.273 77.1528 146.73 76.915C145.982 78.0022 144.997 79.6668 143.162 82.2488C138.916 88.262 134.907 83.4718 131.51 86.0877C130.796 86.6313 128.112 86.9031 125.598 89.0434C124.375 90.0626 122.201 88.8056 120.876 87.8883C119.993 87.3108 120.265 87.1069 120.095 86.5294C119.585 84.7628 118.464 82.5545 122.609 81.6033C131.714 79.463 118.328 65.6699 133.616 61.6271C138.236 60.4041 136.164 54.1531 139.527 51.9788C145.065 48.3776 144.895 52.8961 150.161 50.0084C151.995 48.9892 153.151 45.456 156.616 47.8001C160.149 50.2122 162.289 47.0187 165.279 48.5135C167.249 49.4988 165.245 55.3761 171.292 54.5607C174.282 54.1531 174.146 53.5755 177.611 55.8857C181.892 58.7394 183.522 61.7291 177.373 62.8502C174.757 63.3258 169.729 63.5296 171.394 68.0141C172.175 70.1204 167.997 68.6935 164.362 68.1839C164.362 69.2371 164.498 70.2223 164.837 71.0037C165.109 71.6832 165.517 72.1928 166.06 72.4306C166.298 72.5325 166.57 72.6004 166.91 72.6004V72.6344C169.288 72.9741 172.209 73.6536 175.063 74.7068C177.917 75.726 180.737 77.1189 182.911 78.8515L182.945 78.8175C183.013 78.8855 183.081 78.9534 183.149 79.0213C183.217 79.0553 183.285 79.1233 183.319 79.1572V79.1912C184.338 80.1425 185.289 81.0937 186.206 82.045C186.546 82.011 186.886 82.011 187.192 82.045C186.682 79.463 186.546 77.0169 186.92 74.7068C187.124 73.3478 187.497 72.0569 188.075 70.7999C187.701 69.7807 186.954 67.6743 186.444 65.2962C184.746 64.4129 183.421 62.3066 183.76 60.6419C184.813 55.478 181.892 57.1087 179.378 54.4588C176.524 51.4012 172.753 52.7602 172.651 51.5711C172.345 47.5623 181.212 50.5859 182.979 47.5283C185.799 42.6022 191.166 46.3053 193.816 46.9847C200.169 48.6494 198.369 57.9241 203.329 57.7542C209.07 57.5843 212.773 62.2726 212.366 67.0289C211.924 71.887 213.487 70.5621 214.132 72.6344C215.695 77.6285 211.89 77.8323 211.89 79.5989C211.89 80.6521 216.307 84.1513 212.298 83.5058C208.764 82.9282 206.76 78.6816 205.027 75.2503L204.824 75.1824C202.581 74.3331 195.005 71.4454 190.011 72.3626C189.638 73.2459 189.4 74.1292 189.264 75.0465C188.89 77.4246 189.128 80.0405 189.808 82.7924C190.657 83.268 191.574 83.9135 192.695 84.7968C192.729 84.7968 199.524 82.8603 198.097 86.2916C195.889 91.6933 196.976 89.6889 193.341 91.1497C194.224 92.5766 195.039 94.0035 195.787 95.4303C196.466 95.4643 197.078 95.0906 198.674 91.6933C199.999 88.9075 204.042 88.228 206.59 89.2812C210.803 91.0138 214.778 82.9282 220.485 90.1985C222.286 92.5087 221.844 95.0906 227.246 95.6002C229.216 95.804 230.371 97.3668 229.59 99.5411C227.586 105.045 235.875 105.045 235.875 112.892C235.875 115.033 231.968 118.362 232.206 123.866C232.274 125.089 229.726 129.607 227.518 123.628C226.023 119.653 221.47 124.749 221.267 119.891C221.199 117.853 220.995 116.494 220.655 115.508C218.005 115.033 215.865 114.387 213.996 113.844C211.958 113.232 210.259 112.757 208.731 112.723C207.507 113.606 206.488 114.591 205.605 115.61C203.736 117.785 202.412 120.163 201.29 122.609C201.29 123.356 201.29 124.104 201.256 124.851C203.023 124.919 204.45 125.157 205.605 125.802C207.372 126.787 208.289 128.486 208.459 131.646C210.973 133.106 212.196 132.699 213.487 132.257C215.016 131.714 216.612 131.17 219.33 132.155C219.5 132.053 219.67 131.917 219.84 131.782C223.679 129.234 223.679 129.879 226.532 131.985C230.473 134.941 231.866 132.121 234.754 133.548C239.442 135.892 232.783 141.532 232.342 143.298C229.25 155.325 219.16 148.089 216.918 152.131C215.117 155.359 208.289 158.994 205.503 156.038C203.057 153.456 200.407 157.567 197.384 156.106C197.078 155.936 196.772 155.8 196.466 155.631C195.923 159.266 195.345 163.207 194.971 166.162L195.685 166.74ZM41.9567 178.97C43.4855 180.907 44.7425 182.469 45.6938 183.624L47.936 181.892L51.2993 179.276L57.958 174.01C57.3465 173.229 56.4972 172.108 55.3421 170.681C52.4544 172.923 49.9404 174.689 47.7322 176.014C45.5579 177.305 43.5535 178.223 41.7869 178.732L41.9567 178.97ZM44.3688 197.214C44.0631 197.451 43.1458 196.228 42.7381 195.719C42.4324 195.311 42.1606 195.005 41.9228 194.734L40.4279 192.933C40.1901 192.627 40.394 192.22 41.0395 191.744L43.5874 189.672L43.3496 189.366L39.6126 184.644C37.846 182.435 36.4871 180.737 35.5358 179.582L34.8224 180.125L34.1429 180.669C33.8711 180.839 33.3615 181.246 32.6141 181.824C32.3084 182.062 31.9347 181.926 31.527 181.416L29.5905 178.936C29.3188 178.596 28.6733 177.17 28.7072 177C28.7752 176.388 35.1621 173.331 36.2493 172.481C36.4191 172.345 36.589 172.345 36.8268 172.481C37.0306 172.617 37.2345 172.787 37.4043 173.025L38.4915 174.452C38.9331 174.384 39.3068 174.282 39.6466 174.146C41.617 173.466 43.5535 172.515 45.456 171.258C47.2905 170.069 49.3968 168.54 51.8089 166.672C55.6479 162.255 48.8872 156.14 47.0187 153.185C40.1562 153.796 34.1769 155.97 26.6689 163.207C27.9598 154.611 27.5861 147.579 39.2389 137.251C28.9111 137.047 27.1105 142.143 21.0973 147.273C18.5833 131.238 28.9111 115.339 43.5195 112.757C33.7013 109.427 25.4458 114.251 18.7871 120.197C23.6453 87.7864 53.8473 87.8543 51.7749 87.4127C47.5623 86.2236 43.0778 86.4954 38.7293 87.4467C33.0898 88.6357 27.6541 90.9799 23.2036 92.8484C30.3379 78.3759 44.8784 66.5532 70.0525 65.1943C63.9713 59.317 45.0823 65.534 45.0823 65.534C54.5268 51.4692 85.4083 47.2905 102.836 50.2462C99.677 53.9153 93.2561 71.6492 96.1438 78.3079C93.7996 79.0893 87.6165 76.7791 87.4467 71.7171C85.1705 79.6329 88.8056 85.1365 94.3772 91.0478C85.3064 92.5426 81.2636 91.0478 78.2739 87.005C78.0701 96.0079 82.8603 103.006 96.4835 103.992C88.5678 110.48 80.1764 111.805 74.6048 108.782C76.3714 114.727 85.1705 122.745 96.6534 120.536C93.6637 125.225 87.5826 133.752 78.6476 131.883C82.5206 136.844 89.2812 139.833 98.8616 140.139C86.1557 155.766 73.178 156.99 61.9329 155.053C56.9389 143.944 54.5268 127.739 57.7542 113.98C63.2918 90.2664 80.1085 68.4557 86.4275 60.506C33.2257 113.538 55.1723 159.368 61.8989 169.695L65.5001 174.316C65.8058 174.689 65.636 175.097 65.0584 175.539L59.5208 179.921L56.9389 181.892L50.9256 186.716L49.227 188.041L50.2122 189.298L50.3821 189.536C50.6538 189.841 50.7897 190.079 50.8237 190.215C50.8577 190.351 50.7558 190.487 50.5859 190.691C48.2757 193.307 46.679 195.311 44.3688 197.214ZM71.853 186.886C69.8826 185.119 67.1647 186.206 62.5104 191.506C61.3554 192.797 60.6419 194.054 60.3362 195.311C60.0644 196.568 60.4381 197.655 61.4912 198.607C62.4765 199.49 63.5976 199.66 64.9225 199.184C66.2135 198.708 67.3686 197.893 68.3878 196.772C70.9018 193.884 71.887 192.288 72.4306 190.623C73.0081 188.958 72.8043 187.701 71.853 186.886ZM72.1248 201.29C71.3774 202.14 70.4262 202.989 69.2711 203.872C68.116 204.756 66.825 205.401 65.3981 205.775C64.379 206.047 63.4277 206.183 62.5784 206.183C61.6951 206.183 60.7438 205.945 59.6907 205.435C58.6035 204.959 57.4485 204.11 56.1235 202.955C55.6479 202.513 55.1383 201.868 54.6287 200.951C54.1191 200.067 53.8133 199.218 53.6774 198.437C53.4057 197.146 53.5755 195.549 54.1531 193.714C54.7306 191.88 55.8177 190.045 57.4485 188.177C60.2682 184.983 62.4085 182.945 63.9033 182.028C65.3642 181.11 66.4513 180.601 67.1308 180.533C67.8102 180.431 68.2519 180.363 68.4218 180.363C69.6788 180.125 70.9018 180.125 72.1248 180.397C73.3818 180.703 74.6388 181.416 75.9638 182.605C77.1528 183.658 77.9342 184.644 78.3759 185.595C78.8175 186.58 78.9874 187.701 78.9534 188.992C78.9534 189.943 78.7835 190.895 78.5118 191.846C78.24 192.763 77.5945 194.02 76.6093 195.583C75.624 197.112 74.1292 199.048 72.1248 201.29ZM95.0566 223.747C95.0227 223.849 93.4939 223.169 93.324 223.101L92.3048 222.625C92.101 222.524 90.7081 221.912 90.3344 221.742L88.9415 221.165C88.0922 220.791 87.7524 220.417 87.8883 220.044L88.9415 217.835C89.1113 217.53 89.2812 217.156 89.4511 216.748L91.0478 213.147C91.1497 212.943 91.2856 212.603 91.5574 212.06C91.7952 211.55 92.2369 210.531 92.9163 209.002L93.5278 207.745L90.844 209.784C89.6549 210.701 88.7376 211.346 88.1601 211.754L85.0686 214.098C84.8987 214.2 84.6609 214.166 84.3551 214.03C83.7776 213.759 83.5058 213.555 83.5058 213.385L83.234 209.444C83.1321 208.187 83.0302 206.998 82.9962 205.877L82.8263 202.751L82.1808 204.314L80.4142 208.663C78.5797 212.807 77.5605 215.049 77.3227 215.423C77.1528 215.627 77.0169 215.763 76.915 215.797C76.8131 215.831 76.6772 215.797 76.5073 215.695C75.624 215.287 69.8486 212.637 70.2903 211.924C75.3183 203.363 78.6476 198.674 82.7244 189.536C82.7584 189.366 83.0302 189.366 83.4718 189.468C83.9135 189.604 84.8647 189.977 86.2916 190.623C86.6653 190.759 86.9031 190.963 87.039 191.2C87.1749 191.404 87.2428 191.744 87.2089 192.152C87.1749 194.666 87.2089 197.587 87.3447 200.849C87.4806 204.144 87.6165 205.843 87.7864 205.911C87.9563 205.979 89.2812 204.993 91.7612 202.955C94.2073 200.917 96.3816 199.082 98.2161 197.451C98.6918 197.044 99.0655 196.772 99.3372 196.704C99.609 196.602 99.9148 196.636 100.288 196.806C101.953 197.553 102.938 198.029 103.244 198.267C103.482 198.471 103.482 198.81 103.244 199.32L102.463 201.121L101.41 203.533C99.7789 206.998 96.0419 219.194 95.0566 223.747ZM111.602 176.558C110.752 176.218 110.311 175.233 110.684 174.384C111.024 173.534 111.975 173.127 112.825 173.466L123.322 177.713L133.854 173.466C134.703 173.127 135.654 173.534 135.994 174.384C136.368 175.233 135.926 176.184 135.077 176.558L127.773 179.48L135.077 182.435C135.926 182.775 136.368 183.76 135.994 184.61C135.654 185.459 134.703 185.867 133.854 185.527L123.322 181.28L112.825 185.527C111.975 185.867 111.024 185.459 110.684 184.61C110.311 183.76 110.752 182.775 111.602 182.435L118.906 179.48L111.602 176.558ZM152.879 74.9786C150.738 74.9446 149.583 74.8766 148.768 75.1144C148.836 75.1144 148.938 75.1484 149.006 75.1824C151.18 75.692 153.898 75.5901 155.97 74.8766C156.072 74.8427 156.65 74.7068 157.499 74.5029C159.368 74.0953 162.629 74.0273 163.818 73.7555C163.309 73.2459 162.901 72.6004 162.629 71.887C162.153 70.7659 161.984 69.4409 161.984 68.048C161.27 68.082 160.659 68.2179 160.217 68.5237C159.979 68.6596 153.66 74.9786 152.879 74.9786ZM206.047 142.177C206.047 142.211 206.013 142.245 205.979 142.279C206.964 140.139 208.119 137.285 208.391 134.296C211.109 135.586 212.637 135.043 214.268 134.499C215.151 134.194 216.069 133.888 217.394 134.092C216.544 135.281 216.239 136.198 214.438 136.776C212.671 137.353 206.862 141.056 206.047 142.177ZM203.397 142.211C202.004 141.973 200.271 142.109 198.539 144.589L198.471 144.691C200.271 138.542 200.951 132.767 201.188 127.229C202.581 127.297 203.702 127.467 204.45 127.875C205.503 128.452 206.047 129.743 206.115 132.359H206.047C206.318 135.926 204.552 139.799 203.397 142.211ZM170.918 125.021C170.715 126.38 172.209 127.603 175.437 126.72C174.961 126.244 174.52 125.768 174.112 125.259C172.889 123.662 172.074 121.963 171.598 120.774C170.681 120.774 169.628 120.842 168.642 121.182C168.54 121.216 168.201 121.352 167.725 121.522L167.215 121.725C168.778 122.507 172.855 121.59 170.918 125.021ZM186.75 97.5027C187.158 96.4156 187.599 95.1925 189.298 94.615C190.249 94.2753 190.521 93.29 191.37 92.3728C192.118 93.5278 192.797 94.6829 193.375 95.838C190.215 97.3328 191.778 98.2841 194.462 98.5219C196.432 103.89 197.553 109.971 197.689 116.765C197.723 118.056 197.689 119.449 197.655 120.842C197.485 120.808 197.316 120.774 197.146 120.74C196.874 120.672 196.602 120.638 196.228 120.401C194.224 119.245 192.695 118.464 191.268 117.954C190.895 115.474 189.604 107.525 189.23 106.913C188.754 106.098 188.177 105.181 187.701 104.433C186.852 103.074 186.512 102.497 186.41 102.157C186.376 101.953 186.41 101.681 186.478 101.206C186.58 100.458 186.716 99.3712 186.75 97.5027ZM176.524 117.785C176.728 117.207 176.83 116.494 176.83 115.644C176.728 113.096 178.053 113.232 175.879 110.107C177.645 108.408 179.276 107.355 180.907 106.675C182.503 106.064 184.1 105.826 185.799 105.826C186.104 106.336 186.512 107.015 187.226 108.136C187.327 108.34 188.279 114.217 188.754 117.241C186.682 116.867 184.406 116.867 180.907 116.867H180.635C179.378 116.867 178.019 117.173 176.694 117.717L176.524 117.785ZM178.087 105.418C178.325 105.079 178.494 104.739 178.562 104.297C178.596 104.161 182.164 101.647 184.202 100.288C184.168 100.526 184.134 100.696 184.1 100.866C183.998 101.647 183.964 102.089 184.1 102.701C184.168 102.972 184.27 103.21 184.406 103.482C182.911 103.618 181.484 103.89 180.023 104.467C179.378 104.739 178.732 105.045 178.087 105.418ZM212.4 102.055C211.245 101.342 210.531 100.968 210.089 100.662C209.954 101.545 209.988 102.565 210.055 103.652C210.089 105.35 210.157 107.219 209.75 109.155C210.769 108.544 211.856 107.966 213.045 107.457C212.603 105.011 215.491 103.924 212.4 102.055ZM208.697 97.5367L208.595 97.129C208.119 95.5323 204.314 95.5323 202.174 97.129C201.121 97.9104 199.184 98.352 197.248 98.5219C199.864 104.603 201.121 110.854 201.256 117.105V117.547C202.004 116.358 202.819 115.169 203.804 114.048C204.484 113.3 205.197 112.553 206.013 111.873C207.881 109.223 207.745 106.268 207.677 103.72C207.575 101.308 207.507 99.1674 208.697 97.5367ZM216.986 112.247C216.103 111.737 215.117 111.024 214.098 109.597C213.249 109.971 212.468 110.345 211.72 110.752C212.637 110.956 213.623 111.262 214.642 111.568C215.389 111.771 216.171 112.009 216.986 112.247ZM188.958 65.636C190.521 65.3642 191.608 65.2962 192.423 65.3981C191.336 66.2814 190.419 67.2327 189.672 68.1839C189.434 67.4705 189.196 66.5872 188.958 65.636ZM194.666 66.6552C195.379 67.5045 196.093 68.6256 198.403 69.5768C200.271 70.3582 201.087 68.9313 203.227 72.0569C200.203 71.0377 195.481 69.6788 191.438 69.8486C192.254 68.7275 193.341 67.6404 194.666 66.6552ZM116.664 76.6432C118.192 78.3419 119.959 79.429 122.405 79.6668L122.269 65.3981L116.664 76.6432ZM122.405 79.9046C122.337 79.9046 122.269 79.9386 122.201 79.9386C118.804 80.754 117.377 82.5206 118.226 85.9519C118.634 87.5826 117.988 87.8883 119.144 88.7376C121.114 90.1985 124.375 92.3048 126.686 90.3344C127.637 89.553 128.656 89.0094 129.811 88.5678C130.66 88.262 131.883 87.9563 132.563 87.4467C133.582 86.6653 134.975 86.9371 136.606 87.073H136.64H136.674L136.742 87.1069H136.776H137.047H137.149H137.183L137.217 87.1409H137.251H137.353H137.455H137.489H137.523H137.557H137.591H137.625H137.659H137.727H137.795H137.863H137.897H137.965H137.999H138.202L151.86 114.523L151.758 114.693L151.724 114.727V114.761H151.69V114.795L151.656 114.829V114.863H151.622V114.897L151.588 114.931V114.965H151.554V114.999L151.52 115.033V115.067L151.486 115.101V115.135H151.452V115.169L151.418 115.203V115.237H151.384V115.271V115.305H151.35V115.339L151.316 115.373V115.406L151.282 115.44V115.474H151.248V115.508V115.542H151.214V115.576V115.61H151.18V115.644V115.678H151.146V115.712L151.112 115.746V115.78L151.078 115.814V115.848H151.044V115.882V115.916H151.01H150.976H150.942H150.908H150.874L150.84 115.95H150.806H150.772H150.738H150.705H150.671H150.637H150.603L150.569 115.984H150.535H150.501H150.467H150.433H150.399H150.365H150.331H150.297L150.263 116.018H150.229H150.195H150.161H150.127H150.093H150.059H150.025H149.991L149.923 116.052H149.889H149.855H149.821H149.787H149.753C149.617 116.052 149.515 116.086 149.38 116.086C148.089 116.29 146.662 116.664 145.88 117.853C145.167 118.974 145.371 120.231 145.948 121.352C146.492 122.507 147.375 123.526 148.258 124.443C148.768 124.987 150.365 126.448 151.078 127.263C149.583 129.879 150.501 131.951 153.049 133.65C153.32 133.854 154.374 134.465 154.577 134.771C155.155 138.984 158.994 142.109 163.342 143.196L163.376 143.23L163.614 143.264H163.648L163.784 143.298L163.818 143.332H163.852H163.92H163.954L164.056 143.366H164.09L164.124 143.4H164.192H164.26L164.328 143.434H164.362H164.396H164.464H164.498L164.532 143.468H164.599H164.633H164.667H164.701L164.769 143.502H164.803H164.939L164.973 143.536H165.041H165.075L165.245 143.57H165.313C165.619 143.604 165.89 143.604 166.196 143.638H166.4L176.592 164.022C167.725 169.356 157.091 173.976 144.25 177.271C144.25 177.271 143.061 162.493 137.931 151.792C132.801 141.124 126.346 138.372 123.322 138.372C120.333 138.372 113.878 141.124 108.748 151.792C103.618 162.493 102.429 177.271 102.429 177.271C89.9946 173.976 79.5649 169.458 70.3582 164.022L73.4158 157.907L73.8574 157.873H73.8914H73.9594L74.401 157.805C84.6948 156.48 93.1541 150.908 100.73 141.634C101.308 140.92 101.41 140.003 101.036 139.154C100.662 138.304 99.8808 137.795 98.9635 137.761C95.1246 137.659 90.9799 137.047 87.3447 135.485C87.005 135.349 86.6653 135.179 86.3256 135.043V135.009L86.1557 134.941L86.1217 134.907C86.0198 134.873 85.9179 134.805 85.816 134.771L85.782 134.737H85.748L85.714 134.703L85.5781 134.635H85.5442L85.5102 134.601H85.4762L85.3743 134.533L85.3403 134.499L85.2044 134.431L85.1705 134.397L85.4423 133.888C85.6121 133.82 85.782 133.752 85.9519 133.684L86.2236 133.582C86.9031 133.344 87.5826 133.039 88.228 132.665C92.5426 130.287 95.9739 126.04 98.6578 121.793C99.1674 120.978 99.1334 119.993 98.5898 119.178C98.0463 118.396 97.129 118.022 96.1777 118.192L95.906 118.26H95.872H95.838H95.7701H95.7021L95.6342 118.294H95.6002H95.5662H95.5323H95.4983L95.4643 118.328H95.4303H95.3284H95.2605L95.1925 118.362H95.1246H95.0906H95.0566H95.0227L94.9547 118.396H94.9207H94.8868H94.7848H94.7169L94.6829 118.43H94.649H94.615H94.581H94.5131H94.4791H94.4111L94.3432 118.464H94.3092H94.2753H94.2073H94.1733H94.1394H94.1054H93.9695H93.9355L93.6637 118.498H93.6298H93.5278H93.4939H93.392H93.29H93.2561H93.1541H93.1202L98.318 108.136L122.031 60.54L103.108 22.6261C102.802 22.0485 103.04 21.3011 103.618 21.0293C104.229 20.7236 104.943 20.9614 105.215 21.5729L122.167 55.478L121.827 20.4178C121.827 19.7384 122.337 19.2288 122.982 19.1948C123.662 19.1948 124.206 19.7384 124.206 20.3838L124.545 55.478L141.464 21.5729C141.736 20.9614 142.449 20.7236 143.061 21.0293C143.638 21.3011 143.876 22.0485 143.57 22.6261L124.681 60.506L126.312 63.7674C125.7 64.4809 125.225 65.2623 124.851 66.1795L124.647 65.7719V66.6552C124.172 68.048 123.968 69.6108 124.036 71.4454C124.104 73.178 124.851 77.4246 124.036 78.8515C123.798 79.2592 123.424 79.497 123.016 79.7008H122.982H122.949V79.7348H122.915H122.881H122.847V79.7688H122.813H122.779L122.745 79.8027H122.711H122.677V79.8367H122.643H122.609H122.575L122.541 79.8707H122.507H122.473H122.439V79.9046H122.405ZM119.347 102.293C118.668 102.259 118.158 101.681 118.192 101.036C118.226 100.39 118.804 99.8808 119.449 99.9148C120.808 99.9827 122.167 100.017 123.458 100.017C124.817 100.051 126.142 100.017 127.501 99.9827C128.146 99.9488 128.69 100.458 128.724 101.104C128.724 101.783 128.214 102.327 127.569 102.361C126.21 102.395 124.851 102.429 123.458 102.395C122.065 102.395 120.672 102.361 119.347 102.293ZM114.319 112.349C113.64 112.281 113.164 111.669 113.266 111.024C113.334 110.378 113.912 109.903 114.557 109.971C117.547 110.311 120.536 110.48 123.492 110.48C126.482 110.514 129.437 110.378 132.393 110.107C133.072 110.039 133.65 110.548 133.684 111.194C133.752 111.839 133.276 112.417 132.631 112.485C129.573 112.757 126.516 112.892 123.492 112.859C120.401 112.859 117.343 112.655 114.319 112.349ZM109.02 122.065C108.374 121.963 107.932 121.352 108.034 120.706C108.136 120.061 108.748 119.619 109.393 119.721C114.082 120.502 118.736 120.91 123.39 120.944C128.011 120.978 132.665 120.672 137.319 119.959C137.965 119.857 138.576 120.333 138.678 120.978C138.78 121.624 138.338 122.235 137.659 122.337C132.937 123.05 128.146 123.356 123.356 123.322C118.566 123.288 113.81 122.847 109.02 122.065Z" fill="#F3EFE5"/>
</svg>
