<svg width="28" height="30" viewBox="0 0 28 30" fill="none" xmlns="http://www.w3.org/2000/svg">
<path d="M17.1499 0C19.1421 0 20.9219 0.432129 22.4893 1.29639C24.0713 2.16064 25.3018 3.36182 26.1807 4.8999C27.0742 6.42334 27.521 8.14453 27.521 10.0635C27.521 12.085 27.0815 13.8794 26.2026 15.4468C25.3237 16.9995 24.1006 18.208 22.5332 19.0723C20.9805 19.9219 19.2153 20.3467 17.2378 20.3467H10.0308V29.8828H4.55957V0H17.1499ZM16.9741 15.4688C17.9116 15.4688 18.7686 15.2344 19.5449 14.7656C20.3213 14.2822 20.9292 13.6304 21.3687 12.8101C21.8228 11.9897 22.0498 11.0742 22.0498 10.0635C22.0498 9.15527 21.8228 8.30566 21.3687 7.51465C20.9146 6.72363 20.292 6.08643 19.501 5.60303C18.7246 5.11963 17.8677 4.87793 16.9302 4.87793H10.0308V15.4688H16.9741Z" fill="#346025"/>
<rect y="15.8828" width="11" height="4" fill="#346025"/>
<rect y="22.8828" width="19" height="4" fill="#346025"/>
</svg>
