<svg width="2984" height="176" viewBox="0 0 2984 176" fill="none" xmlns="http://www.w3.org/2000/svg">
<path fill-rule="evenodd" clip-rule="evenodd" d="M2984 53.7975C2980.65 53.9672 2977.29 54.1411 2973.94 54.3193C2904.73 57.9974 2835.62 63.3354 2766.99 73.1064C2713.61 80.7054 2660.41 89.5824 2607.25 98.5644C2593.74 100.846 2580.26 103.293 2566.78 105.74C2529.83 112.449 2492.88 119.156 2455.4 122.456C2442.32 123.608 2429.13 124.422 2416.14 121.139C2410.67 119.757 2407.3 116.493 2405.54 111.019C2401.35 97.9944 2405.08 87.7004 2418.76 82.3973C2430.9 77.6963 2443.86 74.8674 2456.67 72.2494C2465.71 70.4023 2474.81 68.9086 2483.92 67.4149C2492.38 66.0272 2500.84 64.6395 2509.25 62.9684C2518.05 61.2164 2526.61 58.0624 2532.98 51.0793C2540.02 43.3454 2538.79 33.4134 2529.28 29.1963C2521.65 25.8113 2513.28 23.4544 2505 22.2454C2476.45 18.0754 2447.79 20.0144 2419.22 22.4224C2377.38 25.9474 2335.92 32.4144 2294.71 40.3083C2206.54 57.1924 2119.75 79.6324 2034.88 108.781C1966.78 132.169 1897.24 146.259 1825.22 147.81C1763.53 149.139 1702.42 142.89 1641.77 132.451C1593.98 124.227 1546.34 115.098 1498.71 105.97C1492.91 104.858 1487.11 103.747 1481.32 102.637C1411.5 89.2774 1341.59 76.3774 1270.73 70.0454C1220.14 65.5244 1169.43 62.0694 1118.71 59.3334C1059.96 56.1634 1001.13 55.8664 942.309 58.0533C893.664 59.8624 845.216 63.9004 797.097 71.3213C732.913 81.2203 670.411 97.4454 610.216 122.056C607.563 123.141 606.048 122.627 604.146 120.755C588.979 105.829 571.805 93.4933 553.377 83.0144C485.202 44.2454 411.904 20.0414 334.541 8.43738C276.146 -0.321595 217.274 -0.738648 158.511 3.71136C126.199 6.1582 93.9842 9.9599 61.7806 13.7604C54.7895 14.5854 47.7989 15.4103 40.808 16.2214C31.4139 17.3115 22.0953 19.0504 12.7766 20.7892C8.52013 21.5836 4.26365 22.3779 0 23.1104V175.003C994.667 175.003 1989.33 175.003 2984 175.002V53.7975Z" fill="#F3EFE5"/>
</svg>
