<svg width="5760" height="312" viewBox="0 0 5760 312" fill="none" xmlns="http://www.w3.org/2000/svg">
<g clip-path="url(#clip0_35_70)">
<path fill-rule="evenodd" clip-rule="evenodd" d="M0 160.107C13.598 157.771 27.123 154.806 40.808 153.218C80.002 148.671 119.184 143.686 158.511 140.708C217.274 136.258 276.146 136.675 334.541 145.434C411.904 157.038 485.202 181.242 553.377 220.011C571.805 230.49 588.979 242.826 604.146 257.752C606.048 259.624 607.563 260.138 610.216 259.053C670.411 234.442 732.913 218.217 797.097 208.318C845.216 200.897 893.664 196.859 942.309 195.05C1001.13 192.863 1059.96 193.16 1118.71 196.33C1169.43 199.066 1220.14 202.521 1270.73 207.042C1341.59 213.374 1411.5 226.274 1481.32 239.634C1534.75 249.858 1588.16 260.222 1641.77 269.448C1702.42 279.887 1763.53 286.136 1825.22 284.807C1897.24 283.256 1966.78 269.166 2034.88 245.778C2119.75 216.629 2206.54 194.189 2294.71 177.305C2335.92 169.411 2377.38 162.944 2419.22 159.419C2447.79 157.011 2476.45 155.072 2505 159.242C2513.28 160.451 2521.65 162.808 2529.28 166.193C2538.79 170.41 2540.02 180.342 2532.98 188.076C2526.61 195.059 2518.05 198.213 2509.25 199.965C2491.8 203.435 2474.1 205.683 2456.67 209.246C2443.86 211.864 2430.9 214.693 2418.76 219.394C2405.08 224.697 2401.35 234.991 2405.54 248.016C2407.3 253.49 2410.66 256.754 2416.14 258.136C2429.13 261.419 2442.32 260.605 2455.4 259.453C2506.56 254.949 2556.72 244.098 2607.25 235.561C2660.41 226.579 2713.61 217.702 2766.99 210.103C2835.62 200.332 2904.73 194.994 2973.94 191.316C3061.17 186.681 3148.48 184.894 3235.76 189.067C3285.99 191.469 3336.21 194.899 3386.28 199.464C3449.84 205.258 3512.41 217.307 3574.46 232.317C3642.55 248.788 3711.17 263.02 3780.59 272.583C3829.55 279.328 3878.77 284.396 3927.98 289.005C3980.76 293.948 4033.76 295.675 4086.75 295.181C4141.89 294.666 4197.07 294.16 4252.13 291.531C4294.34 289.515 4336.47 284.838 4378.5 280.176C4416.87 275.92 4455.12 270.455 4493.33 264.863C4534.66 258.814 4575.91 252.164 4617.14 245.48C4676.94 235.788 4736.68 225.751 4796.48 216.014C4839.51 209.005 4882.54 201.938 4925.66 195.467C4964.84 189.589 5004.08 184.13 5043.38 179.145C5075.26 175.101 5107.22 171.606 5139.21 168.633C5195 163.448 5250.89 160.532 5306.92 164.261C5338.58 166.369 5369.45 173.435 5400.48 179.542C5447.79 188.853 5493 205.332 5538.89 219.526C5561.32 226.463 5584 232.512 5607.7 233.293C5622.07 233.765 5636.04 232.19 5648.49 224.254C5671.91 209.323 5683.57 177.978 5674.36 151C5663.43 118.977 5641.05 98.7379 5607.54 91.7689C5598.59 89.9069 5589.64 90.9979 5581.1 94.5849C5578.96 95.4849 5576.84 96.5259 5574.6 97.0969C5568.07 98.7629 5563.35 95.9039 5563.04 89.2169C5562.8 83.8429 5563.03 78.0289 5564.82 73.0459C5578.73 34.3289 5606.34 10.7299 5646.39 2.32495C5675.91 -3.87005 5703.97 2.94395 5730.87 15.1259C5740.81 19.6289 5750.3 25.1379 5760 30.1869C5760 124.121 5760 218.053 5760 311.993C3840 312 1920 312 0 312C0 261.369 0 210.738 0 160.107Z" fill="#F3EFE5"/>
</g>
<defs>
<clipPath id="clip0_35_70">
<rect width="5760" height="312" fill="white"/>
</clipPath>
</defs>
</svg>
